<svg xmlns="http://www.w3.org/2000/svg" viewBox="0 0 500 500">
	<g fill="#00D6CF">
        <path d="M12.1 143.4L11 223.24L249.18 84.82L250.28 5L12.1 143.4Z" />
        <path d="M12.1 278.29L11 358.12L249.18 219.72L250.28 139.88L12.1 278.29Z" />
        <path d="M251.82 416.71L250.76 496.53L488.91 358.12L490 278.29L251.82 416.71Z" />
        <path d="M251.82 281.81L250.76 361.66L488.91 223.24L490 143.4L251.82 281.81Z" />
        <g fill-opacity="0.7">
            <path d="M11 223.24L250.76 361.66L251.82 281.81L12.1 143.4L11 223.24Z" />
            <path d="M249.18 84.82L488.91 223.24L490 143.4L250.28 5L249.18 84.82Z" />
            <path d="M249.18 219.72L488.91 358.12L490 278.29L250.28 139.88L249.18 219.72Z" />
            <path d="M11 358.12L250.76 496.53L251.82 416.71L12.1 278.29L11 358.12Z" />
        </g>
	</g>
</svg>