<?xml version="1.0" encoding="UTF-8" standalone="no"?>
<!DOCTYPE svg PUBLIC "-//W3C//DTD SVG 1.1//EN"
 "http://www.w3.org/Graphics/SVG/1.1/DTD/svg11.dtd">
<!-- Generated by graphviz version 2.43.0 (0)
 -->
<!-- Title: G Pages: 1 -->
<svg width="2073pt" height="1587pt"
 viewBox="0.00 0.00 2073.20 1586.57" xmlns="http://www.w3.org/2000/svg" xmlns:xlink="http://www.w3.org/1999/xlink">
<g id="graph0" class="graph" transform="scale(1 1) rotate(0) translate(21.6 1564.97)">
<title>G</title>
<polygon fill="#ffffff" stroke="transparent" points="-21.6,21.6 -21.6,-1564.97 2051.6,-1564.97 2051.6,21.6 -21.6,21.6"/>
<!-- ../config.js -->
<g id="node1" class="node">
<title>../config.js</title>
<path fill="none" stroke="#255c00" d="M2022.33,-1183.5C2022.33,-1183.5 1960.67,-1183.5 1960.67,-1183.5 1956.83,-1183.5 1953,-1179.67 1953,-1175.83 1953,-1175.83 1953,-1168.17 1953,-1168.17 1953,-1164.33 1956.83,-1160.5 1960.67,-1160.5 1960.67,-1160.5 2022.33,-1160.5 2022.33,-1160.5 2026.17,-1160.5 2030,-1164.33 2030,-1168.17 2030,-1168.17 2030,-1175.83 2030,-1175.83 2030,-1179.67 2026.17,-1183.5 2022.33,-1183.5"/>
<text text-anchor="middle" x="1991.5" y="-1168.3" font-family="Arial" font-size="14.00" fill="#255c00">../config.js</text>
</g>
<!-- api/index.ts -->
<g id="node2" class="node">
<title>api/index.ts</title>
<path fill="none" stroke="#0130a2" d="M196.33,-476.5C196.33,-476.5 126.67,-476.5 126.67,-476.5 122.83,-476.5 119,-472.67 119,-468.83 119,-468.83 119,-461.17 119,-461.17 119,-457.33 122.83,-453.5 126.67,-453.5 126.67,-453.5 196.33,-453.5 196.33,-453.5 200.17,-453.5 204,-457.33 204,-461.17 204,-461.17 204,-468.83 204,-468.83 204,-472.67 200.17,-476.5 196.33,-476.5"/>
<text text-anchor="middle" x="161.5" y="-461.3" font-family="Arial" font-size="14.00" fill="#0130a2">api/index.ts</text>
</g>
<!-- assignments/routes.ts -->
<g id="node3" class="node">
<title>assignments/routes.ts</title>
<path fill="none" stroke="#0130a2" d="M410.33,-518.5C410.33,-518.5 276.67,-518.5 276.67,-518.5 272.83,-518.5 269,-514.67 269,-510.83 269,-510.83 269,-503.17 269,-503.17 269,-499.33 272.83,-495.5 276.67,-495.5 276.67,-495.5 410.33,-495.5 410.33,-495.5 414.17,-495.5 418,-499.33 418,-503.17 418,-503.17 418,-510.83 418,-510.83 418,-514.67 414.17,-518.5 410.33,-518.5"/>
<text text-anchor="middle" x="343.5" y="-503.3" font-family="Arial" font-size="14.00" fill="#0130a2">assignments/routes.ts</text>
</g>
<!-- api/index.ts&#45;&gt;assignments/routes.ts -->
<g id="edge1" class="edge">
<title>api/index.ts&#45;&gt;assignments/routes.ts</title>
<path fill="none" stroke="#757575" d="M204.25,-474.74C227.63,-480.2 257.17,-487.09 282.95,-493.1"/>
<polygon fill="#757575" stroke="#757575" points="282.45,-496.58 292.99,-495.45 284.04,-489.77 282.45,-496.58"/>
</g>
<!-- classes/routes.ts -->
<g id="node4" class="node">
<title>classes/routes.ts</title>
<path fill="none" stroke="#0130a2" d="M591.33,-680.5C591.33,-680.5 489.67,-680.5 489.67,-680.5 485.83,-680.5 482,-676.67 482,-672.83 482,-672.83 482,-665.17 482,-665.17 482,-661.33 485.83,-657.5 489.67,-657.5 489.67,-657.5 591.33,-657.5 591.33,-657.5 595.17,-657.5 599,-661.33 599,-665.17 599,-665.17 599,-672.83 599,-672.83 599,-676.67 595.17,-680.5 591.33,-680.5"/>
<text text-anchor="middle" x="540.5" y="-665.3" font-family="Arial" font-size="14.00" fill="#0130a2">classes/routes.ts</text>
</g>
<!-- api/index.ts&#45;&gt;classes/routes.ts -->
<g id="edge2" class="edge">
<title>api/index.ts&#45;&gt;classes/routes.ts</title>
<path fill="none" stroke="#757575" d="M178.14,-476.55C220.54,-507.39 342.01,-592.76 454,-643 463.55,-647.28 474,-651.11 484.21,-654.43"/>
<polygon fill="#757575" stroke="#757575" points="483.31,-657.82 493.9,-657.46 485.4,-651.14 483.31,-657.82"/>
</g>
<!-- config.ts -->
<g id="node5" class="node">
<title>config.ts</title>
<path fill="none" stroke="#0130a2" d="M1909.33,-1183.5C1909.33,-1183.5 1857.67,-1183.5 1857.67,-1183.5 1853.83,-1183.5 1850,-1179.67 1850,-1175.83 1850,-1175.83 1850,-1168.17 1850,-1168.17 1850,-1164.33 1853.83,-1160.5 1857.67,-1160.5 1857.67,-1160.5 1909.33,-1160.5 1909.33,-1160.5 1913.17,-1160.5 1917,-1164.33 1917,-1168.17 1917,-1168.17 1917,-1175.83 1917,-1175.83 1917,-1179.67 1913.17,-1183.5 1909.33,-1183.5"/>
<text text-anchor="middle" x="1883.5" y="-1168.3" font-family="Arial" font-size="14.00" fill="#0130a2">config.ts</text>
</g>
<!-- api/index.ts&#45;&gt;config.ts -->
<g id="edge3" class="edge">
<title>api/index.ts&#45;&gt;config.ts</title>
<path fill="none" stroke="#757575" d="M164.04,-476.63C179.44,-590.45 309.82,-1501 539.5,-1501 539.5,-1501 539.5,-1501 908,-1501 1165.44,-1501 1228.56,-1539 1486,-1539 1486,-1539 1486,-1539 1649,-1539 1813.47,-1539 1867.1,-1273.38 1879.44,-1194.09"/>
<polygon fill="#757575" stroke="#757575" points="1882.96,-1194.2 1880.97,-1183.8 1876.04,-1193.17 1882.96,-1194.2"/>
</g>
<!-- logger.ts -->
<g id="node6" class="node">
<title>logger.ts</title>
<path fill="none" stroke="#0130a2" d="M1806.33,-1183.5C1806.33,-1183.5 1753.67,-1183.5 1753.67,-1183.5 1749.83,-1183.5 1746,-1179.67 1746,-1175.83 1746,-1175.83 1746,-1168.17 1746,-1168.17 1746,-1164.33 1749.83,-1160.5 1753.67,-1160.5 1753.67,-1160.5 1806.33,-1160.5 1806.33,-1160.5 1810.17,-1160.5 1814,-1164.33 1814,-1168.17 1814,-1168.17 1814,-1175.83 1814,-1175.83 1814,-1179.67 1810.17,-1183.5 1806.33,-1183.5"/>
<text text-anchor="middle" x="1780" y="-1168.3" font-family="Arial" font-size="14.00" fill="#0130a2">logger.ts</text>
</g>
<!-- api/index.ts&#45;&gt;logger.ts -->
<g id="edge4" class="edge">
<title>api/index.ts&#45;&gt;logger.ts</title>
<path fill="none" stroke="#757575" d="M204.18,-460.42C214.7,-457.47 225.21,-452.69 233,-445 272.93,-405.58 242.47,-373.44 269,-324 357.68,-158.7 351.91,0 539.5,0 539.5,0 539.5,0 1488,0 1642.67,0 1661.21,-121.23 1710,-268 1766.94,-439.28 1777.24,-1029.25 1778.76,-1150.22"/>
<polygon fill="#757575" stroke="#757575" points="1775.27,-1150.48 1778.89,-1160.43 1782.27,-1150.39 1775.27,-1150.48"/>
</g>
<!-- reviews/routes.ts -->
<g id="node7" class="node">
<title>reviews/routes.ts</title>
<path fill="none" stroke="#0130a2" d="M591.83,-351.5C591.83,-351.5 489.17,-351.5 489.17,-351.5 485.33,-351.5 481.5,-347.67 481.5,-343.83 481.5,-343.83 481.5,-336.17 481.5,-336.17 481.5,-332.33 485.33,-328.5 489.17,-328.5 489.17,-328.5 591.83,-328.5 591.83,-328.5 595.67,-328.5 599.5,-332.33 599.5,-336.17 599.5,-336.17 599.5,-343.83 599.5,-343.83 599.5,-347.67 595.67,-351.5 591.83,-351.5"/>
<text text-anchor="middle" x="540.5" y="-336.3" font-family="Arial" font-size="14.00" fill="#0130a2">reviews/routes.ts</text>
</g>
<!-- api/index.ts&#45;&gt;reviews/routes.ts -->
<g id="edge5" class="edge">
<title>api/index.ts&#45;&gt;reviews/routes.ts</title>
<path fill="none" stroke="#757575" d="M204.16,-459.4C214.45,-456.43 224.84,-451.9 233,-445 261.53,-420.85 238.53,-390.64 269,-369 327.69,-327.31 412.4,-324.98 471.32,-329.93"/>
<polygon fill="#757575" stroke="#757575" points="471,-333.41 481.28,-330.85 471.65,-326.44 471,-333.41"/>
</g>
<!-- users/routes.ts -->
<g id="node8" class="node">
<title>users/routes.ts</title>
<path fill="none" stroke="#0130a2" d="M779.33,-618.5C779.33,-618.5 689.67,-618.5 689.67,-618.5 685.83,-618.5 682,-614.67 682,-610.83 682,-610.83 682,-603.17 682,-603.17 682,-599.33 685.83,-595.5 689.67,-595.5 689.67,-595.5 779.33,-595.5 779.33,-595.5 783.17,-595.5 787,-599.33 787,-603.17 787,-603.17 787,-610.83 787,-610.83 787,-614.67 783.17,-618.5 779.33,-618.5"/>
<text text-anchor="middle" x="734.5" y="-603.3" font-family="Arial" font-size="14.00" fill="#0130a2">users/routes.ts</text>
</g>
<!-- api/index.ts&#45;&gt;users/routes.ts -->
<g id="edge6" class="edge">
<title>api/index.ts&#45;&gt;users/routes.ts</title>
<path fill="none" stroke="#757575" d="M204.21,-456.69C288.81,-441.98 484.62,-418.9 627,-487 671.73,-508.39 705.75,-558.06 722.32,-586.33"/>
<polygon fill="#757575" stroke="#757575" points="719.47,-588.39 727.45,-595.36 725.56,-584.93 719.47,-588.39"/>
</g>
<!-- work/routes.ts -->
<g id="node9" class="node">
<title>work/routes.ts</title>
<path fill="none" stroke="#0130a2" d="M777.33,-391.5C777.33,-391.5 691.67,-391.5 691.67,-391.5 687.83,-391.5 684,-387.67 684,-383.83 684,-383.83 684,-376.17 684,-376.17 684,-372.33 687.83,-368.5 691.67,-368.5 691.67,-368.5 777.33,-368.5 777.33,-368.5 781.17,-368.5 785,-372.33 785,-376.17 785,-376.17 785,-383.83 785,-383.83 785,-387.67 781.17,-391.5 777.33,-391.5"/>
<text text-anchor="middle" x="734.5" y="-376.3" font-family="Arial" font-size="14.00" fill="#0130a2">work/routes.ts</text>
</g>
<!-- api/index.ts&#45;&gt;work/routes.ts -->
<g id="edge7" class="edge">
<title>api/index.ts&#45;&gt;work/routes.ts</title>
<path fill="none" stroke="#757575" d="M204.2,-456.95C214.05,-454.04 224.22,-450.15 233,-445 252.51,-433.54 248.38,-418.31 269,-409 403.34,-348.38 582.07,-359.43 673.72,-370.78"/>
<polygon fill="#757575" stroke="#757575" points="673.29,-374.26 683.66,-372.06 674.18,-367.31 673.29,-374.26"/>
</g>
<!-- assignments/controllers.ts -->
<g id="node16" class="node">
<title>assignments/controllers.ts</title>
<path fill="none" stroke="#0130a2" d="M619.33,-633.5C619.33,-633.5 461.67,-633.5 461.67,-633.5 457.83,-633.5 454,-629.67 454,-625.83 454,-625.83 454,-618.17 454,-618.17 454,-614.33 457.83,-610.5 461.67,-610.5 461.67,-610.5 619.33,-610.5 619.33,-610.5 623.17,-610.5 627,-614.33 627,-618.17 627,-618.17 627,-625.83 627,-625.83 627,-629.67 623.17,-633.5 619.33,-633.5"/>
<text text-anchor="middle" x="540.5" y="-618.3" font-family="Arial" font-size="14.00" fill="#0130a2">assignments/controllers.ts</text>
</g>
<!-- assignments/routes.ts&#45;&gt;assignments/controllers.ts -->
<g id="edge19" class="edge">
<title>assignments/routes.ts&#45;&gt;assignments/controllers.ts</title>
<path fill="none" stroke="#757575" d="M359.12,-518.68C379.57,-534.67 418.21,-563.72 454,-584 468.61,-592.28 485.36,-600.07 500.14,-606.41"/>
<polygon fill="#757575" stroke="#757575" points="498.95,-609.71 509.52,-610.36 501.67,-603.26 498.95,-609.71"/>
</g>
<!-- assignments/validation.ts -->
<g id="node21" class="node">
<title>assignments/validation.ts</title>
<path fill="none" stroke="#0130a2" d="M616.83,-518.5C616.83,-518.5 464.17,-518.5 464.17,-518.5 460.33,-518.5 456.5,-514.67 456.5,-510.83 456.5,-510.83 456.5,-503.17 456.5,-503.17 456.5,-499.33 460.33,-495.5 464.17,-495.5 464.17,-495.5 616.83,-495.5 616.83,-495.5 620.67,-495.5 624.5,-499.33 624.5,-503.17 624.5,-503.17 624.5,-510.83 624.5,-510.83 624.5,-514.67 620.67,-518.5 616.83,-518.5"/>
<text text-anchor="middle" x="540.5" y="-503.3" font-family="Arial" font-size="14.00" fill="#0130a2">assignments/validation.ts</text>
</g>
<!-- assignments/routes.ts&#45;&gt;assignments/validation.ts -->
<g id="edge20" class="edge">
<title>assignments/routes.ts&#45;&gt;assignments/validation.ts</title>
<path fill="none" stroke="#757575" d="M418.22,-507C427.33,-507 436.73,-507 446.09,-507"/>
<polygon fill="#757575" stroke="#757575" points="446.2,-510.5 456.2,-507 446.2,-503.5 446.2,-510.5"/>
</g>
<!-- classes/validation.ts -->
<g id="node22" class="node">
<title>classes/validation.ts</title>
<path fill="none" stroke="#0130a2" d="M795.33,-727.5C795.33,-727.5 673.67,-727.5 673.67,-727.5 669.83,-727.5 666,-723.67 666,-719.83 666,-719.83 666,-712.17 666,-712.17 666,-708.33 669.83,-704.5 673.67,-704.5 673.67,-704.5 795.33,-704.5 795.33,-704.5 799.17,-704.5 803,-708.33 803,-712.17 803,-712.17 803,-719.83 803,-719.83 803,-723.67 799.17,-727.5 795.33,-727.5"/>
<text text-anchor="middle" x="734.5" y="-712.3" font-family="Arial" font-size="14.00" fill="#0130a2">classes/validation.ts</text>
</g>
<!-- assignments/routes.ts&#45;&gt;classes/validation.ts -->
<g id="edge21" class="edge">
<title>assignments/routes.ts&#45;&gt;classes/validation.ts</title>
<path fill="none" stroke="#757575" d="M394.54,-518.51C466.12,-535.83 592.89,-570.01 627,-602 657.82,-630.91 632.6,-660.65 663,-690 666.99,-693.85 671.6,-697.14 676.51,-699.95"/>
<polygon fill="#757575" stroke="#757575" points="675.1,-703.16 685.6,-704.5 678.23,-696.89 675.1,-703.16"/>
</g>
<!-- validation/index.ts -->
<g id="node23" class="node">
<title>validation/index.ts</title>
<path fill="none" stroke="#0130a2" d="M1142.83,-491.5C1142.83,-491.5 1034.17,-491.5 1034.17,-491.5 1030.33,-491.5 1026.5,-487.67 1026.5,-483.83 1026.5,-483.83 1026.5,-476.17 1026.5,-476.17 1026.5,-472.33 1030.33,-468.5 1034.17,-468.5 1034.17,-468.5 1142.83,-468.5 1142.83,-468.5 1146.67,-468.5 1150.5,-472.33 1150.5,-476.17 1150.5,-476.17 1150.5,-483.83 1150.5,-483.83 1150.5,-487.67 1146.67,-491.5 1142.83,-491.5"/>
<text text-anchor="middle" x="1088.5" y="-476.3" font-family="Arial" font-size="14.00" fill="#0130a2">validation/index.ts</text>
</g>
<!-- assignments/routes.ts&#45;&gt;validation/index.ts -->
<g id="edge22" class="edge">
<title>assignments/routes.ts&#45;&gt;validation/index.ts</title>
<path fill="none" stroke="#757575" d="M397.72,-495.46C415.52,-492.08 435.54,-488.82 454,-487 656.95,-467.04 898.21,-472.32 1015.84,-476.75"/>
<polygon fill="#757575" stroke="#757575" points="1016.02,-480.26 1026.15,-477.15 1016.3,-473.26 1016.02,-480.26"/>
</g>
<!-- classes/routes.ts&#45;&gt;classes/validation.ts -->
<g id="edge39" class="edge">
<title>classes/routes.ts&#45;&gt;classes/validation.ts</title>
<path fill="none" stroke="#757575" d="M588.96,-680.62C615.37,-687.08 648.42,-695.17 676.26,-701.99"/>
<polygon fill="#757575" stroke="#757575" points="675.71,-705.46 686.25,-704.43 677.37,-698.66 675.71,-705.46"/>
</g>
<!-- classes/routes.ts&#45;&gt;validation/index.ts -->
<g id="edge40" class="edge">
<title>classes/routes.ts&#45;&gt;validation/index.ts</title>
<path fill="none" stroke="#757575" d="M599.38,-657.5C609.19,-653.89 618.83,-649.18 627,-643 650.6,-625.16 638.97,-604.27 663,-587 692.24,-565.98 910.86,-517.44 1022.42,-493.64"/>
<polygon fill="#757575" stroke="#757575" points="1023.17,-497.06 1032.22,-491.56 1021.71,-490.22 1023.17,-497.06"/>
</g>
<!-- classes/controllers.ts -->
<g id="node26" class="node">
<title>classes/controllers.ts</title>
<path fill="none" stroke="#0130a2" d="M797.83,-1014.5C797.83,-1014.5 671.17,-1014.5 671.17,-1014.5 667.33,-1014.5 663.5,-1010.67 663.5,-1006.83 663.5,-1006.83 663.5,-999.17 663.5,-999.17 663.5,-995.33 667.33,-991.5 671.17,-991.5 671.17,-991.5 797.83,-991.5 797.83,-991.5 801.67,-991.5 805.5,-995.33 805.5,-999.17 805.5,-999.17 805.5,-1006.83 805.5,-1006.83 805.5,-1010.67 801.67,-1014.5 797.83,-1014.5"/>
<text text-anchor="middle" x="734.5" y="-999.3" font-family="Arial" font-size="14.00" fill="#0130a2">classes/controllers.ts</text>
</g>
<!-- classes/routes.ts&#45;&gt;classes/controllers.ts -->
<g id="edge38" class="edge">
<title>classes/routes.ts&#45;&gt;classes/controllers.ts</title>
<path fill="none" stroke="#757575" d="M546.76,-680.56C562.71,-715.27 612.51,-821.28 663,-904 680.44,-932.58 703.35,-963.77 718.25,-983.35"/>
<polygon fill="#757575" stroke="#757575" points="715.62,-985.67 724.48,-991.48 721.17,-981.42 715.62,-985.67"/>
</g>
<!-- config.ts&#45;&gt;../config.js -->
<g id="edge53" class="edge">
<title>config.ts&#45;&gt;../config.js</title>
<path fill="none" stroke="#757575" d="M1917.17,-1172C1925.3,-1172 1934.19,-1172 1942.88,-1172"/>
<polygon fill="#757575" stroke="#757575" points="1942.93,-1175.5 1952.93,-1172 1942.93,-1168.5 1942.93,-1175.5"/>
</g>
<!-- logger.ts&#45;&gt;config.ts -->
<g id="edge55" class="edge">
<title>logger.ts&#45;&gt;config.ts</title>
<path fill="none" stroke="#757575" d="M1814.23,-1172C1822.37,-1172 1831.2,-1172 1839.71,-1172"/>
<polygon fill="#757575" stroke="#757575" points="1839.88,-1175.5 1849.88,-1172 1839.88,-1168.5 1839.88,-1175.5"/>
</g>
<!-- reviews/routes.ts&#45;&gt;validation/index.ts -->
<g id="edge66" class="edge">
<title>reviews/routes.ts&#45;&gt;validation/index.ts</title>
<path fill="none" stroke="#757575" d="M599.65,-338.41C685.42,-338.33 848.98,-346.89 972,-406 989.79,-414.55 991.54,-421.11 1008,-432 1024.37,-442.83 1043.15,-454.21 1058.34,-463.17"/>
<polygon fill="#757575" stroke="#757575" points="1056.89,-466.38 1067.29,-468.42 1060.43,-460.34 1056.89,-466.38"/>
</g>
<!-- reviews/controllers.ts -->
<g id="node35" class="node">
<title>reviews/controllers.ts</title>
<path fill="none" stroke="#0130a2" d="M798.33,-432.5C798.33,-432.5 670.67,-432.5 670.67,-432.5 666.83,-432.5 663,-428.67 663,-424.83 663,-424.83 663,-417.17 663,-417.17 663,-413.33 666.83,-409.5 670.67,-409.5 670.67,-409.5 798.33,-409.5 798.33,-409.5 802.17,-409.5 806,-413.33 806,-417.17 806,-417.17 806,-424.83 806,-424.83 806,-428.67 802.17,-432.5 798.33,-432.5"/>
<text text-anchor="middle" x="734.5" y="-417.3" font-family="Arial" font-size="14.00" fill="#0130a2">reviews/controllers.ts</text>
</g>
<!-- reviews/routes.ts&#45;&gt;reviews/controllers.ts -->
<g id="edge64" class="edge">
<title>reviews/routes.ts&#45;&gt;reviews/controllers.ts</title>
<path fill="none" stroke="#757575" d="M561.6,-351.57C585.27,-364.85 626.04,-386.63 663,-401 667.84,-402.88 672.93,-404.67 678.07,-406.35"/>
<polygon fill="#757575" stroke="#757575" points="677.36,-409.8 687.95,-409.44 679.45,-403.12 677.36,-409.8"/>
</g>
<!-- reviews/validation.ts -->
<g id="node38" class="node">
<title>reviews/validation.ts</title>
<path fill="none" stroke="#0130a2" d="M795.33,-249.5C795.33,-249.5 673.67,-249.5 673.67,-249.5 669.83,-249.5 666,-245.67 666,-241.83 666,-241.83 666,-234.17 666,-234.17 666,-230.33 669.83,-226.5 673.67,-226.5 673.67,-226.5 795.33,-226.5 795.33,-226.5 799.17,-226.5 803,-230.33 803,-234.17 803,-234.17 803,-241.83 803,-241.83 803,-245.67 799.17,-249.5 795.33,-249.5"/>
<text text-anchor="middle" x="734.5" y="-234.3" font-family="Arial" font-size="14.00" fill="#0130a2">reviews/validation.ts</text>
</g>
<!-- reviews/routes.ts&#45;&gt;reviews/validation.ts -->
<g id="edge65" class="edge">
<title>reviews/routes.ts&#45;&gt;reviews/validation.ts</title>
<path fill="none" stroke="#757575" d="M561.5,-328.31C585.42,-314.45 626.76,-290.86 663,-272 674.68,-265.92 687.61,-259.58 699.18,-254.04"/>
<polygon fill="#757575" stroke="#757575" points="700.99,-257.05 708.52,-249.59 697.99,-250.73 700.99,-257.05"/>
</g>
<!-- work/validation.ts -->
<g id="node39" class="node">
<title>work/validation.ts</title>
<path fill="none" stroke="#0130a2" d="M959.33,-280.5C959.33,-280.5 854.67,-280.5 854.67,-280.5 850.83,-280.5 847,-276.67 847,-272.83 847,-272.83 847,-265.17 847,-265.17 847,-261.33 850.83,-257.5 854.67,-257.5 854.67,-257.5 959.33,-257.5 959.33,-257.5 963.17,-257.5 967,-261.33 967,-265.17 967,-265.17 967,-272.83 967,-272.83 967,-276.67 963.17,-280.5 959.33,-280.5"/>
<text text-anchor="middle" x="907" y="-265.3" font-family="Arial" font-size="14.00" fill="#0130a2">work/validation.ts</text>
</g>
<!-- reviews/routes.ts&#45;&gt;work/validation.ts -->
<g id="edge67" class="edge">
<title>reviews/routes.ts&#45;&gt;work/validation.ts</title>
<path fill="none" stroke="#757575" d="M599.66,-328.67C664.22,-316.1 768.34,-295.81 836.98,-282.44"/>
<polygon fill="#757575" stroke="#757575" points="837.69,-285.87 846.84,-280.52 836.35,-279 837.69,-285.87"/>
</g>
<!-- users/routes.ts&#45;&gt;validation/index.ts -->
<g id="edge86" class="edge">
<title>users/routes.ts&#45;&gt;validation/index.ts</title>
<path fill="none" stroke="#757575" d="M787.22,-600.72C836.46,-593.37 911.76,-578.56 972,-551 989.95,-542.79 991.39,-535.66 1008,-525 1023.7,-514.93 1041.75,-504.62 1056.68,-496.41"/>
<polygon fill="#757575" stroke="#757575" points="1058.42,-499.45 1065.52,-491.59 1055.07,-493.3 1058.42,-499.45"/>
</g>
<!-- users/controllers.ts -->
<g id="node41" class="node">
<title>users/controllers.ts</title>
<path fill="none" stroke="#0130a2" d="M964.33,-823.5C964.33,-823.5 849.67,-823.5 849.67,-823.5 845.83,-823.5 842,-819.67 842,-815.83 842,-815.83 842,-808.17 842,-808.17 842,-804.33 845.83,-800.5 849.67,-800.5 849.67,-800.5 964.33,-800.5 964.33,-800.5 968.17,-800.5 972,-804.33 972,-808.17 972,-808.17 972,-815.83 972,-815.83 972,-819.67 968.17,-823.5 964.33,-823.5"/>
<text text-anchor="middle" x="907" y="-808.3" font-family="Arial" font-size="14.00" fill="#0130a2">users/controllers.ts</text>
</g>
<!-- users/routes.ts&#45;&gt;users/controllers.ts -->
<g id="edge84" class="edge">
<title>users/routes.ts&#45;&gt;users/controllers.ts</title>
<path fill="none" stroke="#757575" d="M746.5,-618.57C761.5,-634.82 788.51,-665.81 806,-696 827.6,-733.27 811.62,-755.46 842,-786 845.66,-789.68 849.91,-792.86 854.45,-795.6"/>
<polygon fill="#757575" stroke="#757575" points="852.97,-798.78 863.45,-800.35 856.24,-792.59 852.97,-798.78"/>
</g>
<!-- users/validation.ts -->
<g id="node42" class="node">
<title>users/validation.ts</title>
<path fill="none" stroke="#0130a2" d="M961.83,-705.5C961.83,-705.5 852.17,-705.5 852.17,-705.5 848.33,-705.5 844.5,-701.67 844.5,-697.83 844.5,-697.83 844.5,-690.17 844.5,-690.17 844.5,-686.33 848.33,-682.5 852.17,-682.5 852.17,-682.5 961.83,-682.5 961.83,-682.5 965.67,-682.5 969.5,-686.33 969.5,-690.17 969.5,-690.17 969.5,-697.83 969.5,-697.83 969.5,-701.67 965.67,-705.5 961.83,-705.5"/>
<text text-anchor="middle" x="907" y="-690.3" font-family="Arial" font-size="14.00" fill="#0130a2">users/validation.ts</text>
</g>
<!-- users/routes.ts&#45;&gt;users/validation.ts -->
<g id="edge85" class="edge">
<title>users/routes.ts&#45;&gt;users/validation.ts</title>
<path fill="none" stroke="#757575" d="M751,-618.57C771.11,-633.14 807.68,-658.17 842,-674 845.81,-675.76 849.81,-677.41 853.87,-678.96"/>
<polygon fill="#757575" stroke="#757575" points="852.82,-682.31 863.42,-682.39 855.19,-675.72 852.82,-682.31"/>
</g>
<!-- work/routes.ts&#45;&gt;validation/index.ts -->
<g id="edge106" class="edge">
<title>work/routes.ts&#45;&gt;validation/index.ts</title>
<path fill="none" stroke="#757575" d="M776.52,-391.59C823.7,-404.93 903.45,-427.5 972,-447 993.46,-453.11 1017.16,-459.87 1037.47,-465.68"/>
<polygon fill="#757575" stroke="#757575" points="1036.57,-469.06 1047.15,-468.45 1038.5,-462.33 1036.57,-469.06"/>
</g>
<!-- work/routes.ts&#45;&gt;work/validation.ts -->
<g id="edge108" class="edge">
<title>work/routes.ts&#45;&gt;work/validation.ts</title>
<path fill="none" stroke="#757575" d="M753.42,-368.33C783.56,-348.71 844.52,-309.02 879.58,-286.2"/>
<polygon fill="#757575" stroke="#757575" points="881.84,-288.9 888.32,-280.51 878.03,-283.04 881.84,-288.9"/>
</g>
<!-- work/controllers.ts -->
<g id="node44" class="node">
<title>work/controllers.ts</title>
<path fill="none" stroke="#0130a2" d="M1143.33,-1010.5C1143.33,-1010.5 1033.67,-1010.5 1033.67,-1010.5 1029.83,-1010.5 1026,-1006.67 1026,-1002.83 1026,-1002.83 1026,-995.17 1026,-995.17 1026,-991.33 1029.83,-987.5 1033.67,-987.5 1033.67,-987.5 1143.33,-987.5 1143.33,-987.5 1147.17,-987.5 1151,-991.33 1151,-995.17 1151,-995.17 1151,-1002.83 1151,-1002.83 1151,-1006.67 1147.17,-1010.5 1143.33,-1010.5"/>
<text text-anchor="middle" x="1088.5" y="-995.3" font-family="Arial" font-size="14.00" fill="#0130a2">work/controllers.ts</text>
</g>
<!-- work/routes.ts&#45;&gt;work/controllers.ts -->
<g id="edge107" class="edge">
<title>work/routes.ts&#45;&gt;work/controllers.ts</title>
<path fill="none" stroke="#757575" d="M785.05,-386.72C793.05,-389.88 800.5,-394.44 806,-401 896.25,-508.64 765.6,-597.13 842,-715 878.53,-771.35 932.12,-737.97 972,-792 1012.71,-847.16 969.73,-885.11 1008,-942 1019.52,-959.12 1038.01,-972.83 1054.26,-982.51"/>
<polygon fill="#757575" stroke="#757575" points="1052.58,-985.58 1063,-987.47 1056.03,-979.49 1052.58,-985.58"/>
</g>
<!-- api/types.ts -->
<g id="node10" class="node">
<title>api/types.ts</title>
<path fill="none" stroke="#255c00" d="M1682.83,-932.5C1682.83,-932.5 1613.17,-932.5 1613.17,-932.5 1609.33,-932.5 1605.5,-928.67 1605.5,-924.83 1605.5,-924.83 1605.5,-917.17 1605.5,-917.17 1605.5,-913.33 1609.33,-909.5 1613.17,-909.5 1613.17,-909.5 1682.83,-909.5 1682.83,-909.5 1686.67,-909.5 1690.5,-913.33 1690.5,-917.17 1690.5,-917.17 1690.5,-924.83 1690.5,-924.83 1690.5,-928.67 1686.67,-932.5 1682.83,-932.5"/>
<text text-anchor="middle" x="1648" y="-917.3" font-family="Arial" font-size="14.00" fill="#255c00">api/types.ts</text>
</g>
<!-- app.ts -->
<g id="node11" class="node">
<title>app.ts</title>
<path fill="none" stroke="#0130a2" d="M46.33,-414.5C46.33,-414.5 7.67,-414.5 7.67,-414.5 3.83,-414.5 0,-410.67 0,-406.83 0,-406.83 0,-399.17 0,-399.17 0,-395.33 3.83,-391.5 7.67,-391.5 7.67,-391.5 46.33,-391.5 46.33,-391.5 50.17,-391.5 54,-395.33 54,-399.17 54,-399.17 54,-406.83 54,-406.83 54,-410.67 50.17,-414.5 46.33,-414.5"/>
<text text-anchor="middle" x="27" y="-399.3" font-family="Arial" font-size="14.00" fill="#0130a2">app.ts</text>
</g>
<!-- app.ts&#45;&gt;api/index.ts -->
<g id="edge8" class="edge">
<title>app.ts&#45;&gt;api/index.ts</title>
<path fill="none" stroke="#757575" d="M42.48,-414.78C54.56,-424.11 72.56,-436.88 90,-445 96.04,-447.82 102.57,-450.32 109.12,-452.51"/>
<polygon fill="#757575" stroke="#757575" points="108.1,-455.86 118.69,-455.52 110.2,-449.18 108.1,-455.86"/>
</g>
<!-- app.ts&#45;&gt;logger.ts -->
<g id="edge11" class="edge">
<title>app.ts&#45;&gt;logger.ts</title>
<path fill="none" stroke="#757575" d="M28.59,-414.61C35.01,-534.31 96.16,-1539 342.5,-1539 342.5,-1539 342.5,-1539 908,-1539 1087.29,-1539 1578.17,-1572.52 1710,-1451 1748.17,-1415.81 1769.88,-1253.49 1776.67,-1193.96"/>
<polygon fill="#757575" stroke="#757575" points="1780.17,-1194.12 1777.79,-1183.79 1773.21,-1193.35 1780.17,-1194.12"/>
</g>
<!-- assignments/static.ts -->
<g id="node12" class="node">
<title>assignments/static.ts</title>
<path fill="none" stroke="#255c00" d="M225.33,-435.5C225.33,-435.5 97.67,-435.5 97.67,-435.5 93.83,-435.5 90,-431.67 90,-427.83 90,-427.83 90,-420.17 90,-420.17 90,-416.33 93.83,-412.5 97.67,-412.5 97.67,-412.5 225.33,-412.5 225.33,-412.5 229.17,-412.5 233,-416.33 233,-420.17 233,-420.17 233,-427.83 233,-427.83 233,-431.67 229.17,-435.5 225.33,-435.5"/>
<text text-anchor="middle" x="161.5" y="-420.3" font-family="Arial" font-size="14.00" fill="#255c00">assignments/static.ts</text>
</g>
<!-- app.ts&#45;&gt;assignments/static.ts -->
<g id="edge9" class="edge">
<title>app.ts&#45;&gt;assignments/static.ts</title>
<path fill="none" stroke="#757575" d="M54.18,-407.15C61.82,-408.36 70.6,-409.75 79.78,-411.21"/>
<polygon fill="#757575" stroke="#757575" points="79.42,-414.69 89.85,-412.8 80.52,-407.78 79.42,-414.69"/>
</g>
<!-- classes/static.ts -->
<g id="node13" class="node">
<title>classes/static.ts</title>
<path fill="none" stroke="#255c00" d="M209.33,-394.5C209.33,-394.5 113.67,-394.5 113.67,-394.5 109.83,-394.5 106,-390.67 106,-386.83 106,-386.83 106,-379.17 106,-379.17 106,-375.33 109.83,-371.5 113.67,-371.5 113.67,-371.5 209.33,-371.5 209.33,-371.5 213.17,-371.5 217,-375.33 217,-379.17 217,-379.17 217,-386.83 217,-386.83 217,-390.67 213.17,-394.5 209.33,-394.5"/>
<text text-anchor="middle" x="161.5" y="-379.3" font-family="Arial" font-size="14.00" fill="#255c00">classes/static.ts</text>
</g>
<!-- app.ts&#45;&gt;classes/static.ts -->
<g id="edge10" class="edge">
<title>app.ts&#45;&gt;classes/static.ts</title>
<path fill="none" stroke="#757575" d="M54.18,-399.05C66.19,-397.24 81.01,-395 95.74,-392.78"/>
<polygon fill="#757575" stroke="#757575" points="96.52,-396.2 105.88,-391.24 95.47,-389.28 96.52,-396.2"/>
</g>
<!-- reviews/static.ts -->
<g id="node14" class="node">
<title>reviews/static.ts</title>
<path fill="none" stroke="#255c00" d="M209.83,-353.5C209.83,-353.5 113.17,-353.5 113.17,-353.5 109.33,-353.5 105.5,-349.67 105.5,-345.83 105.5,-345.83 105.5,-338.17 105.5,-338.17 105.5,-334.33 109.33,-330.5 113.17,-330.5 113.17,-330.5 209.83,-330.5 209.83,-330.5 213.67,-330.5 217.5,-334.33 217.5,-338.17 217.5,-338.17 217.5,-345.83 217.5,-345.83 217.5,-349.67 213.67,-353.5 209.83,-353.5"/>
<text text-anchor="middle" x="161.5" y="-338.3" font-family="Arial" font-size="14.00" fill="#255c00">reviews/static.ts</text>
</g>
<!-- app.ts&#45;&gt;reviews/static.ts -->
<g id="edge12" class="edge">
<title>app.ts&#45;&gt;reviews/static.ts</title>
<path fill="none" stroke="#757575" d="M43.6,-391.16C55.72,-382.4 73.24,-370.71 90,-363 94.74,-360.82 99.76,-358.8 104.85,-356.95"/>
<polygon fill="#757575" stroke="#757575" points="106.34,-360.14 114.67,-353.59 104.08,-353.51 106.34,-360.14"/>
</g>
<!-- swagger/index.ts -->
<g id="node15" class="node">
<title>swagger/index.ts</title>
<path fill="none" stroke="#255c00" d="M212.83,-312.5C212.83,-312.5 110.17,-312.5 110.17,-312.5 106.33,-312.5 102.5,-308.67 102.5,-304.83 102.5,-304.83 102.5,-297.17 102.5,-297.17 102.5,-293.33 106.33,-289.5 110.17,-289.5 110.17,-289.5 212.83,-289.5 212.83,-289.5 216.67,-289.5 220.5,-293.33 220.5,-297.17 220.5,-297.17 220.5,-304.83 220.5,-304.83 220.5,-308.67 216.67,-312.5 212.83,-312.5"/>
<text text-anchor="middle" x="161.5" y="-297.3" font-family="Arial" font-size="14.00" fill="#255c00">swagger/index.ts</text>
</g>
<!-- app.ts&#45;&gt;swagger/index.ts -->
<g id="edge13" class="edge">
<title>app.ts&#45;&gt;swagger/index.ts</title>
<path fill="none" stroke="#757575" d="M33.74,-391.48C43.1,-373.88 63.32,-340.39 90,-322 92.73,-320.12 95.64,-318.4 98.65,-316.83"/>
<polygon fill="#757575" stroke="#757575" points="100.32,-319.92 107.96,-312.57 97.41,-313.55 100.32,-319.92"/>
</g>
<!-- assignments/services.ts -->
<g id="node17" class="node">
<title>assignments/services.ts</title>
<path fill="none" stroke="#0130a2" d="M1161.33,-816.5C1161.33,-816.5 1015.67,-816.5 1015.67,-816.5 1011.83,-816.5 1008,-812.67 1008,-808.83 1008,-808.83 1008,-801.17 1008,-801.17 1008,-797.33 1011.83,-793.5 1015.67,-793.5 1015.67,-793.5 1161.33,-793.5 1161.33,-793.5 1165.17,-793.5 1169,-797.33 1169,-801.17 1169,-801.17 1169,-808.83 1169,-808.83 1169,-812.67 1165.17,-816.5 1161.33,-816.5"/>
<text text-anchor="middle" x="1088.5" y="-801.3" font-family="Arial" font-size="14.00" fill="#0130a2">assignments/services.ts</text>
</g>
<!-- assignments/controllers.ts&#45;&gt;assignments/services.ts -->
<g id="edge14" class="edge">
<title>assignments/controllers.ts&#45;&gt;assignments/services.ts</title>
<path fill="none" stroke="#757575" d="M601.71,-633.57C610.94,-637.35 619.79,-642.36 627,-649 658.09,-677.62 634.71,-705.61 663,-737 723.43,-804.06 754.45,-811 842,-833 911.09,-850.36 993.85,-833.41 1043.47,-819.37"/>
<polygon fill="#757575" stroke="#757575" points="1044.62,-822.68 1053.24,-816.52 1042.66,-815.96 1044.62,-822.68"/>
</g>
<!-- assignments/services.ts&#45;&gt;api/types.ts -->
<g id="edge23" class="edge">
<title>assignments/services.ts&#45;&gt;api/types.ts</title>
<path fill="none" stroke="#757575" d="M1144.99,-816.55C1253.08,-839.04 1490.39,-888.41 1595.34,-910.25"/>
<polygon fill="#757575" stroke="#757575" points="1594.87,-913.73 1605.37,-912.34 1596.29,-906.87 1594.87,-913.73"/>
</g>
<!-- assignments/db.ts -->
<g id="node18" class="node">
<title>assignments/db.ts</title>
<path fill="none" stroke="#0130a2" d="M1542.33,-742.5C1542.33,-742.5 1431.67,-742.5 1431.67,-742.5 1427.83,-742.5 1424,-738.67 1424,-734.83 1424,-734.83 1424,-727.17 1424,-727.17 1424,-723.33 1427.83,-719.5 1431.67,-719.5 1431.67,-719.5 1542.33,-719.5 1542.33,-719.5 1546.17,-719.5 1550,-723.33 1550,-727.17 1550,-727.17 1550,-734.83 1550,-734.83 1550,-738.67 1546.17,-742.5 1542.33,-742.5"/>
<text text-anchor="middle" x="1487" y="-727.3" font-family="Arial" font-size="14.00" fill="#0130a2">assignments/db.ts</text>
</g>
<!-- assignments/services.ts&#45;&gt;assignments/db.ts -->
<g id="edge24" class="edge">
<title>assignments/services.ts&#45;&gt;assignments/db.ts</title>
<path fill="none" stroke="#757575" d="M1151.45,-793.44C1222.64,-780.15 1339.26,-758.39 1414.31,-744.38"/>
<polygon fill="#757575" stroke="#757575" points="1414.97,-747.82 1424.16,-742.54 1413.68,-740.94 1414.97,-747.82"/>
</g>
<!-- common/result.ts -->
<g id="node19" class="node">
<title>common/result.ts</title>
<path fill="none" stroke="#255c00" d="M1700.83,-433.5C1700.83,-433.5 1595.17,-433.5 1595.17,-433.5 1591.33,-433.5 1587.5,-429.67 1587.5,-425.83 1587.5,-425.83 1587.5,-418.17 1587.5,-418.17 1587.5,-414.33 1591.33,-410.5 1595.17,-410.5 1595.17,-410.5 1700.83,-410.5 1700.83,-410.5 1704.67,-410.5 1708.5,-414.33 1708.5,-418.17 1708.5,-418.17 1708.5,-425.83 1708.5,-425.83 1708.5,-429.67 1704.67,-433.5 1700.83,-433.5"/>
<text text-anchor="middle" x="1648" y="-418.3" font-family="Arial" font-size="14.00" fill="#255c00">common/result.ts</text>
</g>
<!-- assignments/services.ts&#45;&gt;common/result.ts -->
<g id="edge25" class="edge">
<title>assignments/services.ts&#45;&gt;common/result.ts</title>
<path fill="none" stroke="#757575" d="M1111.14,-793.38C1176.39,-758.21 1367.92,-653.77 1388,-629 1419.6,-590.03 1389.23,-558.17 1424,-522 1465.53,-478.8 1495.48,-498.87 1550,-474 1573.6,-463.23 1599.46,-449.26 1618.53,-438.51"/>
<polygon fill="#757575" stroke="#757575" points="1620.35,-441.5 1627.31,-433.52 1616.89,-435.42 1620.35,-441.5"/>
</g>
<!-- work/services.ts -->
<g id="node24" class="node">
<title>work/services.ts</title>
<path fill="none" stroke="#0130a2" d="M1345.33,-1126.5C1345.33,-1126.5 1247.67,-1126.5 1247.67,-1126.5 1243.83,-1126.5 1240,-1122.67 1240,-1118.83 1240,-1118.83 1240,-1111.17 1240,-1111.17 1240,-1107.33 1243.83,-1103.5 1247.67,-1103.5 1247.67,-1103.5 1345.33,-1103.5 1345.33,-1103.5 1349.17,-1103.5 1353,-1107.33 1353,-1111.17 1353,-1111.17 1353,-1118.83 1353,-1118.83 1353,-1122.67 1349.17,-1126.5 1345.33,-1126.5"/>
<text text-anchor="middle" x="1296.5" y="-1111.3" font-family="Arial" font-size="14.00" fill="#0130a2">work/services.ts</text>
</g>
<!-- assignments/services.ts&#45;&gt;work/services.ts -->
<g id="edge26" class="edge">
<title>assignments/services.ts&#45;&gt;work/services.ts</title>
<path fill="none" stroke="#757575" d="M1100.17,-816.64C1116.06,-834.24 1146.47,-868.96 1169,-901 1216.72,-968.88 1264.12,-1055.51 1284.76,-1094.43"/>
<polygon fill="#757575" stroke="#757575" points="1281.76,-1096.26 1289.52,-1103.47 1287.95,-1092.99 1281.76,-1096.26"/>
</g>
<!-- assignments/db.ts&#45;&gt;logger.ts -->
<g id="edge18" class="edge">
<title>assignments/db.ts&#45;&gt;logger.ts</title>
<path fill="none" stroke="#757575" d="M1539.58,-719.47C1589.75,-711.55 1664.8,-708.97 1710,-751 1769.06,-805.92 1777.57,-1072.1 1778.79,-1150.33"/>
<polygon fill="#757575" stroke="#757575" points="1775.3,-1150.51 1778.93,-1160.46 1782.3,-1150.42 1775.3,-1150.51"/>
</g>
<!-- assignments/db.ts&#45;&gt;api/types.ts -->
<g id="edge15" class="edge">
<title>assignments/db.ts&#45;&gt;api/types.ts</title>
<path fill="none" stroke="#757575" d="M1500.31,-742.88C1513.14,-755.45 1533.61,-776.04 1550,-795 1581.03,-830.9 1614.12,-875.4 1632.52,-900.76"/>
<polygon fill="#757575" stroke="#757575" points="1629.91,-903.13 1638.6,-909.19 1635.59,-899.03 1629.91,-903.13"/>
</g>
<!-- assignments/db.ts&#45;&gt;common/result.ts -->
<g id="edge16" class="edge">
<title>assignments/db.ts&#45;&gt;common/result.ts</title>
<path fill="none" stroke="#757575" d="M1538.46,-719.44C1542.68,-717.12 1546.62,-714.34 1550,-711 1626.79,-635.11 1642.79,-496.66 1646.12,-443.54"/>
<polygon fill="#757575" stroke="#757575" points="1649.62,-443.73 1646.66,-433.55 1642.63,-443.35 1649.62,-443.73"/>
</g>
<!-- db.ts -->
<g id="node20" class="node">
<title>db.ts</title>
<path fill="none" stroke="#0130a2" d="M1667.33,-782.5C1667.33,-782.5 1628.67,-782.5 1628.67,-782.5 1624.83,-782.5 1621,-778.67 1621,-774.83 1621,-774.83 1621,-767.17 1621,-767.17 1621,-763.33 1624.83,-759.5 1628.67,-759.5 1628.67,-759.5 1667.33,-759.5 1667.33,-759.5 1671.17,-759.5 1675,-763.33 1675,-767.17 1675,-767.17 1675,-774.83 1675,-774.83 1675,-778.67 1671.17,-782.5 1667.33,-782.5"/>
<text text-anchor="middle" x="1648" y="-767.3" font-family="Arial" font-size="14.00" fill="#0130a2">db.ts</text>
</g>
<!-- assignments/db.ts&#45;&gt;db.ts -->
<g id="edge17" class="edge">
<title>assignments/db.ts&#45;&gt;db.ts</title>
<path fill="none" stroke="#757575" d="M1533.99,-742.57C1558.49,-748.73 1588.18,-756.2 1610.98,-761.94"/>
<polygon fill="#757575" stroke="#757575" points="1610.38,-765.4 1620.93,-764.44 1612.08,-758.61 1610.38,-765.4"/>
</g>
<!-- db.ts&#45;&gt;config.ts -->
<g id="edge54" class="edge">
<title>db.ts&#45;&gt;config.ts</title>
<path fill="none" stroke="#757575" d="M1655.74,-782.57C1688.16,-838.25 1828.3,-1078.93 1870.46,-1151.32"/>
<polygon fill="#757575" stroke="#757575" points="1867.68,-1153.5 1875.74,-1160.38 1873.73,-1149.98 1867.68,-1153.5"/>
</g>
<!-- assignments/validation.ts&#45;&gt;assignments/db.ts -->
<g id="edge27" class="edge">
<title>assignments/validation.ts&#45;&gt;assignments/db.ts</title>
<path fill="none" stroke="#757575" d="M607.9,-518.66C614.88,-521.84 621.44,-525.88 627,-531 660.82,-562.16 631.95,-594.08 663,-628 710.51,-679.92 743.09,-664.46 806,-696 822.17,-704.11 824.49,-710.43 842,-715 948.01,-742.66 1268.96,-737.35 1413.76,-733.34"/>
<polygon fill="#757575" stroke="#757575" points="1413.98,-736.84 1423.88,-733.05 1413.78,-729.84 1413.98,-736.84"/>
</g>
<!-- assignments/validation.ts&#45;&gt;common/result.ts -->
<g id="edge29" class="edge">
<title>assignments/validation.ts&#45;&gt;common/result.ts</title>
<path fill="none" stroke="#757575" d="M549.8,-495.48C566.67,-471.56 605.21,-414.29 627,-361 651.81,-300.34 626.54,-272.46 663,-218 737.77,-106.31 771.6,-38 906,-38 906,-38 906,-38 1297.5,-38 1410.04,-38 1463.43,14.9 1550,-57 1604.22,-102.03 1635.79,-328.87 1644.51,-400.38"/>
<polygon fill="#757575" stroke="#757575" points="1641.05,-400.95 1645.71,-410.47 1648,-400.12 1641.05,-400.95"/>
</g>
<!-- assignments/validation.ts&#45;&gt;classes/validation.ts -->
<g id="edge28" class="edge">
<title>assignments/validation.ts&#45;&gt;classes/validation.ts</title>
<path fill="none" stroke="#757575" d="M574.65,-518.68C592.59,-526.59 613.74,-538.79 627,-556 664.63,-604.85 621.42,-644.46 663,-690 666.34,-693.66 670.25,-696.81 674.47,-699.51"/>
<polygon fill="#757575" stroke="#757575" points="673.06,-702.73 683.52,-704.47 676.43,-696.59 673.06,-702.73"/>
</g>
<!-- assignments/validation.ts&#45;&gt;validation/index.ts -->
<g id="edge30" class="edge">
<title>assignments/validation.ts&#45;&gt;validation/index.ts</title>
<path fill="none" stroke="#757575" d="M624.72,-502.88C731.66,-497.6 915.47,-488.51 1016.26,-483.52"/>
<polygon fill="#757575" stroke="#757575" points="1016.53,-487.01 1026.34,-483.02 1016.18,-480.02 1016.53,-487.01"/>
</g>
<!-- classes/validation.ts&#45;&gt;common/result.ts -->
<g id="edge50" class="edge">
<title>classes/validation.ts&#45;&gt;common/result.ts</title>
<path fill="none" stroke="#757575" d="M746.14,-704.36C760.73,-688.05 787.26,-657.14 806,-628 812.73,-617.53 997.4,-234.52 1008,-228 1110.71,-164.8 1449.37,-188.54 1550,-255 1602.71,-289.81 1630.37,-363.84 1641.31,-400.5"/>
<polygon fill="#757575" stroke="#757575" points="1637.96,-401.53 1644.06,-410.19 1644.69,-399.62 1637.96,-401.53"/>
</g>
<!-- classes/validation.ts&#45;&gt;validation/index.ts -->
<g id="edge51" class="edge">
<title>classes/validation.ts&#45;&gt;validation/index.ts</title>
<path fill="none" stroke="#757575" d="M747.72,-704.44C766.66,-687.02 804.79,-653.87 842,-633 895.85,-602.79 924.45,-623.38 972,-584 995.66,-564.41 985.93,-546.36 1008,-525 1020.15,-513.24 1035.98,-503.47 1050.3,-496.07"/>
<polygon fill="#757575" stroke="#757575" points="1052.03,-499.12 1059.45,-491.55 1048.93,-492.84 1052.03,-499.12"/>
</g>
<!-- classes/services.ts -->
<g id="node27" class="node">
<title>classes/services.ts</title>
<path fill="none" stroke="#0130a2" d="M963.83,-1086.5C963.83,-1086.5 850.17,-1086.5 850.17,-1086.5 846.33,-1086.5 842.5,-1082.67 842.5,-1078.83 842.5,-1078.83 842.5,-1071.17 842.5,-1071.17 842.5,-1067.33 846.33,-1063.5 850.17,-1063.5 850.17,-1063.5 963.83,-1063.5 963.83,-1063.5 967.67,-1063.5 971.5,-1067.33 971.5,-1071.17 971.5,-1071.17 971.5,-1078.83 971.5,-1078.83 971.5,-1082.67 967.67,-1086.5 963.83,-1086.5"/>
<text text-anchor="middle" x="907" y="-1071.3" font-family="Arial" font-size="14.00" fill="#0130a2">classes/services.ts</text>
</g>
<!-- classes/validation.ts&#45;&gt;classes/services.ts -->
<g id="edge49" class="edge">
<title>classes/validation.ts&#45;&gt;classes/services.ts</title>
<path fill="none" stroke="#757575" d="M740.98,-727.54C765.38,-778.91 864.31,-987.22 896.11,-1054.17"/>
<polygon fill="#757575" stroke="#757575" points="893,-1055.79 900.45,-1063.32 899.33,-1052.79 893,-1055.79"/>
</g>
<!-- classes/db.ts -->
<g id="node28" class="node">
<title>classes/db.ts</title>
<path fill="none" stroke="#0130a2" d="M1128.33,-932.5C1128.33,-932.5 1048.67,-932.5 1048.67,-932.5 1044.83,-932.5 1041,-928.67 1041,-924.83 1041,-924.83 1041,-917.17 1041,-917.17 1041,-913.33 1044.83,-909.5 1048.67,-909.5 1048.67,-909.5 1128.33,-909.5 1128.33,-909.5 1132.17,-909.5 1136,-913.33 1136,-917.17 1136,-917.17 1136,-924.83 1136,-924.83 1136,-928.67 1132.17,-932.5 1128.33,-932.5"/>
<text text-anchor="middle" x="1088.5" y="-917.3" font-family="Arial" font-size="14.00" fill="#0130a2">classes/db.ts</text>
</g>
<!-- classes/validation.ts&#45;&gt;classes/db.ts -->
<g id="edge48" class="edge">
<title>classes/validation.ts&#45;&gt;classes/db.ts</title>
<path fill="none" stroke="#757575" d="M743.17,-727.7C758.97,-750.95 797.44,-803.28 842,-833 900.74,-872.18 979.02,-896.28 1031.23,-909.14"/>
<polygon fill="#757575" stroke="#757575" points="1030.45,-912.55 1040.99,-911.48 1032.09,-905.74 1030.45,-912.55"/>
</g>
<!-- validation/index.ts&#45;&gt;common/result.ts -->
<g id="edge98" class="edge">
<title>validation/index.ts&#45;&gt;common/result.ts</title>
<path fill="none" stroke="#757575" d="M1108.15,-468.36C1157.41,-438.4 1296.01,-359.05 1424,-332 1478.79,-320.42 1497.87,-311.54 1550,-332 1585.71,-346.02 1616.11,-380.04 1632.93,-402.01"/>
<polygon fill="#757575" stroke="#757575" points="1630.32,-404.37 1639.08,-410.32 1635.94,-400.2 1630.32,-404.37"/>
</g>
<!-- users/db.ts -->
<g id="node29" class="node">
<title>users/db.ts</title>
<path fill="none" stroke="#0130a2" d="M1330.33,-932.5C1330.33,-932.5 1262.67,-932.5 1262.67,-932.5 1258.83,-932.5 1255,-928.67 1255,-924.83 1255,-924.83 1255,-917.17 1255,-917.17 1255,-913.33 1258.83,-909.5 1262.67,-909.5 1262.67,-909.5 1330.33,-909.5 1330.33,-909.5 1334.17,-909.5 1338,-913.33 1338,-917.17 1338,-917.17 1338,-924.83 1338,-924.83 1338,-928.67 1334.17,-932.5 1330.33,-932.5"/>
<text text-anchor="middle" x="1296.5" y="-917.3" font-family="Arial" font-size="14.00" fill="#0130a2">users/db.ts</text>
</g>
<!-- validation/index.ts&#45;&gt;users/db.ts -->
<g id="edge99" class="edge">
<title>validation/index.ts&#45;&gt;users/db.ts</title>
<path fill="none" stroke="#757575" d="M1095.01,-491.8C1122.99,-551.7 1249.47,-822.45 1285.74,-900.12"/>
<polygon fill="#757575" stroke="#757575" points="1282.67,-901.79 1290.07,-909.37 1289.01,-898.83 1282.67,-901.79"/>
</g>
<!-- common/response&#45;errors.ts -->
<g id="node32" class="node">
<title>common/response&#45;errors.ts</title>
<path fill="none" stroke="#255c00" d="M1380.33,-510.5C1380.33,-510.5 1212.67,-510.5 1212.67,-510.5 1208.83,-510.5 1205,-506.67 1205,-502.83 1205,-502.83 1205,-495.17 1205,-495.17 1205,-491.33 1208.83,-487.5 1212.67,-487.5 1212.67,-487.5 1380.33,-487.5 1380.33,-487.5 1384.17,-487.5 1388,-491.33 1388,-495.17 1388,-495.17 1388,-502.83 1388,-502.83 1388,-506.67 1384.17,-510.5 1380.33,-510.5"/>
<text text-anchor="middle" x="1296.5" y="-495.3" font-family="Arial" font-size="14.00" fill="#255c00">common/response&#45;errors.ts</text>
</g>
<!-- validation/index.ts&#45;&gt;common/response&#45;errors.ts -->
<g id="edge97" class="edge">
<title>validation/index.ts&#45;&gt;common/response&#45;errors.ts</title>
<path fill="none" stroke="#757575" d="M1150.75,-485.65C1164.53,-486.92 1179.51,-488.3 1194.43,-489.68"/>
<polygon fill="#757575" stroke="#757575" points="1194.46,-493.2 1204.74,-490.63 1195.11,-486.23 1194.46,-493.2"/>
</g>
<!-- validation/core.d.ts -->
<g id="node43" class="node">
<title>validation/core.d.ts</title>
<path fill="none" stroke="#255c00" d="M1353.33,-469.5C1353.33,-469.5 1239.67,-469.5 1239.67,-469.5 1235.83,-469.5 1232,-465.67 1232,-461.83 1232,-461.83 1232,-454.17 1232,-454.17 1232,-450.33 1235.83,-446.5 1239.67,-446.5 1239.67,-446.5 1353.33,-446.5 1353.33,-446.5 1357.17,-446.5 1361,-450.33 1361,-454.17 1361,-454.17 1361,-461.83 1361,-461.83 1361,-465.67 1357.17,-469.5 1353.33,-469.5"/>
<text text-anchor="middle" x="1296.5" y="-454.3" font-family="Arial" font-size="14.00" fill="#255c00">validation/core.d.ts</text>
</g>
<!-- validation/index.ts&#45;&gt;validation/core.d.ts -->
<g id="edge100" class="edge">
<title>validation/index.ts&#45;&gt;validation/core.d.ts</title>
<path fill="none" stroke="#757575" d="M1150.75,-473.46C1173.06,-471.08 1198.53,-468.36 1221.81,-465.87"/>
<polygon fill="#757575" stroke="#757575" points="1222.41,-469.33 1231.99,-464.78 1221.67,-462.36 1222.41,-469.33"/>
</g>
<!-- work/services.ts&#45;&gt;logger.ts -->
<g id="edge112" class="edge">
<title>work/services.ts&#45;&gt;logger.ts</title>
<path fill="none" stroke="#757575" d="M1303.5,-1126.54C1318.94,-1154.8 1363.12,-1227.09 1424,-1254 1540.57,-1305.53 1594,-1285.81 1710,-1233 1730.92,-1223.47 1750.11,-1205.41 1762.91,-1191.4"/>
<polygon fill="#757575" stroke="#757575" points="1765.69,-1193.53 1769.67,-1183.71 1760.44,-1188.91 1765.69,-1193.53"/>
</g>
<!-- work/services.ts&#45;&gt;api/types.ts -->
<g id="edge109" class="edge">
<title>work/services.ts&#45;&gt;api/types.ts</title>
<path fill="none" stroke="#757575" d="M1353.2,-1123.02C1407.77,-1127.9 1491.1,-1127.16 1550,-1089 1603.25,-1054.5 1630.66,-979.79 1641.42,-942.74"/>
<polygon fill="#757575" stroke="#757575" points="1644.84,-943.51 1644.13,-932.94 1638.09,-941.65 1644.84,-943.51"/>
</g>
<!-- work/services.ts&#45;&gt;common/result.ts -->
<g id="edge111" class="edge">
<title>work/services.ts&#45;&gt;common/result.ts</title>
<path fill="none" stroke="#757575" d="M1312.5,-1103.39C1333.47,-1086.19 1370.91,-1051.78 1388,-1013 1418.91,-942.87 1376.43,-730.09 1424,-670 1460.82,-623.5 1505.86,-665.62 1550,-626 1606.53,-575.26 1633.05,-484.52 1642.6,-443.36"/>
<polygon fill="#757575" stroke="#757575" points="1646.03,-444.09 1644.77,-433.57 1639.19,-442.58 1646.03,-444.09"/>
</g>
<!-- common/files.ts -->
<g id="node31" class="node">
<title>common/files.ts</title>
<path fill="none" stroke="#0130a2" d="M1535.33,-1244.5C1535.33,-1244.5 1438.67,-1244.5 1438.67,-1244.5 1434.83,-1244.5 1431,-1240.67 1431,-1236.83 1431,-1236.83 1431,-1229.17 1431,-1229.17 1431,-1225.33 1434.83,-1221.5 1438.67,-1221.5 1438.67,-1221.5 1535.33,-1221.5 1535.33,-1221.5 1539.17,-1221.5 1543,-1225.33 1543,-1229.17 1543,-1229.17 1543,-1236.83 1543,-1236.83 1543,-1240.67 1539.17,-1244.5 1535.33,-1244.5"/>
<text text-anchor="middle" x="1487" y="-1229.3" font-family="Arial" font-size="14.00" fill="#0130a2">common/files.ts</text>
</g>
<!-- work/services.ts&#45;&gt;common/files.ts -->
<g id="edge110" class="edge">
<title>work/services.ts&#45;&gt;common/files.ts</title>
<path fill="none" stroke="#757575" d="M1315.92,-1126.53C1349.28,-1147.41 1419.86,-1191.59 1458.79,-1215.97"/>
<polygon fill="#757575" stroke="#757575" points="1457.17,-1219.08 1467.51,-1221.42 1460.89,-1213.15 1457.17,-1219.08"/>
</g>
<!-- work/db.ts -->
<g id="node40" class="node">
<title>work/db.ts</title>
<path fill="none" stroke="#0130a2" d="M1518.33,-701.5C1518.33,-701.5 1455.67,-701.5 1455.67,-701.5 1451.83,-701.5 1448,-697.67 1448,-693.83 1448,-693.83 1448,-686.17 1448,-686.17 1448,-682.33 1451.83,-678.5 1455.67,-678.5 1455.67,-678.5 1518.33,-678.5 1518.33,-678.5 1522.17,-678.5 1526,-682.33 1526,-686.17 1526,-686.17 1526,-693.83 1526,-693.83 1526,-697.67 1522.17,-701.5 1518.33,-701.5"/>
<text text-anchor="middle" x="1487" y="-686.3" font-family="Arial" font-size="14.00" fill="#0130a2">work/db.ts</text>
</g>
<!-- work/services.ts&#45;&gt;work/db.ts -->
<g id="edge113" class="edge">
<title>work/services.ts&#45;&gt;work/db.ts</title>
<path fill="none" stroke="#757575" d="M1312.42,-1103.36C1333.31,-1086.12 1370.64,-1051.66 1388,-1013 1443.39,-889.7 1338.85,-815.98 1424,-711 1427.85,-706.25 1432.82,-702.57 1438.28,-699.72"/>
<polygon fill="#757575" stroke="#757575" points="1439.96,-702.8 1447.79,-695.66 1437.22,-696.36 1439.96,-702.8"/>
</g>
<!-- classes/avatars.ts -->
<g id="node25" class="node">
<title>classes/avatars.ts</title>
<path fill="none" stroke="#0130a2" d="M1702.33,-1400.5C1702.33,-1400.5 1593.67,-1400.5 1593.67,-1400.5 1589.83,-1400.5 1586,-1396.67 1586,-1392.83 1586,-1392.83 1586,-1385.17 1586,-1385.17 1586,-1381.33 1589.83,-1377.5 1593.67,-1377.5 1593.67,-1377.5 1702.33,-1377.5 1702.33,-1377.5 1706.17,-1377.5 1710,-1381.33 1710,-1385.17 1710,-1385.17 1710,-1392.83 1710,-1392.83 1710,-1396.67 1706.17,-1400.5 1702.33,-1400.5"/>
<text text-anchor="middle" x="1648" y="-1385.3" font-family="Arial" font-size="14.00" fill="#0130a2">classes/avatars.ts</text>
</g>
<!-- classes/avatars.ts&#45;&gt;logger.ts -->
<g id="edge31" class="edge">
<title>classes/avatars.ts&#45;&gt;logger.ts</title>
<path fill="none" stroke="#757575" d="M1689.1,-1377.5C1696.79,-1373.85 1704.23,-1369.11 1710,-1363 1756.07,-1314.26 1771.77,-1232.5 1776.8,-1193.7"/>
<polygon fill="#757575" stroke="#757575" points="1780.3,-1193.88 1778,-1183.54 1773.35,-1193.06 1780.3,-1193.88"/>
</g>
<!-- classes/controllers.ts&#45;&gt;classes/services.ts -->
<g id="edge32" class="edge">
<title>classes/controllers.ts&#45;&gt;classes/services.ts</title>
<path fill="none" stroke="#757575" d="M762.89,-1014.57C791.73,-1026.74 837.28,-1045.98 869.23,-1059.47"/>
<polygon fill="#757575" stroke="#757575" points="868.1,-1062.79 878.67,-1063.46 870.82,-1056.35 868.1,-1062.79"/>
</g>
<!-- classes/services.ts&#45;&gt;logger.ts -->
<g id="edge45" class="edge">
<title>classes/services.ts&#45;&gt;logger.ts</title>
<path fill="none" stroke="#757575" d="M910.19,-1086.74C917.65,-1123.8 945.12,-1240.08 1008,-1311 1103.89,-1419.15 1150.96,-1463 1295.5,-1463 1295.5,-1463 1295.5,-1463 1488,-1463 1589.44,-1463 1636.58,-1479.99 1710,-1410 1771.71,-1351.18 1779.23,-1240.82 1779.47,-1193.95"/>
<polygon fill="#757575" stroke="#757575" points="1782.97,-1193.69 1779.41,-1183.72 1775.97,-1193.74 1782.97,-1193.69"/>
</g>
<!-- classes/services.ts&#45;&gt;api/types.ts -->
<g id="edge41" class="edge">
<title>classes/services.ts&#45;&gt;api/types.ts</title>
<path fill="none" stroke="#757575" d="M971.54,-1066.08C1087.56,-1049.12 1341.04,-1008.94 1550,-954 1568.98,-949.01 1589.62,-942.19 1606.96,-936.05"/>
<polygon fill="#757575" stroke="#757575" points="1608.53,-939.2 1616.76,-932.52 1606.16,-932.61 1608.53,-939.2"/>
</g>
<!-- classes/services.ts&#45;&gt;common/result.ts -->
<g id="edge44" class="edge">
<title>classes/services.ts&#45;&gt;common/result.ts</title>
<path fill="none" stroke="#757575" d="M909.6,-1063.42C915.79,-1022.1 941.18,-879.29 1008,-785 1072.58,-693.88 1104.32,-677.35 1205,-629 1280.22,-592.88 1326.6,-643.51 1388,-587 1426.78,-551.3 1385.28,-509.76 1424,-474 1429.92,-468.54 1517.73,-449.15 1581.37,-435.66"/>
<polygon fill="#757575" stroke="#757575" points="1582.3,-439.04 1591.36,-433.54 1580.85,-432.19 1582.3,-439.04"/>
</g>
<!-- classes/services.ts&#45;&gt;work/services.ts -->
<g id="edge47" class="edge">
<title>classes/services.ts&#45;&gt;work/services.ts</title>
<path fill="none" stroke="#757575" d="M971.69,-1084.39C983.74,-1086.03 996.24,-1087.65 1008,-1089 1083.85,-1097.73 1171.25,-1105.28 1229.58,-1109.96"/>
<polygon fill="#757575" stroke="#757575" points="1229.52,-1113.47 1239.76,-1110.77 1230.07,-1106.49 1229.52,-1113.47"/>
</g>
<!-- classes/services.ts&#45;&gt;classes/avatars.ts -->
<g id="edge42" class="edge">
<title>classes/services.ts&#45;&gt;classes/avatars.ts</title>
<path fill="none" stroke="#757575" d="M914.51,-1086.8C942.03,-1135.29 1054.25,-1320.03 1205,-1392 1334.56,-1453.86 1510.83,-1423.7 1596.33,-1402.98"/>
<polygon fill="#757575" stroke="#757575" points="1597.19,-1406.37 1606.05,-1400.57 1595.5,-1399.58 1597.19,-1406.37"/>
</g>
<!-- classes/services.ts&#45;&gt;classes/db.ts -->
<g id="edge43" class="edge">
<title>classes/services.ts&#45;&gt;classes/db.ts</title>
<path fill="none" stroke="#757575" d="M919.23,-1063.24C937.25,-1044.6 974.06,-1007.45 1008,-979 1025.34,-964.46 1046.03,-949.44 1061.95,-938.33"/>
<polygon fill="#757575" stroke="#757575" points="1064.02,-941.15 1070.25,-932.58 1060.03,-935.39 1064.02,-941.15"/>
</g>
<!-- users/services.ts -->
<g id="node30" class="node">
<title>users/services.ts</title>
<path fill="none" stroke="#0130a2" d="M1139.33,-1164.5C1139.33,-1164.5 1037.67,-1164.5 1037.67,-1164.5 1033.83,-1164.5 1030,-1160.67 1030,-1156.83 1030,-1156.83 1030,-1149.17 1030,-1149.17 1030,-1145.33 1033.83,-1141.5 1037.67,-1141.5 1037.67,-1141.5 1139.33,-1141.5 1139.33,-1141.5 1143.17,-1141.5 1147,-1145.33 1147,-1149.17 1147,-1149.17 1147,-1156.83 1147,-1156.83 1147,-1160.67 1143.17,-1164.5 1139.33,-1164.5"/>
<text text-anchor="middle" x="1088.5" y="-1149.3" font-family="Arial" font-size="14.00" fill="#0130a2">users/services.ts</text>
</g>
<!-- classes/services.ts&#45;&gt;users/services.ts -->
<g id="edge46" class="edge">
<title>classes/services.ts&#45;&gt;users/services.ts</title>
<path fill="none" stroke="#757575" d="M927.84,-1086.55C947.69,-1097.81 979.32,-1114.95 1008,-1127 1017.64,-1131.05 1028.14,-1134.88 1038.26,-1138.29"/>
<polygon fill="#757575" stroke="#757575" points="1037.22,-1141.63 1047.81,-1141.43 1039.4,-1134.98 1037.22,-1141.63"/>
</g>
<!-- classes/db.ts&#45;&gt;logger.ts -->
<g id="edge36" class="edge">
<title>classes/db.ts&#45;&gt;logger.ts</title>
<path fill="none" stroke="#757575" d="M1121.37,-932.6C1233.67,-973.48 1611,-1110.84 1737.36,-1156.84"/>
<polygon fill="#757575" stroke="#757575" points="1736.47,-1160.24 1747.07,-1160.38 1738.87,-1153.67 1736.47,-1160.24"/>
</g>
<!-- classes/db.ts&#45;&gt;api/types.ts -->
<g id="edge33" class="edge">
<title>classes/db.ts&#45;&gt;api/types.ts</title>
<path fill="none" stroke="#757575" d="M1136.16,-931.46C1157.09,-935.64 1182.16,-939.94 1205,-942 1357.75,-955.77 1397.3,-949.28 1550,-935 1564.59,-933.64 1580.33,-931.61 1594.81,-929.51"/>
<polygon fill="#757575" stroke="#757575" points="1595.72,-932.92 1605.09,-927.98 1594.69,-925.99 1595.72,-932.92"/>
</g>
<!-- classes/db.ts&#45;&gt;common/result.ts -->
<g id="edge34" class="edge">
<title>classes/db.ts&#45;&gt;common/result.ts</title>
<path fill="none" stroke="#757575" d="M1108.31,-909.43C1167.76,-872.5 1349.98,-756.51 1388,-699 1425.57,-642.17 1377.19,-599.5 1424,-550 1464.19,-507.5 1499.25,-541.09 1550,-512 1582.58,-493.33 1613.11,-461.8 1630.92,-441.45"/>
<polygon fill="#757575" stroke="#757575" points="1633.67,-443.61 1637.52,-433.74 1628.36,-439.06 1633.67,-443.61"/>
</g>
<!-- classes/db.ts&#45;&gt;db.ts -->
<g id="edge35" class="edge">
<title>classes/db.ts&#45;&gt;db.ts</title>
<path fill="none" stroke="#757575" d="M1136.24,-912.49C1214.59,-897.99 1366.06,-868.94 1388,-857 1407.88,-846.19 1404.18,-831.91 1424,-821 1484.15,-787.91 1564.86,-776.71 1610.86,-772.92"/>
<polygon fill="#757575" stroke="#757575" points="1611.24,-776.41 1620.95,-772.17 1610.72,-769.42 1611.24,-776.41"/>
</g>
<!-- classes/db.ts&#45;&gt;users/db.ts -->
<g id="edge37" class="edge">
<title>classes/db.ts&#45;&gt;users/db.ts</title>
<path fill="none" stroke="#757575" d="M1136.24,-921C1168.49,-921 1211.34,-921 1244.47,-921"/>
<polygon fill="#757575" stroke="#757575" points="1244.86,-924.5 1254.86,-921 1244.86,-917.5 1244.86,-924.5"/>
</g>
<!-- users/db.ts&#45;&gt;logger.ts -->
<g id="edge82" class="edge">
<title>users/db.ts&#45;&gt;logger.ts</title>
<path fill="none" stroke="#757575" d="M1338.17,-926.52C1430.58,-939.76 1652.74,-975.76 1710,-1023 1750.11,-1056.09 1768.09,-1117.66 1775.11,-1150.33"/>
<polygon fill="#757575" stroke="#757575" points="1771.7,-1151.1 1777.09,-1160.22 1778.56,-1149.73 1771.7,-1151.1"/>
</g>
<!-- users/db.ts&#45;&gt;api/types.ts -->
<g id="edge79" class="edge">
<title>users/db.ts&#45;&gt;api/types.ts</title>
<path fill="none" stroke="#757575" d="M1338.28,-921C1401.99,-921 1525.09,-921 1595.06,-921"/>
<polygon fill="#757575" stroke="#757575" points="1595.4,-924.5 1605.4,-921 1595.4,-917.5 1595.4,-924.5"/>
</g>
<!-- users/db.ts&#45;&gt;common/result.ts -->
<g id="edge80" class="edge">
<title>users/db.ts&#45;&gt;common/result.ts</title>
<path fill="none" stroke="#757575" d="M1324.33,-909.43C1345.26,-898.92 1373.19,-881.33 1388,-857 1448.42,-757.72 1351.61,-688.92 1424,-598 1461.33,-551.12 1502.05,-585.94 1550,-550 1589.52,-520.38 1620.79,-470.48 1636.3,-442.53"/>
<polygon fill="#757575" stroke="#757575" points="1639.44,-444.1 1641.12,-433.64 1633.28,-440.76 1639.44,-444.1"/>
</g>
<!-- users/db.ts&#45;&gt;db.ts -->
<g id="edge81" class="edge">
<title>users/db.ts&#45;&gt;db.ts</title>
<path fill="none" stroke="#757575" d="M1338.07,-910.9C1353.85,-906.57 1371.95,-901.1 1388,-895 1473.63,-862.46 1569.77,-812.75 1617.22,-787.28"/>
<polygon fill="#757575" stroke="#757575" points="1618.9,-790.35 1626.04,-782.52 1615.58,-784.19 1618.9,-790.35"/>
</g>
<!-- mock.ts -->
<g id="node33" class="node">
<title>mock.ts</title>
<path fill="none" stroke="#0130a2" d="M1511.33,-1164.5C1511.33,-1164.5 1462.67,-1164.5 1462.67,-1164.5 1458.83,-1164.5 1455,-1160.67 1455,-1156.83 1455,-1156.83 1455,-1149.17 1455,-1149.17 1455,-1145.33 1458.83,-1141.5 1462.67,-1141.5 1462.67,-1141.5 1511.33,-1141.5 1511.33,-1141.5 1515.17,-1141.5 1519,-1145.33 1519,-1149.17 1519,-1149.17 1519,-1156.83 1519,-1156.83 1519,-1160.67 1515.17,-1164.5 1511.33,-1164.5"/>
<text text-anchor="middle" x="1487" y="-1149.3" font-family="Arial" font-size="14.00" fill="#0130a2">mock.ts</text>
</g>
<!-- users/db.ts&#45;&gt;mock.ts -->
<g id="edge83" class="edge">
<title>users/db.ts&#45;&gt;mock.ts</title>
<path fill="none" stroke="#757575" d="M1306.85,-932.5C1337.06,-969.69 1432.31,-1086.92 1470.21,-1133.57"/>
<polygon fill="#757575" stroke="#757575" points="1467.57,-1135.87 1476.6,-1141.43 1473.01,-1131.46 1467.57,-1135.87"/>
</g>
<!-- users/services.ts&#45;&gt;logger.ts -->
<g id="edge90" class="edge">
<title>users/services.ts&#45;&gt;logger.ts</title>
<path fill="none" stroke="#757575" d="M1100.73,-1164.7C1120.08,-1184.09 1161.79,-1222.66 1205,-1242 1295.39,-1282.45 1325.4,-1273.85 1424,-1283 1550.72,-1294.76 1599.55,-1332.22 1710,-1269 1739.84,-1251.92 1760.04,-1216.07 1770.52,-1193.06"/>
<polygon fill="#757575" stroke="#757575" points="1773.77,-1194.36 1774.54,-1183.79 1767.35,-1191.58 1773.77,-1194.36"/>
</g>
<!-- users/services.ts&#45;&gt;api/types.ts -->
<g id="edge87" class="edge">
<title>users/services.ts&#45;&gt;api/types.ts</title>
<path fill="none" stroke="#757575" d="M1147.03,-1163.99C1255.75,-1183.42 1486.2,-1217.87 1550,-1174 1628.38,-1120.11 1643.46,-993.51 1646.33,-942.68"/>
<polygon fill="#757575" stroke="#757575" points="1649.84,-942.66 1646.8,-932.51 1642.85,-942.34 1649.84,-942.66"/>
</g>
<!-- users/services.ts&#45;&gt;common/result.ts -->
<g id="edge89" class="edge">
<title>users/services.ts&#45;&gt;common/result.ts</title>
<path fill="none" stroke="#757575" d="M1110.32,-1141.32C1172.37,-1106.1 1353.82,-999.75 1388,-942 1460,-820.36 1333.41,-734.51 1424,-626 1461.49,-581.1 1504.06,-624.2 1550,-588 1598.94,-549.43 1628.09,-478.83 1640.28,-443.43"/>
<polygon fill="#757575" stroke="#757575" points="1643.7,-444.25 1643.53,-433.65 1637.06,-442.04 1643.7,-444.25"/>
</g>
<!-- users/services.ts&#45;&gt;work/services.ts -->
<g id="edge93" class="edge">
<title>users/services.ts&#45;&gt;work/services.ts</title>
<path fill="none" stroke="#757575" d="M1147.16,-1142.36C1172.91,-1137.61 1203.39,-1131.99 1230,-1127.08"/>
<polygon fill="#757575" stroke="#757575" points="1230.79,-1130.5 1239.99,-1125.24 1229.52,-1123.61 1230.79,-1130.5"/>
</g>
<!-- users/services.ts&#45;&gt;classes/avatars.ts -->
<g id="edge88" class="edge">
<title>users/services.ts&#45;&gt;classes/avatars.ts</title>
<path fill="none" stroke="#757575" d="M1091.78,-1164.52C1099.73,-1201.19 1129.89,-1315.56 1205,-1363 1264.73,-1400.73 1466.58,-1397.68 1575.65,-1392.96"/>
<polygon fill="#757575" stroke="#757575" points="1576.07,-1396.45 1585.9,-1392.5 1575.76,-1389.45 1576.07,-1396.45"/>
</g>
<!-- users/services.ts&#45;&gt;users/db.ts -->
<g id="edge92" class="edge">
<title>users/services.ts&#45;&gt;users/db.ts</title>
<path fill="none" stroke="#757575" d="M1095.58,-1141.38C1111.05,-1112.56 1154.28,-1036.39 1205,-985 1223.24,-966.52 1247.39,-949.74 1266.16,-938.01"/>
<polygon fill="#757575" stroke="#757575" points="1268.18,-940.87 1274.89,-932.66 1264.53,-934.9 1268.18,-940.87"/>
</g>
<!-- users/avatars.ts -->
<g id="node34" class="node">
<title>users/avatars.ts</title>
<path fill="none" stroke="#0130a2" d="M1696.33,-1223.5C1696.33,-1223.5 1599.67,-1223.5 1599.67,-1223.5 1595.83,-1223.5 1592,-1219.67 1592,-1215.83 1592,-1215.83 1592,-1208.17 1592,-1208.17 1592,-1204.33 1595.83,-1200.5 1599.67,-1200.5 1599.67,-1200.5 1696.33,-1200.5 1696.33,-1200.5 1700.17,-1200.5 1704,-1204.33 1704,-1208.17 1704,-1208.17 1704,-1215.83 1704,-1215.83 1704,-1219.67 1700.17,-1223.5 1696.33,-1223.5"/>
<text text-anchor="middle" x="1648" y="-1208.3" font-family="Arial" font-size="14.00" fill="#0130a2">users/avatars.ts</text>
</g>
<!-- users/services.ts&#45;&gt;users/avatars.ts -->
<g id="edge91" class="edge">
<title>users/services.ts&#45;&gt;users/avatars.ts</title>
<path fill="none" stroke="#757575" d="M1110.61,-1164.65C1133.33,-1176.75 1170.8,-1195.5 1205,-1207 1299.36,-1238.73 1325.01,-1243.5 1424,-1254 1479.69,-1259.91 1495.16,-1265.36 1550,-1254 1573.98,-1249.03 1599.32,-1237.83 1618.08,-1228.24"/>
<polygon fill="#757575" stroke="#757575" points="1619.77,-1231.31 1626.99,-1223.56 1616.51,-1225.11 1619.77,-1231.31"/>
</g>
<!-- common/files.ts&#45;&gt;logger.ts -->
<g id="edge52" class="edge">
<title>common/files.ts&#45;&gt;logger.ts</title>
<path fill="none" stroke="#757575" d="M1515.65,-1221.4C1544.47,-1209.32 1585.54,-1192.12 1586,-1192 1636.34,-1179.16 1696.07,-1174.53 1735.61,-1172.88"/>
<polygon fill="#757575" stroke="#757575" points="1735.84,-1176.38 1745.7,-1172.51 1735.58,-1169.38 1735.84,-1176.38"/>
</g>
<!-- mock.ts&#45;&gt;db.ts -->
<g id="edge57" class="edge">
<title>mock.ts&#45;&gt;db.ts</title>
<path fill="none" stroke="#757575" d="M1492.22,-1141.33C1505.32,-1105.26 1546.81,-992.47 1586,-901 1602.73,-861.96 1624.21,-817.3 1636.71,-791.79"/>
<polygon fill="#757575" stroke="#757575" points="1639.9,-793.23 1641.18,-782.71 1633.62,-790.14 1639.9,-793.23"/>
</g>
<!-- mock.ts&#45;&gt;classes/avatars.ts -->
<g id="edge56" class="edge">
<title>mock.ts&#45;&gt;classes/avatars.ts</title>
<path fill="none" stroke="#757575" d="M1502.24,-1164.6C1515.63,-1175.98 1535.72,-1194.32 1550,-1213 1589.18,-1264.24 1622.36,-1333.26 1637.77,-1367.66"/>
<polygon fill="#757575" stroke="#757575" points="1634.73,-1369.43 1641.97,-1377.16 1641.13,-1366.6 1634.73,-1369.43"/>
</g>
<!-- mock.ts&#45;&gt;users/avatars.ts -->
<g id="edge58" class="edge">
<title>mock.ts&#45;&gt;users/avatars.ts</title>
<path fill="none" stroke="#757575" d="M1519.03,-1164.52C1543.91,-1173.74 1579.01,-1186.77 1606.16,-1196.85"/>
<polygon fill="#757575" stroke="#757575" points="1605.18,-1200.21 1615.77,-1200.41 1607.62,-1193.65 1605.18,-1200.21"/>
</g>
<!-- users/avatars.ts&#45;&gt;logger.ts -->
<g id="edge77" class="edge">
<title>users/avatars.ts&#45;&gt;logger.ts</title>
<path fill="none" stroke="#757575" d="M1686.6,-1200.43C1702.13,-1195.65 1720.2,-1190.09 1736.23,-1185.16"/>
<polygon fill="#757575" stroke="#757575" points="1737.38,-1188.47 1745.9,-1182.18 1735.32,-1181.78 1737.38,-1188.47"/>
</g>
<!-- reviews/services.ts -->
<g id="node36" class="node">
<title>reviews/services.ts</title>
<path fill="none" stroke="#0130a2" d="M964.33,-664.5C964.33,-664.5 849.67,-664.5 849.67,-664.5 845.83,-664.5 842,-660.67 842,-656.83 842,-656.83 842,-649.17 842,-649.17 842,-645.33 845.83,-641.5 849.67,-641.5 849.67,-641.5 964.33,-641.5 964.33,-641.5 968.17,-641.5 972,-645.33 972,-649.17 972,-649.17 972,-656.83 972,-656.83 972,-660.67 968.17,-664.5 964.33,-664.5"/>
<text text-anchor="middle" x="907" y="-649.3" font-family="Arial" font-size="14.00" fill="#0130a2">reviews/services.ts</text>
</g>
<!-- reviews/controllers.ts&#45;&gt;reviews/services.ts -->
<g id="edge59" class="edge">
<title>reviews/controllers.ts&#45;&gt;reviews/services.ts</title>
<path fill="none" stroke="#757575" d="M743.96,-432.5C771.23,-469.61 857.08,-586.43 891.51,-633.28"/>
<polygon fill="#757575" stroke="#757575" points="888.75,-635.44 897.49,-641.43 894.39,-631.29 888.75,-635.44"/>
</g>
<!-- reviews/services.ts&#45;&gt;api/types.ts -->
<g id="edge68" class="edge">
<title>reviews/services.ts&#45;&gt;api/types.ts</title>
<path fill="none" stroke="#757575" d="M948.98,-664.59C1051.88,-694.18 1328.77,-776.89 1550,-871 1573.37,-880.94 1598.87,-894.18 1617.85,-904.54"/>
<polygon fill="#757575" stroke="#757575" points="1616.16,-907.61 1626.61,-909.37 1619.54,-901.48 1616.16,-907.61"/>
</g>
<!-- reviews/services.ts&#45;&gt;common/result.ts -->
<g id="edge69" class="edge">
<title>reviews/services.ts&#45;&gt;common/result.ts</title>
<path fill="none" stroke="#757575" d="M940.81,-641.44C951.56,-636.58 963.04,-630.13 972,-622 994.75,-601.36 982.1,-579.52 1008,-563 1151.3,-471.59 1260.66,-632.58 1388,-520 1439.36,-474.59 1370.16,-412.45 1424,-370 1483.73,-322.91 1578.73,-375.25 1622.93,-404.7"/>
<polygon fill="#757575" stroke="#757575" points="1621.08,-407.68 1631.31,-410.42 1625.02,-401.89 1621.08,-407.68"/>
</g>
<!-- reviews/services.ts&#45;&gt;users/services.ts -->
<g id="edge71" class="edge">
<title>reviews/services.ts&#45;&gt;users/services.ts</title>
<path fill="none" stroke="#757575" d="M961.23,-664.66C965.3,-667.19 968.99,-670.27 972,-674 1020.53,-734.17 983.59,-946.65 1008,-1020 1022.52,-1063.65 1053.12,-1108.33 1071.83,-1133.18"/>
<polygon fill="#757575" stroke="#757575" points="1069.27,-1135.6 1078.14,-1141.41 1074.83,-1131.34 1069.27,-1135.6"/>
</g>
<!-- reviews/db.ts -->
<g id="node37" class="node">
<title>reviews/db.ts</title>
<path fill="none" stroke="#0130a2" d="M1128.33,-259.5C1128.33,-259.5 1048.67,-259.5 1048.67,-259.5 1044.83,-259.5 1041,-255.67 1041,-251.83 1041,-251.83 1041,-244.17 1041,-244.17 1041,-240.33 1044.83,-236.5 1048.67,-236.5 1048.67,-236.5 1128.33,-236.5 1128.33,-236.5 1132.17,-236.5 1136,-240.33 1136,-244.17 1136,-244.17 1136,-251.83 1136,-251.83 1136,-255.67 1132.17,-259.5 1128.33,-259.5"/>
<text text-anchor="middle" x="1088.5" y="-244.3" font-family="Arial" font-size="14.00" fill="#0130a2">reviews/db.ts</text>
</g>
<!-- reviews/services.ts&#45;&gt;reviews/db.ts -->
<g id="edge70" class="edge">
<title>reviews/services.ts&#45;&gt;reviews/db.ts</title>
<path fill="none" stroke="#757575" d="M913.18,-641.32C938.1,-585.08 1045.84,-342 1078.24,-268.88"/>
<polygon fill="#757575" stroke="#757575" points="1081.45,-270.29 1082.3,-259.73 1075.05,-267.46 1081.45,-270.29"/>
</g>
<!-- reviews/db.ts&#45;&gt;logger.ts -->
<g id="edge62" class="edge">
<title>reviews/db.ts&#45;&gt;logger.ts</title>
<path fill="none" stroke="#757575" d="M1136.34,-236.8C1222.77,-218.64 1411.19,-190.84 1550,-255 1637.66,-295.52 1667.26,-315.41 1710,-402 1777.49,-538.72 1779.53,-1039.3 1779.14,-1150.16"/>
<polygon fill="#757575" stroke="#757575" points="1775.64,-1150.42 1779.09,-1160.43 1782.64,-1150.45 1775.64,-1150.42"/>
</g>
<!-- reviews/db.ts&#45;&gt;common/result.ts -->
<g id="edge60" class="edge">
<title>reviews/db.ts&#45;&gt;common/result.ts</title>
<path fill="none" stroke="#757575" d="M1136.05,-243.55C1195.22,-239.05 1300.24,-234.93 1388,-252 1463.83,-266.75 1486.36,-271.21 1550,-315 1585.17,-339.2 1616.46,-378.53 1633.48,-402.17"/>
<polygon fill="#757575" stroke="#757575" points="1630.66,-404.24 1639.28,-410.4 1636.38,-400.21 1630.66,-404.24"/>
</g>
<!-- reviews/db.ts&#45;&gt;db.ts -->
<g id="edge61" class="edge">
<title>reviews/db.ts&#45;&gt;db.ts</title>
<path fill="none" stroke="#757575" d="M1136.2,-249.73C1199.35,-254.29 1312.72,-270.56 1388,-328 1540.25,-444.17 1619.43,-677.61 1640.9,-749.46"/>
<polygon fill="#757575" stroke="#757575" points="1637.59,-750.59 1643.76,-759.21 1644.31,-748.63 1637.59,-750.59"/>
</g>
<!-- reviews/db.ts&#45;&gt;users/db.ts -->
<g id="edge63" class="edge">
<title>reviews/db.ts&#45;&gt;users/db.ts</title>
<path fill="none" stroke="#757575" d="M1094.37,-259.82C1107.42,-291.76 1143.92,-382.59 1169,-460 1223.16,-627.18 1274.27,-833.2 1290.32,-899.43"/>
<polygon fill="#757575" stroke="#757575" points="1287,-900.58 1292.75,-909.48 1293.81,-898.94 1287,-900.58"/>
</g>
<!-- reviews/validation.ts&#45;&gt;common/result.ts -->
<g id="edge72" class="edge">
<title>reviews/validation.ts&#45;&gt;common/result.ts</title>
<path fill="none" stroke="#757575" d="M749.19,-226.35C794.29,-189.2 943.54,-76 1087.5,-76 1087.5,-76 1087.5,-76 1297.5,-76 1410.27,-76 1462.88,-29.39 1550,-101 1597.62,-140.14 1632.83,-334.15 1643.58,-400.05"/>
<polygon fill="#757575" stroke="#757575" points="1640.16,-400.83 1645.19,-410.15 1647.07,-399.72 1640.16,-400.83"/>
</g>
<!-- reviews/validation.ts&#45;&gt;validation/index.ts -->
<g id="edge74" class="edge">
<title>reviews/validation.ts&#45;&gt;validation/index.ts</title>
<path fill="none" stroke="#757575" d="M757.14,-249.63C778.38,-260.8 811.89,-277.74 842,-290 898.36,-312.96 928.34,-290.6 972,-333 1005.59,-365.62 978.26,-395.84 1008,-432 1018.92,-445.28 1034.54,-455.83 1049.04,-463.61"/>
<polygon fill="#757575" stroke="#757575" points="1047.85,-466.93 1058.36,-468.33 1051.02,-460.69 1047.85,-466.93"/>
</g>
<!-- reviews/validation.ts&#45;&gt;reviews/db.ts -->
<g id="edge73" class="edge">
<title>reviews/validation.ts&#45;&gt;reviews/db.ts</title>
<path fill="none" stroke="#757575" d="M778.69,-226.49C797.92,-221.93 820.93,-217.25 842,-215 899.45,-208.87 914.78,-206.99 972,-215 997.25,-218.54 1024.73,-226.22 1046.55,-233.29"/>
<polygon fill="#757575" stroke="#757575" points="1045.55,-236.65 1056.15,-236.47 1047.76,-230 1045.55,-236.65"/>
</g>
<!-- reviews/validation.ts&#45;&gt;work/validation.ts -->
<g id="edge76" class="edge">
<title>reviews/validation.ts&#45;&gt;work/validation.ts</title>
<path fill="none" stroke="#757575" d="M798.99,-249.54C811.39,-251.8 824.45,-254.17 837.02,-256.46"/>
<polygon fill="#757575" stroke="#757575" points="836.51,-259.92 846.97,-258.27 837.76,-253.04 836.51,-259.92"/>
</g>
<!-- reviews/validation.ts&#45;&gt;work/db.ts -->
<g id="edge75" class="edge">
<title>reviews/validation.ts&#45;&gt;work/db.ts</title>
<path fill="none" stroke="#757575" d="M803.07,-233.04C851.1,-231.46 916.65,-233.27 972,-249 989.61,-254 990.93,-262.41 1008,-269 1048.45,-284.62 1356.48,-328.22 1388,-358 1399.77,-369.11 1461.13,-596.65 1480.29,-668.48"/>
<polygon fill="#757575" stroke="#757575" points="1476.93,-669.49 1482.89,-678.26 1483.7,-667.69 1476.93,-669.49"/>
</g>
<!-- work/validation.ts&#45;&gt;assignments/db.ts -->
<g id="edge114" class="edge">
<title>work/validation.ts&#45;&gt;assignments/db.ts</title>
<path fill="none" stroke="#757575" d="M963.93,-280.6C966.79,-282.18 969.5,-283.97 972,-286 999.74,-308.59 979.68,-336.14 1008,-358 1025.08,-371.18 1373.34,-422.17 1388,-438 1471.17,-527.78 1345.63,-617 1424,-711 1424.6,-711.72 1425.23,-712.42 1425.88,-713.09"/>
<polygon fill="#757575" stroke="#757575" points="1423.7,-715.82 1433.68,-719.37 1428.09,-710.37 1423.7,-715.82"/>
</g>
<!-- work/validation.ts&#45;&gt;common/result.ts -->
<g id="edge115" class="edge">
<title>work/validation.ts&#45;&gt;common/result.ts</title>
<path fill="none" stroke="#757575" d="M916.71,-257.25C932.48,-236.91 967.85,-195.4 1008,-175 1115.63,-120.32 1451.8,-67.77 1550,-138 1637.03,-200.24 1646.85,-345.37 1647.33,-400.36"/>
<polygon fill="#757575" stroke="#757575" points="1643.83,-400.38 1647.32,-410.38 1650.83,-400.39 1643.83,-400.38"/>
</g>
<!-- work/validation.ts&#45;&gt;validation/index.ts -->
<g id="edge116" class="edge">
<title>work/validation.ts&#45;&gt;validation/index.ts</title>
<path fill="none" stroke="#757575" d="M952.14,-280.56C959.58,-284.17 966.62,-288.87 972,-295 1013.56,-342.29 970.29,-381.59 1008,-432 1018.14,-445.56 1033.34,-456.07 1047.74,-463.75"/>
<polygon fill="#757575" stroke="#757575" points="1046.51,-467.05 1057.02,-468.39 1049.64,-460.79 1046.51,-467.05"/>
</g>
<!-- work/validation.ts&#45;&gt;work/db.ts -->
<g id="edge117" class="edge">
<title>work/validation.ts&#45;&gt;work/db.ts</title>
<path fill="none" stroke="#757575" d="M961.8,-280.59C965.36,-282.17 968.8,-283.96 972,-286 993.03,-299.38 986.55,-316.31 1008,-329 1082.08,-372.83 1323.16,-347.39 1388,-404 1468.65,-474.42 1483,-614.21 1485.5,-668.1"/>
<polygon fill="#757575" stroke="#757575" points="1482,-668.38 1485.87,-678.24 1489,-668.12 1482,-668.38"/>
</g>
<!-- work/db.ts&#45;&gt;logger.ts -->
<g id="edge105" class="edge">
<title>work/db.ts&#45;&gt;logger.ts</title>
<path fill="none" stroke="#757575" d="M1526.24,-680.7C1575.57,-671.21 1660.88,-663.67 1710,-710 1774.72,-771.05 1779.19,-1066.83 1779.14,-1150.13"/>
<polygon fill="#757575" stroke="#757575" points="1775.64,-1150.22 1779.11,-1160.23 1782.64,-1150.24 1775.64,-1150.22"/>
</g>
<!-- work/db.ts&#45;&gt;api/types.ts -->
<g id="edge102" class="edge">
<title>work/db.ts&#45;&gt;api/types.ts</title>
<path fill="none" stroke="#757575" d="M1526.1,-697.44C1534.71,-700.52 1543.28,-704.87 1550,-711 1579.1,-737.55 1569.58,-756.19 1586,-792 1603.59,-830.37 1624.79,-874.81 1637,-900.24"/>
<polygon fill="#757575" stroke="#757575" points="1633.87,-901.81 1641.36,-909.3 1640.18,-898.77 1633.87,-901.81"/>
</g>
<!-- work/db.ts&#45;&gt;common/result.ts -->
<g id="edge103" class="edge">
<title>work/db.ts&#45;&gt;common/result.ts</title>
<path fill="none" stroke="#757575" d="M1526.01,-679.61C1534.73,-675.82 1543.37,-670.74 1550,-664 1612.92,-600.08 1636.55,-490.11 1644.02,-443.69"/>
<polygon fill="#757575" stroke="#757575" points="1647.51,-443.97 1645.55,-433.56 1640.59,-442.93 1647.51,-443.97"/>
</g>
<!-- work/db.ts&#45;&gt;db.ts -->
<g id="edge104" class="edge">
<title>work/db.ts&#45;&gt;db.ts</title>
<path fill="none" stroke="#757575" d="M1526.25,-701.43C1534.23,-704.24 1542.5,-707.46 1550,-711 1575.83,-723.17 1603.33,-740.66 1622.43,-753.62"/>
<polygon fill="#757575" stroke="#757575" points="1620.6,-756.61 1630.83,-759.4 1624.57,-750.85 1620.6,-756.61"/>
</g>
<!-- users/controllers.ts&#45;&gt;users/services.ts -->
<g id="edge78" class="edge">
<title>users/controllers.ts&#45;&gt;users/services.ts</title>
<path fill="none" stroke="#757575" d="M913.27,-823.92C927.58,-856.04 968.71,-946.95 1008,-1020 1030.02,-1060.93 1058.53,-1107.2 1074.74,-1132.95"/>
<polygon fill="#757575" stroke="#757575" points="1071.82,-1134.88 1080.12,-1141.46 1077.73,-1131.14 1071.82,-1134.88"/>
</g>
<!-- users/validation.ts&#45;&gt;common/result.ts -->
<g id="edge94" class="edge">
<title>users/validation.ts&#45;&gt;common/result.ts</title>
<path fill="none" stroke="#757575" d="M958.97,-682.42C963.66,-680.11 968.11,-677.33 972,-674 999.49,-650.48 978.51,-621.96 1008,-601 1146.71,-502.42 1256.33,-661.8 1388,-554 1427.15,-521.95 1384.6,-477.74 1424,-446 1466.46,-411.79 1529.2,-407.83 1577.32,-411.25"/>
<polygon fill="#757575" stroke="#757575" points="1577.1,-414.75 1587.36,-412.09 1577.68,-407.77 1577.1,-414.75"/>
</g>
<!-- users/validation.ts&#45;&gt;validation/index.ts -->
<g id="edge96" class="edge">
<title>users/validation.ts&#45;&gt;validation/index.ts</title>
<path fill="none" stroke="#757575" d="M960.42,-682.48C964.66,-680.15 968.61,-677.36 972,-674 1008.87,-637.52 981.39,-607.52 1008,-563 1023.18,-537.6 1047.45,-513.78 1065.18,-498.23"/>
<polygon fill="#757575" stroke="#757575" points="1067.5,-500.85 1072.82,-491.69 1062.95,-495.54 1067.5,-500.85"/>
</g>
<!-- users/validation.ts&#45;&gt;users/db.ts -->
<g id="edge95" class="edge">
<title>users/validation.ts&#45;&gt;users/db.ts</title>
<path fill="none" stroke="#757575" d="M921.95,-705.72C935.8,-717.83 957.06,-737.78 972,-758 992.32,-785.51 981.88,-803.93 1008,-826 1044.29,-856.66 1172.65,-891.38 1244.99,-909.15"/>
<polygon fill="#757575" stroke="#757575" points="1244.26,-912.57 1254.8,-911.54 1245.92,-905.77 1244.26,-912.57"/>
</g>
<!-- work/controllers.ts&#45;&gt;work/services.ts -->
<g id="edge101" class="edge">
<title>work/controllers.ts&#45;&gt;work/services.ts</title>
<path fill="none" stroke="#757575" d="M1110.01,-1010.55C1146.7,-1031.21 1223.7,-1074.57 1266.04,-1098.41"/>
<polygon fill="#757575" stroke="#757575" points="1264.34,-1101.47 1274.77,-1103.33 1267.78,-1095.37 1264.34,-1101.47"/>
</g>
</g>
</svg>
