<?xml version="1.0" encoding="UTF-8" standalone="no"?>
<!DOCTYPE svg PUBLIC "-//W3C//DTD SVG 1.1//EN"
 "http://www.w3.org/Graphics/SVG/1.1/DTD/svg11.dtd">
<!-- Generated by graphviz version 2.43.0 (0)
 -->
<!-- Title: G Pages: 1 -->
<svg width="1971pt" height="1410pt"
 viewBox="0.00 0.00 1971.20 1410.17" xmlns="http://www.w3.org/2000/svg" xmlns:xlink="http://www.w3.org/1999/xlink">
<g id="graph0" class="graph" transform="scale(1 1) rotate(0) translate(21.6 1388.57)">
<title>G</title>
<polygon fill="#ffffff" stroke="transparent" points="-21.6,21.6 -21.6,-1388.57 1949.6,-1388.57 1949.6,21.6 -21.6,21.6"/>
<!-- ../config.js -->
<g id="node1" class="node">
<title>../config.js</title>
<path fill="none" stroke="#255c00" d="M1920.33,-928.67C1920.33,-928.67 1858.67,-928.67 1858.67,-928.67 1854.83,-928.67 1851,-924.84 1851,-921.01 1851,-921.01 1851,-913.34 1851,-913.34 1851,-909.51 1854.83,-905.67 1858.67,-905.67 1858.67,-905.67 1920.33,-905.67 1920.33,-905.67 1924.17,-905.67 1928,-909.51 1928,-913.34 1928,-913.34 1928,-921.01 1928,-921.01 1928,-924.84 1924.17,-928.67 1920.33,-928.67"/>
<text text-anchor="middle" x="1889.5" y="-913.47" font-family="Arial" font-size="14.00" fill="#255c00">../config.js</text>
</g>
<!-- api/index.ts -->
<g id="node2" class="node">
<title>api/index.ts</title>
<path fill="none" stroke="#0130a2" d="M196.33,-698.67C196.33,-698.67 126.67,-698.67 126.67,-698.67 122.83,-698.67 119,-694.84 119,-691.01 119,-691.01 119,-683.34 119,-683.34 119,-679.51 122.83,-675.67 126.67,-675.67 126.67,-675.67 196.33,-675.67 196.33,-675.67 200.17,-675.67 204,-679.51 204,-683.34 204,-683.34 204,-691.01 204,-691.01 204,-694.84 200.17,-698.67 196.33,-698.67"/>
<text text-anchor="middle" x="161.5" y="-683.47" font-family="Arial" font-size="14.00" fill="#0130a2">api/index.ts</text>
</g>
<!-- assignments/routes.ts -->
<g id="node3" class="node">
<title>assignments/routes.ts</title>
<path fill="none" stroke="#0130a2" d="M410.33,-466.67C410.33,-466.67 276.67,-466.67 276.67,-466.67 272.83,-466.67 269,-462.84 269,-459.01 269,-459.01 269,-451.34 269,-451.34 269,-447.51 272.83,-443.67 276.67,-443.67 276.67,-443.67 410.33,-443.67 410.33,-443.67 414.17,-443.67 418,-447.51 418,-451.34 418,-451.34 418,-459.01 418,-459.01 418,-462.84 414.17,-466.67 410.33,-466.67"/>
<text text-anchor="middle" x="343.5" y="-451.47" font-family="Arial" font-size="14.00" fill="#0130a2">assignments/routes.ts</text>
</g>
<!-- api/index.ts&#45;&gt;assignments/routes.ts -->
<g id="edge1" class="edge">
<title>api/index.ts&#45;&gt;assignments/routes.ts</title>
<path fill="none" stroke="#757575" d="M204.01,-680.73C214.3,-677.62 224.73,-673.01 233,-666.17 295.04,-614.89 326.1,-519.29 337.38,-476.65"/>
<polygon fill="#757575" stroke="#757575" points="340.82,-477.34 339.88,-466.79 334.03,-475.62 340.82,-477.34"/>
</g>
<!-- classes/routes.ts -->
<g id="node4" class="node">
<title>classes/routes.ts</title>
<path fill="none" stroke="#0130a2" d="M591.33,-698.67C591.33,-698.67 489.67,-698.67 489.67,-698.67 485.83,-698.67 482,-694.84 482,-691.01 482,-691.01 482,-683.34 482,-683.34 482,-679.51 485.83,-675.67 489.67,-675.67 489.67,-675.67 591.33,-675.67 591.33,-675.67 595.17,-675.67 599,-679.51 599,-683.34 599,-683.34 599,-691.01 599,-691.01 599,-694.84 595.17,-698.67 591.33,-698.67"/>
<text text-anchor="middle" x="540.5" y="-683.47" font-family="Arial" font-size="14.00" fill="#0130a2">classes/routes.ts</text>
</g>
<!-- api/index.ts&#45;&gt;classes/routes.ts -->
<g id="edge2" class="edge">
<title>api/index.ts&#45;&gt;classes/routes.ts</title>
<path fill="none" stroke="#757575" d="M204.29,-687.17C268.96,-687.17 393.94,-687.17 471.67,-687.17"/>
<polygon fill="#757575" stroke="#757575" points="471.85,-690.67 481.85,-687.17 471.85,-683.67 471.85,-690.67"/>
</g>
<!-- logger.ts -->
<g id="node5" class="node">
<title>logger.ts</title>
<path fill="none" stroke="#0130a2" d="M1677.83,-1085.67C1677.83,-1085.67 1625.17,-1085.67 1625.17,-1085.67 1621.33,-1085.67 1617.5,-1081.84 1617.5,-1078.01 1617.5,-1078.01 1617.5,-1070.34 1617.5,-1070.34 1617.5,-1066.51 1621.33,-1062.67 1625.17,-1062.67 1625.17,-1062.67 1677.83,-1062.67 1677.83,-1062.67 1681.67,-1062.67 1685.5,-1066.51 1685.5,-1070.34 1685.5,-1070.34 1685.5,-1078.01 1685.5,-1078.01 1685.5,-1081.84 1681.67,-1085.67 1677.83,-1085.67"/>
<text text-anchor="middle" x="1651.5" y="-1070.47" font-family="Arial" font-size="14.00" fill="#0130a2">logger.ts</text>
</g>
<!-- api/index.ts&#45;&gt;logger.ts -->
<g id="edge3" class="edge">
<title>api/index.ts&#45;&gt;logger.ts</title>
<path fill="none" stroke="#757575" d="M163.56,-698.74C172.11,-784.8 237.57,-1322.17 539.5,-1322.17 539.5,-1322.17 539.5,-1322.17 1275,-1322.17 1401.57,-1322.17 1454.28,-1346.82 1555,-1270.17 1613.22,-1225.87 1637.96,-1136.74 1646.6,-1095.72"/>
<polygon fill="#757575" stroke="#757575" points="1650.07,-1096.22 1648.58,-1085.73 1643.2,-1094.86 1650.07,-1096.22"/>
</g>
<!-- reviews/routes.ts -->
<g id="node6" class="node">
<title>reviews/routes.ts</title>
<path fill="none" stroke="#0130a2" d="M591.83,-657.67C591.83,-657.67 489.17,-657.67 489.17,-657.67 485.33,-657.67 481.5,-653.84 481.5,-650.01 481.5,-650.01 481.5,-642.34 481.5,-642.34 481.5,-638.51 485.33,-634.67 489.17,-634.67 489.17,-634.67 591.83,-634.67 591.83,-634.67 595.67,-634.67 599.5,-638.51 599.5,-642.34 599.5,-642.34 599.5,-650.01 599.5,-650.01 599.5,-653.84 595.67,-657.67 591.83,-657.67"/>
<text text-anchor="middle" x="540.5" y="-642.47" font-family="Arial" font-size="14.00" fill="#0130a2">reviews/routes.ts</text>
</g>
<!-- api/index.ts&#45;&gt;reviews/routes.ts -->
<g id="edge4" class="edge">
<title>api/index.ts&#45;&gt;reviews/routes.ts</title>
<path fill="none" stroke="#757575" d="M204.29,-682.63C268.78,-675.61 393.23,-662.08 471.01,-653.62"/>
<polygon fill="#757575" stroke="#757575" points="471.63,-657.07 481.2,-652.51 470.88,-650.12 471.63,-657.07"/>
</g>
<!-- users/routes.ts -->
<g id="node7" class="node">
<title>users/routes.ts</title>
<path fill="none" stroke="#0130a2" d="M779.33,-254.67C779.33,-254.67 689.67,-254.67 689.67,-254.67 685.83,-254.67 682,-250.84 682,-247.01 682,-247.01 682,-239.34 682,-239.34 682,-235.51 685.83,-231.67 689.67,-231.67 689.67,-231.67 779.33,-231.67 779.33,-231.67 783.17,-231.67 787,-235.51 787,-239.34 787,-239.34 787,-247.01 787,-247.01 787,-250.84 783.17,-254.67 779.33,-254.67"/>
<text text-anchor="middle" x="734.5" y="-239.47" font-family="Arial" font-size="14.00" fill="#0130a2">users/routes.ts</text>
</g>
<!-- api/index.ts&#45;&gt;users/routes.ts -->
<g id="edge5" class="edge">
<title>api/index.ts&#45;&gt;users/routes.ts</title>
<path fill="none" stroke="#757575" d="M204.19,-682.85C214.97,-679.77 225.61,-674.64 233,-666.17 301.62,-587.56 219.14,-525.83 269,-434.17 321.65,-337.39 352.98,-313.14 454,-269.17 524.08,-238.67 613.19,-235.78 671.72,-238.12"/>
<polygon fill="#757575" stroke="#757575" points="671.77,-241.63 681.92,-238.6 672.09,-234.64 671.77,-241.63"/>
</g>
<!-- work/routes.ts -->
<g id="node8" class="node">
<title>work/routes.ts</title>
<path fill="none" stroke="#0130a2" d="M953.33,-734.67C953.33,-734.67 867.67,-734.67 867.67,-734.67 863.83,-734.67 860,-730.84 860,-727.01 860,-727.01 860,-719.34 860,-719.34 860,-715.51 863.83,-711.67 867.67,-711.67 867.67,-711.67 953.33,-711.67 953.33,-711.67 957.17,-711.67 961,-715.51 961,-719.34 961,-719.34 961,-727.01 961,-727.01 961,-730.84 957.17,-734.67 953.33,-734.67"/>
<text text-anchor="middle" x="910.5" y="-719.47" font-family="Arial" font-size="14.00" fill="#0130a2">work/routes.ts</text>
</g>
<!-- api/index.ts&#45;&gt;work/routes.ts -->
<g id="edge6" class="edge">
<title>api/index.ts&#45;&gt;work/routes.ts</title>
<path fill="none" stroke="#757575" d="M204.33,-696.58C306.93,-718.43 579.26,-769 806,-745.17 822.11,-743.48 839.4,-740.34 855.15,-736.96"/>
<polygon fill="#757575" stroke="#757575" points="856.25,-740.3 865.25,-734.71 854.73,-733.47 856.25,-740.3"/>
</g>
<!-- assignments/controllers.ts -->
<g id="node15" class="node">
<title>assignments/controllers.ts</title>
<path fill="none" stroke="#0130a2" d="M619.33,-857.67C619.33,-857.67 461.67,-857.67 461.67,-857.67 457.83,-857.67 454,-853.84 454,-850.01 454,-850.01 454,-842.34 454,-842.34 454,-838.51 457.83,-834.67 461.67,-834.67 461.67,-834.67 619.33,-834.67 619.33,-834.67 623.17,-834.67 627,-838.51 627,-842.34 627,-842.34 627,-850.01 627,-850.01 627,-853.84 623.17,-857.67 619.33,-857.67"/>
<text text-anchor="middle" x="540.5" y="-842.47" font-family="Arial" font-size="14.00" fill="#0130a2">assignments/controllers.ts</text>
</g>
<!-- assignments/routes.ts&#45;&gt;assignments/controllers.ts -->
<g id="edge18" class="edge">
<title>assignments/routes.ts&#45;&gt;assignments/controllers.ts</title>
<path fill="none" stroke="#757575" d="M348.85,-466.74C362.62,-502.99 407.13,-617.29 454,-707.17 476.85,-750.99 508.26,-799.63 525.95,-826.18"/>
<polygon fill="#757575" stroke="#757575" points="523.12,-828.25 531.6,-834.6 528.94,-824.35 523.12,-828.25"/>
</g>
<!-- assignments/validation.ts -->
<g id="node20" class="node">
<title>assignments/validation.ts</title>
<path fill="none" stroke="#0130a2" d="M616.83,-426.67C616.83,-426.67 464.17,-426.67 464.17,-426.67 460.33,-426.67 456.5,-422.84 456.5,-419.01 456.5,-419.01 456.5,-411.34 456.5,-411.34 456.5,-407.51 460.33,-403.67 464.17,-403.67 464.17,-403.67 616.83,-403.67 616.83,-403.67 620.67,-403.67 624.5,-407.51 624.5,-411.34 624.5,-411.34 624.5,-419.01 624.5,-419.01 624.5,-422.84 620.67,-426.67 616.83,-426.67"/>
<text text-anchor="middle" x="540.5" y="-411.47" font-family="Arial" font-size="14.00" fill="#0130a2">assignments/validation.ts</text>
</g>
<!-- assignments/routes.ts&#45;&gt;assignments/validation.ts -->
<g id="edge19" class="edge">
<title>assignments/routes.ts&#45;&gt;assignments/validation.ts</title>
<path fill="none" stroke="#757575" d="M400.64,-443.66C423.38,-438.99 449.81,-433.57 473.47,-428.72"/>
<polygon fill="#757575" stroke="#757575" points="474.33,-432.12 483.42,-426.68 472.92,-425.26 474.33,-432.12"/>
</g>
<!-- classes/validation.ts -->
<g id="node21" class="node">
<title>classes/validation.ts</title>
<path fill="none" stroke="#0130a2" d="M795.33,-446.67C795.33,-446.67 673.67,-446.67 673.67,-446.67 669.83,-446.67 666,-442.84 666,-439.01 666,-439.01 666,-431.34 666,-431.34 666,-427.51 669.83,-423.67 673.67,-423.67 673.67,-423.67 795.33,-423.67 795.33,-423.67 799.17,-423.67 803,-427.51 803,-431.34 803,-431.34 803,-439.01 803,-439.01 803,-442.84 799.17,-446.67 795.33,-446.67"/>
<text text-anchor="middle" x="734.5" y="-431.47" font-family="Arial" font-size="14.00" fill="#0130a2">classes/validation.ts</text>
</g>
<!-- assignments/routes.ts&#45;&gt;classes/validation.ts -->
<g id="edge20" class="edge">
<title>assignments/routes.ts&#45;&gt;classes/validation.ts</title>
<path fill="none" stroke="#757575" d="M418.13,-451.39C485.9,-447.9 586.12,-442.75 655.31,-439.19"/>
<polygon fill="#757575" stroke="#757575" points="655.9,-442.67 665.71,-438.66 655.54,-435.68 655.9,-442.67"/>
</g>
<!-- validation/index.ts -->
<g id="node22" class="node">
<title>validation/index.ts</title>
<path fill="none" stroke="#0130a2" d="M1328.33,-290.67C1328.33,-290.67 1219.67,-290.67 1219.67,-290.67 1215.83,-290.67 1212,-286.84 1212,-283.01 1212,-283.01 1212,-275.34 1212,-275.34 1212,-271.51 1215.83,-267.67 1219.67,-267.67 1219.67,-267.67 1328.33,-267.67 1328.33,-267.67 1332.17,-267.67 1336,-271.51 1336,-275.34 1336,-275.34 1336,-283.01 1336,-283.01 1336,-286.84 1332.17,-290.67 1328.33,-290.67"/>
<text text-anchor="middle" x="1274" y="-275.47" font-family="Arial" font-size="14.00" fill="#0130a2">validation/index.ts</text>
</g>
<!-- assignments/routes.ts&#45;&gt;validation/index.ts -->
<g id="edge21" class="edge">
<title>assignments/routes.ts&#45;&gt;validation/index.ts</title>
<path fill="none" stroke="#757575" d="M358.68,-443.62C407.5,-405.06 574.37,-283.17 733.5,-283.17 733.5,-283.17 733.5,-283.17 911.5,-283.17 1012.15,-283.17 1128.56,-281.6 1201.48,-280.43"/>
<polygon fill="#757575" stroke="#757575" points="1201.98,-283.92 1211.92,-280.26 1201.86,-276.92 1201.98,-283.92"/>
</g>
<!-- classes/routes.ts&#45;&gt;classes/validation.ts -->
<g id="edge38" class="edge">
<title>classes/routes.ts&#45;&gt;classes/validation.ts</title>
<path fill="none" stroke="#757575" d="M599.14,-680.53C609.19,-677.37 618.98,-672.79 627,-666.17 694.34,-610.61 721.19,-503.1 729.92,-457.01"/>
<polygon fill="#757575" stroke="#757575" points="733.41,-457.39 731.73,-446.93 726.52,-456.16 733.41,-457.39"/>
</g>
<!-- classes/routes.ts&#45;&gt;validation/index.ts -->
<g id="edge39" class="edge">
<title>classes/routes.ts&#45;&gt;validation/index.ts</title>
<path fill="none" stroke="#757575" d="M597.8,-675.57C607.67,-672.91 617.74,-669.78 627,-666.17 728.57,-626.61 743.22,-594.26 842,-548.17 878.09,-531.33 1148.38,-446.86 1176,-418.17 1209.92,-382.94 1180.81,-351.85 1212,-314.17 1218.12,-306.78 1226.23,-300.63 1234.53,-295.66"/>
<polygon fill="#757575" stroke="#757575" points="1236.45,-298.6 1243.53,-290.71 1233.08,-292.46 1236.45,-298.6"/>
</g>
<!-- classes/controllers.ts -->
<g id="node25" class="node">
<title>classes/controllers.ts</title>
<path fill="none" stroke="#0130a2" d="M797.83,-964.67C797.83,-964.67 671.17,-964.67 671.17,-964.67 667.33,-964.67 663.5,-960.84 663.5,-957.01 663.5,-957.01 663.5,-949.34 663.5,-949.34 663.5,-945.51 667.33,-941.67 671.17,-941.67 671.17,-941.67 797.83,-941.67 797.83,-941.67 801.67,-941.67 805.5,-945.51 805.5,-949.34 805.5,-949.34 805.5,-957.01 805.5,-957.01 805.5,-960.84 801.67,-964.67 797.83,-964.67"/>
<text text-anchor="middle" x="734.5" y="-949.47" font-family="Arial" font-size="14.00" fill="#0130a2">classes/controllers.ts</text>
</g>
<!-- classes/routes.ts&#45;&gt;classes/controllers.ts -->
<g id="edge37" class="edge">
<title>classes/routes.ts&#45;&gt;classes/controllers.ts</title>
<path fill="none" stroke="#757575" d="M550,-698.95C580.05,-740.58 681.5,-881.13 719.22,-933.39"/>
<polygon fill="#757575" stroke="#757575" points="716.41,-935.48 725.1,-941.54 722.09,-931.38 716.41,-935.48"/>
</g>
<!-- config.ts -->
<g id="node32" class="node">
<title>config.ts</title>
<path fill="none" stroke="#0130a2" d="M1807.33,-928.67C1807.33,-928.67 1755.67,-928.67 1755.67,-928.67 1751.83,-928.67 1748,-924.84 1748,-921.01 1748,-921.01 1748,-913.34 1748,-913.34 1748,-909.51 1751.83,-905.67 1755.67,-905.67 1755.67,-905.67 1807.33,-905.67 1807.33,-905.67 1811.17,-905.67 1815,-909.51 1815,-913.34 1815,-913.34 1815,-921.01 1815,-921.01 1815,-924.84 1811.17,-928.67 1807.33,-928.67"/>
<text text-anchor="middle" x="1781.5" y="-913.47" font-family="Arial" font-size="14.00" fill="#0130a2">config.ts</text>
</g>
<!-- logger.ts&#45;&gt;config.ts -->
<g id="edge54" class="edge">
<title>logger.ts&#45;&gt;config.ts</title>
<path fill="none" stroke="#757575" d="M1661.91,-1062.63C1683.64,-1035.98 1737.5,-969.91 1764.52,-936.78"/>
<polygon fill="#757575" stroke="#757575" points="1767.47,-938.7 1771.07,-928.73 1762.04,-934.27 1767.47,-938.7"/>
</g>
<!-- reviews/routes.ts&#45;&gt;validation/index.ts -->
<g id="edge62" class="edge">
<title>reviews/routes.ts&#45;&gt;validation/index.ts</title>
<path fill="none" stroke="#757575" d="M543.87,-634.44C552.29,-595.87 584.64,-472.23 663,-414.17 849.45,-276.04 953,-381.33 1176,-317.17 1196.92,-311.15 1219.61,-302.39 1237.79,-294.8"/>
<polygon fill="#757575" stroke="#757575" points="1239.27,-297.97 1247.11,-290.84 1236.54,-291.53 1239.27,-297.97"/>
</g>
<!-- reviews/controllers.ts -->
<g id="node33" class="node">
<title>reviews/controllers.ts</title>
<path fill="none" stroke="#0130a2" d="M798.33,-736.67C798.33,-736.67 670.67,-736.67 670.67,-736.67 666.83,-736.67 663,-732.84 663,-729.01 663,-729.01 663,-721.34 663,-721.34 663,-717.51 666.83,-713.67 670.67,-713.67 670.67,-713.67 798.33,-713.67 798.33,-713.67 802.17,-713.67 806,-717.51 806,-721.34 806,-721.34 806,-729.01 806,-729.01 806,-732.84 802.17,-736.67 798.33,-736.67"/>
<text text-anchor="middle" x="734.5" y="-721.47" font-family="Arial" font-size="14.00" fill="#0130a2">reviews/controllers.ts</text>
</g>
<!-- reviews/routes.ts&#45;&gt;reviews/controllers.ts -->
<g id="edge60" class="edge">
<title>reviews/routes.ts&#45;&gt;reviews/controllers.ts</title>
<path fill="none" stroke="#757575" d="M599.65,-657.49C608.93,-659.94 618.32,-662.83 627,-666.17 655.86,-677.3 686.53,-694.98 707.51,-708.09"/>
<polygon fill="#757575" stroke="#757575" points="705.83,-711.17 716.14,-713.58 709.58,-705.26 705.83,-711.17"/>
</g>
<!-- reviews/validation.ts -->
<g id="node36" class="node">
<title>reviews/validation.ts</title>
<path fill="none" stroke="#0130a2" d="M971.33,-580.67C971.33,-580.67 849.67,-580.67 849.67,-580.67 845.83,-580.67 842,-576.84 842,-573.01 842,-573.01 842,-565.34 842,-565.34 842,-561.51 845.83,-557.67 849.67,-557.67 849.67,-557.67 971.33,-557.67 971.33,-557.67 975.17,-557.67 979,-561.51 979,-565.34 979,-565.34 979,-573.01 979,-573.01 979,-576.84 975.17,-580.67 971.33,-580.67"/>
<text text-anchor="middle" x="910.5" y="-565.47" font-family="Arial" font-size="14.00" fill="#0130a2">reviews/validation.ts</text>
</g>
<!-- reviews/routes.ts&#45;&gt;reviews/validation.ts -->
<g id="edge61" class="edge">
<title>reviews/routes.ts&#45;&gt;reviews/validation.ts</title>
<path fill="none" stroke="#757575" d="M596.59,-634.65C662.81,-620.79 773.8,-597.57 844.24,-582.83"/>
<polygon fill="#757575" stroke="#757575" points="845.26,-586.19 854.33,-580.72 843.83,-579.34 845.26,-586.19"/>
</g>
<!-- work/validation.ts -->
<g id="node37" class="node">
<title>work/validation.ts</title>
<path fill="none" stroke="#0130a2" d="M1147.83,-676.67C1147.83,-676.67 1043.17,-676.67 1043.17,-676.67 1039.33,-676.67 1035.5,-672.84 1035.5,-669.01 1035.5,-669.01 1035.5,-661.34 1035.5,-661.34 1035.5,-657.51 1039.33,-653.67 1043.17,-653.67 1043.17,-653.67 1147.83,-653.67 1147.83,-653.67 1151.67,-653.67 1155.5,-657.51 1155.5,-661.34 1155.5,-661.34 1155.5,-669.01 1155.5,-669.01 1155.5,-672.84 1151.67,-676.67 1147.83,-676.67"/>
<text text-anchor="middle" x="1095.5" y="-661.47" font-family="Arial" font-size="14.00" fill="#0130a2">work/validation.ts</text>
</g>
<!-- reviews/routes.ts&#45;&gt;work/validation.ts -->
<g id="edge63" class="edge">
<title>reviews/routes.ts&#45;&gt;work/validation.ts</title>
<path fill="none" stroke="#757575" d="M599.64,-648.17C702.36,-651.7 915.48,-659.02 1025.48,-662.8"/>
<polygon fill="#757575" stroke="#757575" points="1025.36,-666.3 1035.48,-663.15 1025.61,-659.3 1025.36,-666.3"/>
</g>
<!-- users/routes.ts&#45;&gt;validation/index.ts -->
<g id="edge81" class="edge">
<title>users/routes.ts&#45;&gt;validation/index.ts</title>
<path fill="none" stroke="#757575" d="M787.09,-245.48C869.41,-249.34 1035.5,-257.79 1176,-269.17 1184.37,-269.85 1193.14,-270.64 1201.83,-271.48"/>
<polygon fill="#757575" stroke="#757575" points="1201.69,-274.98 1211.98,-272.47 1202.37,-268.01 1201.69,-274.98"/>
</g>
<!-- users/controllers.ts -->
<g id="node40" class="node">
<title>users/controllers.ts</title>
<path fill="none" stroke="#0130a2" d="M967.83,-850.67C967.83,-850.67 853.17,-850.67 853.17,-850.67 849.33,-850.67 845.5,-846.84 845.5,-843.01 845.5,-843.01 845.5,-835.34 845.5,-835.34 845.5,-831.51 849.33,-827.67 853.17,-827.67 853.17,-827.67 967.83,-827.67 967.83,-827.67 971.67,-827.67 975.5,-831.51 975.5,-835.34 975.5,-835.34 975.5,-843.01 975.5,-843.01 975.5,-846.84 971.67,-850.67 967.83,-850.67"/>
<text text-anchor="middle" x="910.5" y="-835.47" font-family="Arial" font-size="14.00" fill="#0130a2">users/controllers.ts</text>
</g>
<!-- users/routes.ts&#45;&gt;users/controllers.ts -->
<g id="edge79" class="edge">
<title>users/routes.ts&#45;&gt;users/controllers.ts</title>
<path fill="none" stroke="#757575" d="M741.72,-254.78C755.9,-281.83 790.54,-351.51 806,-414.17 826.69,-498.03 795,-728.71 842,-801.17 847.88,-810.24 856.71,-817.35 866.07,-822.85"/>
<polygon fill="#757575" stroke="#757575" points="864.65,-826.06 875.12,-827.64 867.92,-819.87 864.65,-826.06"/>
</g>
<!-- users/validation.ts -->
<g id="node41" class="node">
<title>users/validation.ts</title>
<path fill="none" stroke="#0130a2" d="M1150.33,-216.67C1150.33,-216.67 1040.67,-216.67 1040.67,-216.67 1036.83,-216.67 1033,-212.84 1033,-209.01 1033,-209.01 1033,-201.34 1033,-201.34 1033,-197.51 1036.83,-193.67 1040.67,-193.67 1040.67,-193.67 1150.33,-193.67 1150.33,-193.67 1154.17,-193.67 1158,-197.51 1158,-201.34 1158,-201.34 1158,-209.01 1158,-209.01 1158,-212.84 1154.17,-216.67 1150.33,-216.67"/>
<text text-anchor="middle" x="1095.5" y="-201.47" font-family="Arial" font-size="14.00" fill="#0130a2">users/validation.ts</text>
</g>
<!-- users/routes.ts&#45;&gt;users/validation.ts -->
<g id="edge80" class="edge">
<title>users/routes.ts&#45;&gt;users/validation.ts</title>
<path fill="none" stroke="#757575" d="M787.22,-237.24C804.62,-235.28 824.15,-233.1 842,-231.17 902.97,-224.6 972.27,-217.49 1022.83,-212.37"/>
<polygon fill="#757575" stroke="#757575" points="1023.4,-215.83 1033,-211.34 1022.7,-208.86 1023.4,-215.83"/>
</g>
<!-- work/routes.ts&#45;&gt;validation/index.ts -->
<g id="edge101" class="edge">
<title>work/routes.ts&#45;&gt;validation/index.ts</title>
<path fill="none" stroke="#757575" d="M926.53,-711.59C946.62,-696.12 983.37,-667.93 1015,-644.17 1086.15,-590.73 1129.62,-601.11 1176,-525.17 1227.64,-440.62 1150.86,-383.14 1212,-305.17 1214.79,-301.61 1218.17,-298.53 1221.88,-295.87"/>
<polygon fill="#757575" stroke="#757575" points="1223.7,-298.85 1230.44,-290.68 1220.07,-292.87 1223.7,-298.85"/>
</g>
<!-- work/routes.ts&#45;&gt;work/validation.ts -->
<g id="edge103" class="edge">
<title>work/routes.ts&#45;&gt;work/validation.ts</title>
<path fill="none" stroke="#757575" d="M948.09,-711.58C976.89,-702.45 1017.21,-689.67 1048.25,-679.83"/>
<polygon fill="#757575" stroke="#757575" points="1049.5,-683.11 1057.97,-676.75 1047.38,-676.44 1049.5,-683.11"/>
</g>
<!-- work/controllers.ts -->
<g id="node43" class="node">
<title>work/controllers.ts</title>
<path fill="none" stroke="#0130a2" d="M1150.33,-949.67C1150.33,-949.67 1040.67,-949.67 1040.67,-949.67 1036.83,-949.67 1033,-945.84 1033,-942.01 1033,-942.01 1033,-934.34 1033,-934.34 1033,-930.51 1036.83,-926.67 1040.67,-926.67 1040.67,-926.67 1150.33,-926.67 1150.33,-926.67 1154.17,-926.67 1158,-930.51 1158,-934.34 1158,-934.34 1158,-942.01 1158,-942.01 1158,-945.84 1154.17,-949.67 1150.33,-949.67"/>
<text text-anchor="middle" x="1095.5" y="-934.47" font-family="Arial" font-size="14.00" fill="#0130a2">work/controllers.ts</text>
</g>
<!-- work/routes.ts&#45;&gt;work/controllers.ts -->
<g id="edge102" class="edge">
<title>work/routes.ts&#45;&gt;work/controllers.ts</title>
<path fill="none" stroke="#757575" d="M945.07,-734.76C957.42,-740.59 970.46,-748.87 979,-760.17 1022.18,-817.28 965.22,-865.73 1015,-917.17 1017.69,-919.95 1020.7,-922.38 1023.93,-924.5"/>
<polygon fill="#757575" stroke="#757575" points="1022.49,-927.7 1032.95,-929.41 1025.84,-921.55 1022.49,-927.7"/>
</g>
<!-- api/types.ts -->
<g id="node9" class="node">
<title>api/types.ts</title>
<path fill="none" stroke="#255c00" d="M1686.33,-911.67C1686.33,-911.67 1616.67,-911.67 1616.67,-911.67 1612.83,-911.67 1609,-907.84 1609,-904.01 1609,-904.01 1609,-896.34 1609,-896.34 1609,-892.51 1612.83,-888.67 1616.67,-888.67 1616.67,-888.67 1686.33,-888.67 1686.33,-888.67 1690.17,-888.67 1694,-892.51 1694,-896.34 1694,-896.34 1694,-904.01 1694,-904.01 1694,-907.84 1690.17,-911.67 1686.33,-911.67"/>
<text text-anchor="middle" x="1651.5" y="-896.47" font-family="Arial" font-size="14.00" fill="#255c00">api/types.ts</text>
</g>
<!-- app.ts -->
<g id="node10" class="node">
<title>app.ts</title>
<path fill="none" stroke="#0130a2" d="M46.33,-636.67C46.33,-636.67 7.67,-636.67 7.67,-636.67 3.83,-636.67 0,-632.84 0,-629.01 0,-629.01 0,-621.34 0,-621.34 0,-617.51 3.83,-613.67 7.67,-613.67 7.67,-613.67 46.33,-613.67 46.33,-613.67 50.17,-613.67 54,-617.51 54,-621.34 54,-621.34 54,-629.01 54,-629.01 54,-632.84 50.17,-636.67 46.33,-636.67"/>
<text text-anchor="middle" x="27" y="-621.47" font-family="Arial" font-size="14.00" fill="#0130a2">app.ts</text>
</g>
<!-- app.ts&#45;&gt;api/index.ts -->
<g id="edge7" class="edge">
<title>app.ts&#45;&gt;api/index.ts</title>
<path fill="none" stroke="#757575" d="M43.05,-636.96C55.16,-645.99 72.93,-658.2 90,-666.17 96.06,-669 102.6,-671.56 109.16,-673.83"/>
<polygon fill="#757575" stroke="#757575" points="108.14,-677.18 118.74,-676.95 110.31,-670.52 108.14,-677.18"/>
</g>
<!-- app.ts&#45;&gt;logger.ts -->
<g id="edge10" class="edge">
<title>app.ts&#45;&gt;logger.ts</title>
<path fill="none" stroke="#757575" d="M30.22,-636.72C48.54,-730.23 178.03,-1360.17 342.5,-1360.17 342.5,-1360.17 342.5,-1360.17 1275,-1360.17 1401.26,-1360.17 1456.78,-1391.51 1555,-1312.17 1623.93,-1256.49 1643.41,-1143.52 1648.66,-1096"/>
<polygon fill="#757575" stroke="#757575" points="1652.16,-1096.2 1649.67,-1085.9 1645.19,-1095.51 1652.16,-1096.2"/>
</g>
<!-- assignments/static.ts -->
<g id="node11" class="node">
<title>assignments/static.ts</title>
<path fill="none" stroke="#255c00" d="M225.33,-657.67C225.33,-657.67 97.67,-657.67 97.67,-657.67 93.83,-657.67 90,-653.84 90,-650.01 90,-650.01 90,-642.34 90,-642.34 90,-638.51 93.83,-634.67 97.67,-634.67 97.67,-634.67 225.33,-634.67 225.33,-634.67 229.17,-634.67 233,-638.51 233,-642.34 233,-642.34 233,-650.01 233,-650.01 233,-653.84 229.17,-657.67 225.33,-657.67"/>
<text text-anchor="middle" x="161.5" y="-642.47" font-family="Arial" font-size="14.00" fill="#255c00">assignments/static.ts</text>
</g>
<!-- app.ts&#45;&gt;assignments/static.ts -->
<g id="edge8" class="edge">
<title>app.ts&#45;&gt;assignments/static.ts</title>
<path fill="none" stroke="#757575" d="M54.18,-629.32C61.82,-630.53 70.6,-631.93 79.78,-633.38"/>
<polygon fill="#757575" stroke="#757575" points="79.42,-636.87 89.85,-634.98 80.52,-629.95 79.42,-636.87"/>
</g>
<!-- classes/static.ts -->
<g id="node12" class="node">
<title>classes/static.ts</title>
<path fill="none" stroke="#255c00" d="M209.33,-616.67C209.33,-616.67 113.67,-616.67 113.67,-616.67 109.83,-616.67 106,-612.84 106,-609.01 106,-609.01 106,-601.34 106,-601.34 106,-597.51 109.83,-593.67 113.67,-593.67 113.67,-593.67 209.33,-593.67 209.33,-593.67 213.17,-593.67 217,-597.51 217,-601.34 217,-601.34 217,-609.01 217,-609.01 217,-612.84 213.17,-616.67 209.33,-616.67"/>
<text text-anchor="middle" x="161.5" y="-601.47" font-family="Arial" font-size="14.00" fill="#255c00">classes/static.ts</text>
</g>
<!-- app.ts&#45;&gt;classes/static.ts -->
<g id="edge9" class="edge">
<title>app.ts&#45;&gt;classes/static.ts</title>
<path fill="none" stroke="#757575" d="M54.18,-621.22C66.19,-619.41 81.01,-617.17 95.74,-614.95"/>
<polygon fill="#757575" stroke="#757575" points="96.52,-618.37 105.88,-613.42 95.47,-611.45 96.52,-618.37"/>
</g>
<!-- reviews/static.ts -->
<g id="node13" class="node">
<title>reviews/static.ts</title>
<path fill="none" stroke="#255c00" d="M209.83,-575.67C209.83,-575.67 113.17,-575.67 113.17,-575.67 109.33,-575.67 105.5,-571.84 105.5,-568.01 105.5,-568.01 105.5,-560.34 105.5,-560.34 105.5,-556.51 109.33,-552.67 113.17,-552.67 113.17,-552.67 209.83,-552.67 209.83,-552.67 213.67,-552.67 217.5,-556.51 217.5,-560.34 217.5,-560.34 217.5,-568.01 217.5,-568.01 217.5,-571.84 213.67,-575.67 209.83,-575.67"/>
<text text-anchor="middle" x="161.5" y="-560.47" font-family="Arial" font-size="14.00" fill="#255c00">reviews/static.ts</text>
</g>
<!-- app.ts&#45;&gt;reviews/static.ts -->
<g id="edge11" class="edge">
<title>app.ts&#45;&gt;reviews/static.ts</title>
<path fill="none" stroke="#757575" d="M43.02,-613.32C55.12,-604.26 72.88,-592.03 90,-584.17 94.01,-582.33 98.23,-580.62 102.52,-579.04"/>
<polygon fill="#757575" stroke="#757575" points="103.68,-582.35 112,-575.79 101.41,-575.73 103.68,-582.35"/>
</g>
<!-- swagger/index.ts -->
<g id="node14" class="node">
<title>swagger/index.ts</title>
<path fill="none" stroke="#255c00" d="M212.83,-534.67C212.83,-534.67 110.17,-534.67 110.17,-534.67 106.33,-534.67 102.5,-530.84 102.5,-527.01 102.5,-527.01 102.5,-519.34 102.5,-519.34 102.5,-515.51 106.33,-511.67 110.17,-511.67 110.17,-511.67 212.83,-511.67 212.83,-511.67 216.67,-511.67 220.5,-515.51 220.5,-519.34 220.5,-519.34 220.5,-527.01 220.5,-527.01 220.5,-530.84 216.67,-534.67 212.83,-534.67"/>
<text text-anchor="middle" x="161.5" y="-519.47" font-family="Arial" font-size="14.00" fill="#255c00">swagger/index.ts</text>
</g>
<!-- app.ts&#45;&gt;swagger/index.ts -->
<g id="edge12" class="edge">
<title>app.ts&#45;&gt;swagger/index.ts</title>
<path fill="none" stroke="#757575" d="M33.67,-613.47C42.94,-595.59 63.04,-561.61 90,-543.17 92.11,-541.73 94.33,-540.39 96.62,-539.14"/>
<polygon fill="#757575" stroke="#757575" points="98.23,-542.25 105.76,-534.8 95.23,-535.93 98.23,-542.25"/>
</g>
<!-- assignments/services.ts -->
<g id="node16" class="node">
<title>assignments/services.ts</title>
<path fill="none" stroke="#0130a2" d="M1168.33,-908.67C1168.33,-908.67 1022.67,-908.67 1022.67,-908.67 1018.83,-908.67 1015,-904.84 1015,-901.01 1015,-901.01 1015,-893.34 1015,-893.34 1015,-889.51 1018.83,-885.67 1022.67,-885.67 1022.67,-885.67 1168.33,-885.67 1168.33,-885.67 1172.17,-885.67 1176,-889.51 1176,-893.34 1176,-893.34 1176,-901.01 1176,-901.01 1176,-904.84 1172.17,-908.67 1168.33,-908.67"/>
<text text-anchor="middle" x="1095.5" y="-893.47" font-family="Arial" font-size="14.00" fill="#0130a2">assignments/services.ts</text>
</g>
<!-- assignments/controllers.ts&#45;&gt;assignments/services.ts -->
<g id="edge13" class="edge">
<title>assignments/controllers.ts&#45;&gt;assignments/services.ts</title>
<path fill="none" stroke="#757575" d="M627.3,-854.09C729.76,-863.54 900.35,-879.27 1004.6,-888.88"/>
<polygon fill="#757575" stroke="#757575" points="1004.51,-892.39 1014.79,-889.82 1005.15,-885.42 1004.51,-892.39"/>
</g>
<!-- assignments/services.ts&#45;&gt;api/types.ts -->
<g id="edge22" class="edge">
<title>assignments/services.ts&#45;&gt;api/types.ts</title>
<path fill="none" stroke="#757575" d="M1176.11,-905.42C1267.64,-913.66 1422.33,-923.85 1555,-914.17 1569.26,-913.13 1584.61,-911.23 1598.76,-909.16"/>
<polygon fill="#757575" stroke="#757575" points="1599.45,-912.59 1608.81,-907.63 1598.39,-905.67 1599.45,-912.59"/>
</g>
<!-- assignments/db.ts -->
<g id="node17" class="node">
<title>assignments/db.ts</title>
<path fill="none" stroke="#0130a2" d="M1518.83,-833.67C1518.83,-833.67 1408.17,-833.67 1408.17,-833.67 1404.33,-833.67 1400.5,-829.84 1400.5,-826.01 1400.5,-826.01 1400.5,-818.34 1400.5,-818.34 1400.5,-814.51 1404.33,-810.67 1408.17,-810.67 1408.17,-810.67 1518.83,-810.67 1518.83,-810.67 1522.67,-810.67 1526.5,-814.51 1526.5,-818.34 1526.5,-818.34 1526.5,-826.01 1526.5,-826.01 1526.5,-829.84 1522.67,-833.67 1518.83,-833.67"/>
<text text-anchor="middle" x="1463.5" y="-818.47" font-family="Arial" font-size="14.00" fill="#0130a2">assignments/db.ts</text>
</g>
<!-- assignments/services.ts&#45;&gt;assignments/db.ts -->
<g id="edge23" class="edge">
<title>assignments/services.ts&#45;&gt;assignments/db.ts</title>
<path fill="none" stroke="#757575" d="M1152.89,-885.62C1218.54,-872.17 1326.83,-849.98 1396.38,-835.72"/>
<polygon fill="#757575" stroke="#757575" points="1397.26,-839.12 1406.35,-833.68 1395.85,-832.26 1397.26,-839.12"/>
</g>
<!-- common/result.ts -->
<g id="node18" class="node">
<title>common/result.ts</title>
<path fill="none" stroke="#255c00" d="M1704.33,-387.67C1704.33,-387.67 1598.67,-387.67 1598.67,-387.67 1594.83,-387.67 1591,-383.84 1591,-380.01 1591,-380.01 1591,-372.34 1591,-372.34 1591,-368.51 1594.83,-364.67 1598.67,-364.67 1598.67,-364.67 1704.33,-364.67 1704.33,-364.67 1708.17,-364.67 1712,-368.51 1712,-372.34 1712,-372.34 1712,-380.01 1712,-380.01 1712,-383.84 1708.17,-387.67 1704.33,-387.67"/>
<text text-anchor="middle" x="1651.5" y="-372.47" font-family="Arial" font-size="14.00" fill="#255c00">common/result.ts</text>
</g>
<!-- assignments/services.ts&#45;&gt;common/result.ts -->
<g id="edge24" class="edge">
<title>assignments/services.ts&#45;&gt;common/result.ts</title>
<path fill="none" stroke="#757575" d="M1103.19,-885.55C1118.82,-857.8 1157.78,-785.07 1176,-719.17 1193.89,-654.46 1164.01,-466.13 1212,-419.17 1262.76,-369.5 1470.62,-369.26 1580.95,-372.88"/>
<polygon fill="#757575" stroke="#757575" points="1580.87,-376.38 1590.99,-373.23 1581.12,-369.39 1580.87,-376.38"/>
</g>
<!-- work/services.ts -->
<g id="node23" class="node">
<title>work/services.ts</title>
<path fill="none" stroke="#0130a2" d="M1322.83,-987.67C1322.83,-987.67 1225.17,-987.67 1225.17,-987.67 1221.33,-987.67 1217.5,-983.84 1217.5,-980.01 1217.5,-980.01 1217.5,-972.34 1217.5,-972.34 1217.5,-968.51 1221.33,-964.67 1225.17,-964.67 1225.17,-964.67 1322.83,-964.67 1322.83,-964.67 1326.67,-964.67 1330.5,-968.51 1330.5,-972.34 1330.5,-972.34 1330.5,-980.01 1330.5,-980.01 1330.5,-983.84 1326.67,-987.67 1322.83,-987.67"/>
<text text-anchor="middle" x="1274" y="-972.47" font-family="Arial" font-size="14.00" fill="#0130a2">work/services.ts</text>
</g>
<!-- assignments/services.ts&#45;&gt;work/services.ts -->
<g id="edge25" class="edge">
<title>assignments/services.ts&#45;&gt;work/services.ts</title>
<path fill="none" stroke="#757575" d="M1156.34,-908.77C1163.16,-911.09 1169.86,-913.87 1176,-917.17 1195.11,-927.47 1193.75,-938.42 1212,-950.17 1217.85,-953.94 1224.34,-957.38 1230.84,-960.44"/>
<polygon fill="#757575" stroke="#757575" points="1229.74,-963.78 1240.3,-964.63 1232.58,-957.38 1229.74,-963.78"/>
</g>
<!-- assignments/db.ts&#45;&gt;logger.ts -->
<g id="edge17" class="edge">
<title>assignments/db.ts&#45;&gt;logger.ts</title>
<path fill="none" stroke="#757575" d="M1526.71,-832.05C1537,-835.82 1546.93,-841.02 1555,-848.17 1563.23,-855.47 1620.42,-998.29 1642.15,-1053.05"/>
<polygon fill="#757575" stroke="#757575" points="1638.95,-1054.48 1645.89,-1062.48 1645.46,-1051.9 1638.95,-1054.48"/>
</g>
<!-- assignments/db.ts&#45;&gt;api/types.ts -->
<g id="edge14" class="edge">
<title>assignments/db.ts&#45;&gt;api/types.ts</title>
<path fill="none" stroke="#757575" d="M1512.14,-833.75C1526.16,-837.72 1541.39,-842.59 1555,-848.17 1579.02,-858.02 1604.78,-872.29 1623.49,-883.39"/>
<polygon fill="#757575" stroke="#757575" points="1621.7,-886.4 1632.07,-888.55 1625.31,-880.4 1621.7,-886.4"/>
</g>
<!-- assignments/db.ts&#45;&gt;common/result.ts -->
<g id="edge15" class="edge">
<title>assignments/db.ts&#45;&gt;common/result.ts</title>
<path fill="none" stroke="#757575" d="M1526.73,-817.42C1537.26,-814.09 1547.27,-808.96 1555,-801.17 1569.66,-786.41 1629.71,-482.83 1646.26,-398.01"/>
<polygon fill="#757575" stroke="#757575" points="1649.74,-398.44 1648.22,-387.96 1642.87,-397.1 1649.74,-398.44"/>
</g>
<!-- db.ts -->
<g id="node19" class="node">
<title>db.ts</title>
<path fill="none" stroke="#0130a2" d="M1670.83,-715.67C1670.83,-715.67 1632.17,-715.67 1632.17,-715.67 1628.33,-715.67 1624.5,-711.84 1624.5,-708.01 1624.5,-708.01 1624.5,-700.34 1624.5,-700.34 1624.5,-696.51 1628.33,-692.67 1632.17,-692.67 1632.17,-692.67 1670.83,-692.67 1670.83,-692.67 1674.67,-692.67 1678.5,-696.51 1678.5,-700.34 1678.5,-700.34 1678.5,-708.01 1678.5,-708.01 1678.5,-711.84 1674.67,-715.67 1670.83,-715.67"/>
<text text-anchor="middle" x="1651.5" y="-700.47" font-family="Arial" font-size="14.00" fill="#0130a2">db.ts</text>
</g>
<!-- assignments/db.ts&#45;&gt;db.ts -->
<g id="edge16" class="edge">
<title>assignments/db.ts&#45;&gt;db.ts</title>
<path fill="none" stroke="#757575" d="M1526.62,-812.69C1536.47,-809.81 1546.28,-806.06 1555,-801.17 1589.58,-781.8 1619.85,-746.17 1636.6,-723.91"/>
<polygon fill="#757575" stroke="#757575" points="1639.45,-725.95 1642.54,-715.81 1633.8,-721.81 1639.45,-725.95"/>
</g>
<!-- db.ts&#45;&gt;config.ts -->
<g id="edge53" class="edge">
<title>db.ts&#45;&gt;config.ts</title>
<path fill="none" stroke="#757575" d="M1659.56,-715.93C1680.41,-750.62 1741.87,-852.89 1768.25,-896.78"/>
<polygon fill="#757575" stroke="#757575" points="1765.31,-898.69 1773.46,-905.45 1771.31,-895.08 1765.31,-898.69"/>
</g>
<!-- assignments/validation.ts&#45;&gt;assignments/db.ts -->
<g id="edge26" class="edge">
<title>assignments/validation.ts&#45;&gt;assignments/db.ts</title>
<path fill="none" stroke="#757575" d="M561.12,-426.7C608.96,-454.77 735.54,-528.82 842,-589.17 918.5,-632.54 934.37,-650.09 1015,-685.17 1167.98,-751.73 1211.26,-756.5 1372,-801.17 1380.79,-803.62 1390.11,-806 1399.3,-808.24"/>
<polygon fill="#757575" stroke="#757575" points="1398.65,-811.68 1409.19,-810.61 1400.28,-804.88 1398.65,-811.68"/>
</g>
<!-- assignments/validation.ts&#45;&gt;common/result.ts -->
<g id="edge28" class="edge">
<title>assignments/validation.ts&#45;&gt;common/result.ts</title>
<path fill="none" stroke="#757575" d="M545.34,-403.43C567.95,-336.7 690.4,-8.17 909.5,-8.17 909.5,-8.17 909.5,-8.17 1275,-8.17 1401.26,-8.17 1460.52,27.58 1555,-56.17 1644.89,-135.85 1651.83,-296.16 1651.21,-354.4"/>
<polygon fill="#757575" stroke="#757575" points="1647.71,-354.56 1651.01,-364.63 1654.71,-354.7 1647.71,-354.56"/>
</g>
<!-- assignments/validation.ts&#45;&gt;classes/validation.ts -->
<g id="edge27" class="edge">
<title>assignments/validation.ts&#45;&gt;classes/validation.ts</title>
<path fill="none" stroke="#757575" d="M624.6,-423.83C634.93,-424.91 645.48,-426 655.73,-427.07"/>
<polygon fill="#757575" stroke="#757575" points="655.56,-430.57 665.87,-428.13 656.28,-423.61 655.56,-430.57"/>
</g>
<!-- assignments/validation.ts&#45;&gt;validation/index.ts -->
<g id="edge29" class="edge">
<title>assignments/validation.ts&#45;&gt;validation/index.ts</title>
<path fill="none" stroke="#757575" d="M556.59,-403.57C578.62,-387.34 621.47,-358.38 663,-345.17 881.22,-275.75 949.19,-328.76 1176,-297.17 1185.67,-295.83 1195.84,-294.19 1205.81,-292.45"/>
<polygon fill="#757575" stroke="#757575" points="1206.46,-295.89 1215.69,-290.69 1205.23,-289 1206.46,-295.89"/>
</g>
<!-- classes/validation.ts&#45;&gt;common/result.ts -->
<g id="edge49" class="edge">
<title>classes/validation.ts&#45;&gt;common/result.ts</title>
<path fill="none" stroke="#757575" d="M741.21,-423.55C765.81,-374.93 868.18,-187.01 1015,-113.17 1093.45,-73.72 1124.25,-101.51 1212,-98.17 1275.99,-95.74 1551.22,-96.46 1555,-99.17 1639.54,-159.74 1649.96,-300.25 1650.73,-354.37"/>
<polygon fill="#757575" stroke="#757575" points="1647.23,-354.57 1650.77,-364.55 1654.23,-354.54 1647.23,-354.57"/>
</g>
<!-- classes/validation.ts&#45;&gt;validation/index.ts -->
<g id="edge50" class="edge">
<title>classes/validation.ts&#45;&gt;validation/index.ts</title>
<path fill="none" stroke="#757575" d="M803.1,-443.5C895.89,-451.27 1063.95,-451.8 1176,-373.17 1203.99,-353.53 1186.83,-328.32 1212,-305.17 1216.08,-301.42 1220.78,-298.16 1225.72,-295.34"/>
<polygon fill="#757575" stroke="#757575" points="1227.48,-298.38 1234.81,-290.73 1224.31,-292.14 1227.48,-298.38"/>
</g>
<!-- classes/services.ts -->
<g id="node26" class="node">
<title>classes/services.ts</title>
<path fill="none" stroke="#0130a2" d="M967.33,-989.67C967.33,-989.67 853.67,-989.67 853.67,-989.67 849.83,-989.67 846,-985.84 846,-982.01 846,-982.01 846,-974.34 846,-974.34 846,-970.51 849.83,-966.67 853.67,-966.67 853.67,-966.67 967.33,-966.67 967.33,-966.67 971.17,-966.67 975,-970.51 975,-974.34 975,-974.34 975,-982.01 975,-982.01 975,-985.84 971.17,-989.67 967.33,-989.67"/>
<text text-anchor="middle" x="910.5" y="-974.47" font-family="Arial" font-size="14.00" fill="#0130a2">classes/services.ts</text>
</g>
<!-- classes/validation.ts&#45;&gt;classes/services.ts -->
<g id="edge48" class="edge">
<title>classes/validation.ts&#45;&gt;classes/services.ts</title>
<path fill="none" stroke="#757575" d="M738.64,-446.68C748.75,-483.85 781.27,-604.11 806,-704.17 822.97,-772.83 816.29,-793.29 842,-859.17 856.34,-895.93 880.49,-935.09 895.68,-958.06"/>
<polygon fill="#757575" stroke="#757575" points="892.92,-960.23 901.4,-966.58 898.74,-956.33 892.92,-960.23"/>
</g>
<!-- classes/db.ts -->
<g id="node27" class="node">
<title>classes/db.ts</title>
<path fill="none" stroke="#0130a2" d="M1313.83,-600.67C1313.83,-600.67 1234.17,-600.67 1234.17,-600.67 1230.33,-600.67 1226.5,-596.84 1226.5,-593.01 1226.5,-593.01 1226.5,-585.34 1226.5,-585.34 1226.5,-581.51 1230.33,-577.67 1234.17,-577.67 1234.17,-577.67 1313.83,-577.67 1313.83,-577.67 1317.67,-577.67 1321.5,-581.51 1321.5,-585.34 1321.5,-585.34 1321.5,-593.01 1321.5,-593.01 1321.5,-596.84 1317.67,-600.67 1313.83,-600.67"/>
<text text-anchor="middle" x="1274" y="-585.47" font-family="Arial" font-size="14.00" fill="#0130a2">classes/db.ts</text>
</g>
<!-- classes/validation.ts&#45;&gt;classes/db.ts -->
<g id="edge47" class="edge">
<title>classes/validation.ts&#45;&gt;classes/db.ts</title>
<path fill="none" stroke="#757575" d="M775.9,-446.75C872.52,-474.43 1116.75,-544.41 1222.69,-574.76"/>
<polygon fill="#757575" stroke="#757575" points="1221.92,-578.18 1232.5,-577.57 1223.85,-571.45 1221.92,-578.18"/>
</g>
<!-- validation/index.ts&#45;&gt;common/result.ts -->
<g id="edge93" class="edge">
<title>validation/index.ts&#45;&gt;common/result.ts</title>
<path fill="none" stroke="#757575" d="M1287.9,-267.43C1305.43,-252.36 1338.43,-226.99 1372,-217.17 1450.07,-194.36 1484.21,-177.12 1555,-217.17 1607.57,-246.92 1634.38,-318.45 1644.95,-354.55"/>
<polygon fill="#757575" stroke="#757575" points="1641.67,-355.84 1647.72,-364.54 1648.42,-353.96 1641.67,-355.84"/>
</g>
<!-- users/db.ts -->
<g id="node28" class="node">
<title>users/db.ts</title>
<path fill="none" stroke="#0130a2" d="M1497.33,-560.67C1497.33,-560.67 1429.67,-560.67 1429.67,-560.67 1425.83,-560.67 1422,-556.84 1422,-553.01 1422,-553.01 1422,-545.34 1422,-545.34 1422,-541.51 1425.83,-537.67 1429.67,-537.67 1429.67,-537.67 1497.33,-537.67 1497.33,-537.67 1501.17,-537.67 1505,-541.51 1505,-545.34 1505,-545.34 1505,-553.01 1505,-553.01 1505,-556.84 1501.17,-560.67 1497.33,-560.67"/>
<text text-anchor="middle" x="1463.5" y="-545.47" font-family="Arial" font-size="14.00" fill="#0130a2">users/db.ts</text>
</g>
<!-- validation/index.ts&#45;&gt;users/db.ts -->
<g id="edge94" class="edge">
<title>validation/index.ts&#45;&gt;users/db.ts</title>
<path fill="none" stroke="#757575" d="M1283.06,-290.77C1312.15,-332.66 1411.97,-476.41 1448.75,-529.37"/>
<polygon fill="#757575" stroke="#757575" points="1445.89,-531.4 1454.47,-537.61 1451.64,-527.4 1445.89,-531.4"/>
</g>
<!-- common/response&#45;errors.ts -->
<g id="node31" class="node">
<title>common/response&#45;errors.ts</title>
<path fill="none" stroke="#255c00" d="M1547.33,-249.67C1547.33,-249.67 1379.67,-249.67 1379.67,-249.67 1375.83,-249.67 1372,-245.84 1372,-242.01 1372,-242.01 1372,-234.34 1372,-234.34 1372,-230.51 1375.83,-226.67 1379.67,-226.67 1379.67,-226.67 1547.33,-226.67 1547.33,-226.67 1551.17,-226.67 1555,-230.51 1555,-234.34 1555,-234.34 1555,-242.01 1555,-242.01 1555,-245.84 1551.17,-249.67 1547.33,-249.67"/>
<text text-anchor="middle" x="1463.5" y="-234.47" font-family="Arial" font-size="14.00" fill="#255c00">common/response&#45;errors.ts</text>
</g>
<!-- validation/index.ts&#45;&gt;common/response&#45;errors.ts -->
<g id="edge92" class="edge">
<title>validation/index.ts&#45;&gt;common/response&#45;errors.ts</title>
<path fill="none" stroke="#757575" d="M1327.73,-267.64C1350.19,-262.73 1376.57,-256.96 1400,-251.84"/>
<polygon fill="#757575" stroke="#757575" points="1400.82,-255.24 1409.84,-249.69 1399.33,-248.4 1400.82,-255.24"/>
</g>
<!-- validation/core.d.ts -->
<g id="node42" class="node">
<title>validation/core.d.ts</title>
<path fill="none" stroke="#255c00" d="M1520.33,-290.67C1520.33,-290.67 1406.67,-290.67 1406.67,-290.67 1402.83,-290.67 1399,-286.84 1399,-283.01 1399,-283.01 1399,-275.34 1399,-275.34 1399,-271.51 1402.83,-267.67 1406.67,-267.67 1406.67,-267.67 1520.33,-267.67 1520.33,-267.67 1524.17,-267.67 1528,-271.51 1528,-275.34 1528,-275.34 1528,-283.01 1528,-283.01 1528,-286.84 1524.17,-290.67 1520.33,-290.67"/>
<text text-anchor="middle" x="1463.5" y="-275.47" font-family="Arial" font-size="14.00" fill="#255c00">validation/core.d.ts</text>
</g>
<!-- validation/index.ts&#45;&gt;validation/core.d.ts -->
<g id="edge95" class="edge">
<title>validation/index.ts&#45;&gt;validation/core.d.ts</title>
<path fill="none" stroke="#757575" d="M1336.14,-279.17C1352.93,-279.17 1371.32,-279.17 1388.74,-279.17"/>
<polygon fill="#757575" stroke="#757575" points="1388.87,-282.67 1398.87,-279.17 1388.87,-275.67 1388.87,-282.67"/>
</g>
<!-- work/services.ts&#45;&gt;logger.ts -->
<g id="edge107" class="edge">
<title>work/services.ts&#45;&gt;logger.ts</title>
<path fill="none" stroke="#757575" d="M1281.99,-987.82C1295.88,-1009.72 1329.36,-1056.38 1372,-1074.17 1449.71,-1106.6 1550.59,-1094.9 1607.14,-1084.11"/>
<polygon fill="#757575" stroke="#757575" points="1608.04,-1087.5 1617.17,-1082.12 1606.68,-1080.64 1608.04,-1087.5"/>
</g>
<!-- work/services.ts&#45;&gt;api/types.ts -->
<g id="edge104" class="edge">
<title>work/services.ts&#45;&gt;api/types.ts</title>
<path fill="none" stroke="#757575" d="M1330.71,-978.05C1388.14,-978.46 1479.66,-974.82 1555,-952.17 1580.64,-944.47 1607.17,-929.34 1625.75,-917.38"/>
<polygon fill="#757575" stroke="#757575" points="1627.77,-920.24 1634.19,-911.81 1623.91,-914.4 1627.77,-920.24"/>
</g>
<!-- work/services.ts&#45;&gt;common/result.ts -->
<g id="edge106" class="edge">
<title>work/services.ts&#45;&gt;common/result.ts</title>
<path fill="none" stroke="#757575" d="M1278.27,-964.46C1288.19,-930.4 1320.42,-829.4 1372,-760.17 1436.2,-674.01 1491.76,-689.05 1555,-602.17 1603.77,-535.17 1633.57,-439.47 1645.07,-397.4"/>
<polygon fill="#757575" stroke="#757575" points="1648.46,-398.25 1647.65,-387.68 1641.7,-396.45 1648.46,-398.25"/>
</g>
<!-- common/files.ts -->
<g id="node30" class="node">
<title>common/files.ts</title>
<path fill="none" stroke="#0130a2" d="M1511.83,-1065.67C1511.83,-1065.67 1415.17,-1065.67 1415.17,-1065.67 1411.33,-1065.67 1407.5,-1061.84 1407.5,-1058.01 1407.5,-1058.01 1407.5,-1050.34 1407.5,-1050.34 1407.5,-1046.51 1411.33,-1042.67 1415.17,-1042.67 1415.17,-1042.67 1511.83,-1042.67 1511.83,-1042.67 1515.67,-1042.67 1519.5,-1046.51 1519.5,-1050.34 1519.5,-1050.34 1519.5,-1058.01 1519.5,-1058.01 1519.5,-1061.84 1515.67,-1065.67 1511.83,-1065.67"/>
<text text-anchor="middle" x="1463.5" y="-1050.47" font-family="Arial" font-size="14.00" fill="#0130a2">common/files.ts</text>
</g>
<!-- work/services.ts&#45;&gt;common/files.ts -->
<g id="edge105" class="edge">
<title>work/services.ts&#45;&gt;common/files.ts</title>
<path fill="none" stroke="#757575" d="M1302.67,-987.68C1335.07,-1001.16 1388.9,-1023.56 1425.03,-1038.59"/>
<polygon fill="#757575" stroke="#757575" points="1424.14,-1042.01 1434.72,-1042.62 1426.83,-1035.54 1424.14,-1042.01"/>
</g>
<!-- work/db.ts -->
<g id="node38" class="node">
<title>work/db.ts</title>
<path fill="none" stroke="#0130a2" d="M1494.83,-792.67C1494.83,-792.67 1432.17,-792.67 1432.17,-792.67 1428.33,-792.67 1424.5,-788.84 1424.5,-785.01 1424.5,-785.01 1424.5,-777.34 1424.5,-777.34 1424.5,-773.51 1428.33,-769.67 1432.17,-769.67 1432.17,-769.67 1494.83,-769.67 1494.83,-769.67 1498.67,-769.67 1502.5,-773.51 1502.5,-777.34 1502.5,-777.34 1502.5,-785.01 1502.5,-785.01 1502.5,-788.84 1498.67,-792.67 1494.83,-792.67"/>
<text text-anchor="middle" x="1463.5" y="-777.47" font-family="Arial" font-size="14.00" fill="#0130a2">work/db.ts</text>
</g>
<!-- work/services.ts&#45;&gt;work/db.ts -->
<g id="edge108" class="edge">
<title>work/services.ts&#45;&gt;work/db.ts</title>
<path fill="none" stroke="#757575" d="M1277.84,-964.58C1286.25,-932.9 1314.09,-844.38 1372,-801.17 1384.15,-792.1 1399.63,-787 1414.32,-784.17"/>
<polygon fill="#757575" stroke="#757575" points="1415.01,-787.61 1424.33,-782.56 1413.9,-780.7 1415.01,-787.61"/>
</g>
<!-- classes/avatars.ts -->
<g id="node24" class="node">
<title>classes/avatars.ts</title>
<path fill="none" stroke="#0130a2" d="M1328.33,-1224.67C1328.33,-1224.67 1219.67,-1224.67 1219.67,-1224.67 1215.83,-1224.67 1212,-1220.84 1212,-1217.01 1212,-1217.01 1212,-1209.34 1212,-1209.34 1212,-1205.51 1215.83,-1201.67 1219.67,-1201.67 1219.67,-1201.67 1328.33,-1201.67 1328.33,-1201.67 1332.17,-1201.67 1336,-1205.51 1336,-1209.34 1336,-1209.34 1336,-1217.01 1336,-1217.01 1336,-1220.84 1332.17,-1224.67 1328.33,-1224.67"/>
<text text-anchor="middle" x="1274" y="-1209.47" font-family="Arial" font-size="14.00" fill="#0130a2">classes/avatars.ts</text>
</g>
<!-- classes/avatars.ts&#45;&gt;logger.ts -->
<g id="edge30" class="edge">
<title>classes/avatars.ts&#45;&gt;logger.ts</title>
<path fill="none" stroke="#757575" d="M1321.5,-1224.7C1379.76,-1236.51 1480.9,-1248.19 1555,-1209.17 1601.1,-1184.9 1629.83,-1127.19 1642.65,-1095.66"/>
<polygon fill="#757575" stroke="#757575" points="1646.03,-1096.64 1646.39,-1086.05 1639.5,-1094.1 1646.03,-1096.64"/>
</g>
<!-- classes/controllers.ts&#45;&gt;classes/services.ts -->
<g id="edge31" class="edge">
<title>classes/controllers.ts&#45;&gt;classes/services.ts</title>
<path fill="none" stroke="#757575" d="M805.52,-963.23C815.51,-964.67 825.8,-966.15 835.86,-967.59"/>
<polygon fill="#757575" stroke="#757575" points="835.41,-971.06 845.81,-969.02 836.41,-964.14 835.41,-971.06"/>
</g>
<!-- classes/services.ts&#45;&gt;logger.ts -->
<g id="edge44" class="edge">
<title>classes/services.ts&#45;&gt;logger.ts</title>
<path fill="none" stroke="#757575" d="M913.57,-990.06C920.55,-1026.35 946.71,-1136.54 1015,-1190.17 1085.48,-1245.53 1123.03,-1222.45 1212,-1233.17 1363.36,-1251.42 1422.73,-1312.98 1555,-1237.17 1608.61,-1206.45 1635.04,-1132.66 1645.25,-1095.84"/>
<polygon fill="#757575" stroke="#757575" points="1648.66,-1096.65 1647.82,-1086.09 1641.89,-1094.87 1648.66,-1096.65"/>
</g>
<!-- classes/services.ts&#45;&gt;api/types.ts -->
<g id="edge40" class="edge">
<title>classes/services.ts&#45;&gt;api/types.ts</title>
<path fill="none" stroke="#757575" d="M926.64,-989.76C945.97,-1003.87 981.01,-1027.18 1015,-1038.17 1243.85,-1112.22 1348.01,-1196.69 1555,-1074.17 1611.41,-1040.79 1636.72,-960.94 1646,-922.12"/>
<polygon fill="#757575" stroke="#757575" points="1649.52,-922.43 1648.29,-911.9 1642.69,-920.89 1649.52,-922.43"/>
</g>
<!-- classes/services.ts&#45;&gt;common/result.ts -->
<g id="edge43" class="edge">
<title>classes/services.ts&#45;&gt;common/result.ts</title>
<path fill="none" stroke="#757575" d="M919.36,-966.48C933.05,-945.67 961.5,-900.51 979,-859.17 1001.2,-806.72 975.17,-776.89 1015,-736.17 1067.49,-682.52 1128.21,-743.05 1176,-685.17 1219.87,-632.03 1161.39,-423.94 1212,-377.17 1263.85,-329.26 1470.71,-350.24 1580.78,-365.45"/>
<polygon fill="#757575" stroke="#757575" points="1580.41,-368.93 1590.79,-366.85 1581.38,-362 1580.41,-368.93"/>
</g>
<!-- classes/services.ts&#45;&gt;work/services.ts -->
<g id="edge46" class="edge">
<title>classes/services.ts&#45;&gt;work/services.ts</title>
<path fill="none" stroke="#757575" d="M975.3,-977.82C1040.42,-977.46 1141.05,-976.9 1206.98,-976.54"/>
<polygon fill="#757575" stroke="#757575" points="1207.27,-980.04 1217.25,-976.48 1207.23,-973.04 1207.27,-980.04"/>
</g>
<!-- classes/services.ts&#45;&gt;classes/avatars.ts -->
<g id="edge41" class="edge">
<title>classes/services.ts&#45;&gt;classes/avatars.ts</title>
<path fill="none" stroke="#757575" d="M915.31,-990.1C925.81,-1021.01 958.24,-1104.23 1015,-1146.17 1069.57,-1186.5 1146.27,-1202.61 1201.84,-1209.02"/>
<polygon fill="#757575" stroke="#757575" points="1201.65,-1212.51 1211.96,-1210.1 1202.39,-1205.55 1201.65,-1212.51"/>
</g>
<!-- classes/services.ts&#45;&gt;classes/db.ts -->
<g id="edge42" class="edge">
<title>classes/services.ts&#45;&gt;classes/db.ts</title>
<path fill="none" stroke="#757575" d="M922.71,-966.56C941.41,-947.32 980.34,-907.81 1015,-876.17 1084.19,-813.03 1114.22,-810.58 1176,-740.17 1213.09,-697.91 1246.09,-640.19 1262.34,-609.81"/>
<polygon fill="#757575" stroke="#757575" points="1265.43,-611.44 1267.01,-600.96 1259.24,-608.17 1265.43,-611.44"/>
</g>
<!-- users/services.ts -->
<g id="node29" class="node">
<title>users/services.ts</title>
<path fill="none" stroke="#0130a2" d="M1146.33,-1029.67C1146.33,-1029.67 1044.67,-1029.67 1044.67,-1029.67 1040.83,-1029.67 1037,-1025.84 1037,-1022.01 1037,-1022.01 1037,-1014.34 1037,-1014.34 1037,-1010.51 1040.83,-1006.67 1044.67,-1006.67 1044.67,-1006.67 1146.33,-1006.67 1146.33,-1006.67 1150.17,-1006.67 1154,-1010.51 1154,-1014.34 1154,-1014.34 1154,-1022.01 1154,-1022.01 1154,-1025.84 1150.17,-1029.67 1146.33,-1029.67"/>
<text text-anchor="middle" x="1095.5" y="-1014.47" font-family="Arial" font-size="14.00" fill="#0130a2">users/services.ts</text>
</g>
<!-- classes/services.ts&#45;&gt;users/services.ts -->
<g id="edge45" class="edge">
<title>classes/services.ts&#45;&gt;users/services.ts</title>
<path fill="none" stroke="#757575" d="M964.43,-989.74C985.49,-994.34 1009.87,-999.68 1031.81,-1004.47"/>
<polygon fill="#757575" stroke="#757575" points="1031.17,-1007.91 1041.69,-1006.63 1032.67,-1001.07 1031.17,-1007.91"/>
</g>
<!-- classes/db.ts&#45;&gt;logger.ts -->
<g id="edge35" class="edge">
<title>classes/db.ts&#45;&gt;logger.ts</title>
<path fill="none" stroke="#757575" d="M1277.25,-600.76C1284.99,-638.52 1313.41,-760.31 1372,-842.17 1442.95,-941.3 1565.99,-1023.25 1621.66,-1057.26"/>
<polygon fill="#757575" stroke="#757575" points="1619.95,-1060.31 1630.32,-1062.49 1623.57,-1054.32 1619.95,-1060.31"/>
</g>
<!-- classes/db.ts&#45;&gt;api/types.ts -->
<g id="edge32" class="edge">
<title>classes/db.ts&#45;&gt;api/types.ts</title>
<path fill="none" stroke="#757575" d="M1310.54,-600.77C1319.34,-604.57 1328.42,-609.35 1336,-615.17 1356.59,-630.98 1352.17,-644.42 1372,-661.17 1442.65,-720.84 1486.34,-698.23 1555,-760.17 1594.25,-795.59 1625.45,-850.26 1640.57,-879.71"/>
<polygon fill="#757575" stroke="#757575" points="1637.45,-881.3 1645.06,-888.66 1643.7,-878.16 1637.45,-881.3"/>
</g>
<!-- classes/db.ts&#45;&gt;common/result.ts -->
<g id="edge33" class="edge">
<title>classes/db.ts&#45;&gt;common/result.ts</title>
<path fill="none" stroke="#757575" d="M1321.62,-598.97C1381.14,-608.74 1484.8,-616.31 1555,-569.17 1615.12,-528.81 1638.93,-439.04 1646.97,-397.73"/>
<polygon fill="#757575" stroke="#757575" points="1650.41,-398.36 1648.76,-387.89 1643.52,-397.1 1650.41,-398.36"/>
</g>
<!-- classes/db.ts&#45;&gt;db.ts -->
<g id="edge34" class="edge">
<title>classes/db.ts&#45;&gt;db.ts</title>
<path fill="none" stroke="#757575" d="M1312.72,-600.73C1385.22,-622.93 1543.13,-671.29 1614.37,-693.11"/>
<polygon fill="#757575" stroke="#757575" points="1613.64,-696.54 1624.23,-696.13 1615.69,-689.85 1613.64,-696.54"/>
</g>
<!-- classes/db.ts&#45;&gt;users/db.ts -->
<g id="edge36" class="edge">
<title>classes/db.ts&#45;&gt;users/db.ts</title>
<path fill="none" stroke="#757575" d="M1321.83,-579.18C1349.27,-573.33 1383.93,-565.94 1411.98,-559.95"/>
<polygon fill="#757575" stroke="#757575" points="1412.94,-563.33 1421.98,-557.82 1411.47,-556.48 1412.94,-563.33"/>
</g>
<!-- users/db.ts&#45;&gt;logger.ts -->
<g id="edge78" class="edge">
<title>users/db.ts&#45;&gt;logger.ts</title>
<path fill="none" stroke="#757575" d="M1479.35,-560.85C1500.14,-578.13 1537.36,-612.64 1555,-651.17 1605.22,-760.84 1561.06,-803.33 1591,-920.17 1603.6,-969.35 1627.25,-1024.2 1640.62,-1053.33"/>
<polygon fill="#757575" stroke="#757575" points="1637.5,-1054.91 1644.89,-1062.51 1643.85,-1051.96 1637.5,-1054.91"/>
</g>
<!-- users/db.ts&#45;&gt;api/types.ts -->
<g id="edge75" class="edge">
<title>users/db.ts&#45;&gt;api/types.ts</title>
<path fill="none" stroke="#757575" d="M1477.52,-560.88C1496.72,-578.73 1532.75,-614.55 1555,-651.17 1579.57,-691.62 1625.79,-826.24 1643.42,-878.84"/>
<polygon fill="#757575" stroke="#757575" points="1640.16,-880.11 1646.64,-888.49 1646.8,-877.9 1640.16,-880.11"/>
</g>
<!-- users/db.ts&#45;&gt;common/result.ts -->
<g id="edge76" class="edge">
<title>users/db.ts&#45;&gt;common/result.ts</title>
<path fill="none" stroke="#757575" d="M1483.49,-537.62C1502.49,-525.63 1532.13,-505.78 1555,-485.17 1586.49,-456.8 1617.89,-418.56 1635.69,-395.73"/>
<polygon fill="#757575" stroke="#757575" points="1638.48,-397.85 1641.81,-387.79 1632.93,-393.57 1638.48,-397.85"/>
</g>
<!-- users/db.ts&#45;&gt;db.ts -->
<g id="edge77" class="edge">
<title>users/db.ts&#45;&gt;db.ts</title>
<path fill="none" stroke="#757575" d="M1482.41,-560.71C1501.08,-573 1530.92,-593.37 1555,-613.17 1583.29,-636.45 1613.51,-666.16 1632.21,-685.19"/>
<polygon fill="#757575" stroke="#757575" points="1629.75,-687.68 1639.24,-692.4 1634.76,-682.79 1629.75,-687.68"/>
</g>
<!-- users/services.ts&#45;&gt;logger.ts -->
<g id="edge85" class="edge">
<title>users/services.ts&#45;&gt;logger.ts</title>
<path fill="none" stroke="#757575" d="M1125.64,-1029.76C1175.25,-1048.79 1279.72,-1085.89 1372,-1099.17 1452.5,-1110.76 1474.33,-1109.56 1555,-1099.17 1572.46,-1096.93 1591.27,-1092.46 1607.55,-1087.91"/>
<polygon fill="#757575" stroke="#757575" points="1608.69,-1091.23 1617.32,-1085.09 1606.75,-1084.5 1608.69,-1091.23"/>
</g>
<!-- users/services.ts&#45;&gt;api/types.ts -->
<g id="edge82" class="edge">
<title>users/services.ts&#45;&gt;api/types.ts</title>
<path fill="none" stroke="#757575" d="M1154.07,-1023.96C1243.53,-1030.65 1419.67,-1034.48 1555,-979.17 1587.07,-966.07 1616.57,-938.2 1634.06,-919.32"/>
<polygon fill="#757575" stroke="#757575" points="1636.69,-921.62 1640.78,-911.85 1631.49,-916.94 1636.69,-921.62"/>
</g>
<!-- users/services.ts&#45;&gt;common/result.ts -->
<g id="edge84" class="edge">
<title>users/services.ts&#45;&gt;common/result.ts</title>
<path fill="none" stroke="#757575" d="M1121.59,-1006.52C1140.06,-996.5 1163.97,-980.17 1176,-958.17 1226.25,-866.26 1144.66,-568.41 1212,-488.17 1235.86,-459.74 1463.48,-412.24 1581,-389.33"/>
<polygon fill="#757575" stroke="#757575" points="1581.84,-392.73 1590.99,-387.39 1580.51,-385.86 1581.84,-392.73"/>
</g>
<!-- users/services.ts&#45;&gt;work/services.ts -->
<g id="edge88" class="edge">
<title>users/services.ts&#45;&gt;work/services.ts</title>
<path fill="none" stroke="#757575" d="M1145.2,-1006.59C1166.71,-1001.47 1192.17,-995.41 1214.68,-990.05"/>
<polygon fill="#757575" stroke="#757575" points="1215.54,-993.44 1224.46,-987.72 1213.92,-986.63 1215.54,-993.44"/>
</g>
<!-- users/services.ts&#45;&gt;classes/avatars.ts -->
<g id="edge83" class="edge">
<title>users/services.ts&#45;&gt;classes/avatars.ts</title>
<path fill="none" stroke="#757575" d="M1101.05,-1029.81C1113.75,-1060.83 1152.62,-1146.26 1212,-1192.17 1214.28,-1193.94 1216.73,-1195.56 1219.27,-1197.05"/>
<polygon fill="#757575" stroke="#757575" points="1217.75,-1200.21 1228.25,-1201.63 1220.93,-1193.97 1217.75,-1200.21"/>
</g>
<!-- users/services.ts&#45;&gt;users/db.ts -->
<g id="edge87" class="edge">
<title>users/services.ts&#45;&gt;users/db.ts</title>
<path fill="none" stroke="#757575" d="M1121.5,-1006.47C1139.92,-996.42 1163.8,-980.08 1176,-958.17 1218.35,-882.14 1149.96,-629.21 1212,-568.17 1239.26,-541.35 1346.73,-542.36 1411.72,-545.66"/>
<polygon fill="#757575" stroke="#757575" points="1411.59,-549.16 1421.76,-546.2 1411.97,-542.17 1411.59,-549.16"/>
</g>
<!-- users/avatars.ts -->
<g id="node39" class="node">
<title>users/avatars.ts</title>
<path fill="none" stroke="#0130a2" d="M1322.33,-1183.67C1322.33,-1183.67 1225.67,-1183.67 1225.67,-1183.67 1221.83,-1183.67 1218,-1179.84 1218,-1176.01 1218,-1176.01 1218,-1168.34 1218,-1168.34 1218,-1164.51 1221.83,-1160.67 1225.67,-1160.67 1225.67,-1160.67 1322.33,-1160.67 1322.33,-1160.67 1326.17,-1160.67 1330,-1164.51 1330,-1168.34 1330,-1168.34 1330,-1176.01 1330,-1176.01 1330,-1179.84 1326.17,-1183.67 1322.33,-1183.67"/>
<text text-anchor="middle" x="1274" y="-1168.47" font-family="Arial" font-size="14.00" fill="#0130a2">users/avatars.ts</text>
</g>
<!-- users/services.ts&#45;&gt;users/avatars.ts -->
<g id="edge86" class="edge">
<title>users/services.ts&#45;&gt;users/avatars.ts</title>
<path fill="none" stroke="#757575" d="M1109.77,-1029.75C1140.18,-1056.28 1215.12,-1121.67 1251.92,-1153.78"/>
<polygon fill="#757575" stroke="#757575" points="1249.74,-1156.53 1259.58,-1160.46 1254.35,-1151.25 1249.74,-1156.53"/>
</g>
<!-- common/files.ts&#45;&gt;logger.ts -->
<g id="edge51" class="edge">
<title>common/files.ts&#45;&gt;logger.ts</title>
<path fill="none" stroke="#757575" d="M1519.55,-1060.09C1547.64,-1063.11 1581.3,-1066.73 1607.46,-1069.54"/>
<polygon fill="#757575" stroke="#757575" points="1607.13,-1073.03 1617.45,-1070.62 1607.88,-1066.07 1607.13,-1073.03"/>
</g>
<!-- config.ts&#45;&gt;../config.js -->
<g id="edge52" class="edge">
<title>config.ts&#45;&gt;../config.js</title>
<path fill="none" stroke="#757575" d="M1815.17,-917.17C1823.3,-917.17 1832.19,-917.17 1840.88,-917.17"/>
<polygon fill="#757575" stroke="#757575" points="1840.93,-920.67 1850.93,-917.17 1840.93,-913.67 1840.93,-920.67"/>
</g>
<!-- reviews/services.ts -->
<g id="node34" class="node">
<title>reviews/services.ts</title>
<path fill="none" stroke="#0130a2" d="M967.83,-792.67C967.83,-792.67 853.17,-792.67 853.17,-792.67 849.33,-792.67 845.5,-788.84 845.5,-785.01 845.5,-785.01 845.5,-777.34 845.5,-777.34 845.5,-773.51 849.33,-769.67 853.17,-769.67 853.17,-769.67 967.83,-769.67 967.83,-769.67 971.67,-769.67 975.5,-773.51 975.5,-777.34 975.5,-777.34 975.5,-785.01 975.5,-785.01 975.5,-788.84 971.67,-792.67 967.83,-792.67"/>
<text text-anchor="middle" x="910.5" y="-777.47" font-family="Arial" font-size="14.00" fill="#0130a2">reviews/services.ts</text>
</g>
<!-- reviews/controllers.ts&#45;&gt;reviews/services.ts -->
<g id="edge55" class="edge">
<title>reviews/controllers.ts&#45;&gt;reviews/services.ts</title>
<path fill="none" stroke="#757575" d="M771.55,-736.78C798.27,-745.37 834.87,-757.16 863.66,-766.42"/>
<polygon fill="#757575" stroke="#757575" points="862.9,-769.85 873.49,-769.58 865.05,-763.19 862.9,-769.85"/>
</g>
<!-- reviews/services.ts&#45;&gt;api/types.ts -->
<g id="edge64" class="edge">
<title>reviews/services.ts&#45;&gt;api/types.ts</title>
<path fill="none" stroke="#757575" d="M975.79,-791.53C1119.9,-814.73 1466.47,-870.54 1598.35,-891.78"/>
<polygon fill="#757575" stroke="#757575" points="1598.16,-895.29 1608.58,-893.42 1599.27,-888.38 1598.16,-895.29"/>
</g>
<!-- reviews/services.ts&#45;&gt;common/result.ts -->
<g id="edge65" class="edge">
<title>reviews/services.ts&#45;&gt;common/result.ts</title>
<path fill="none" stroke="#757575" d="M946.41,-769.58C958.78,-763.67 971.49,-755.13 979,-743.17 1045.25,-637.79 933.16,-277.97 1015,-184.17 1094.13,-93.48 1455.1,-75.04 1555,-142.17 1627.66,-191 1645.07,-305.84 1649.22,-354.15"/>
<polygon fill="#757575" stroke="#757575" points="1645.75,-354.7 1649.98,-364.42 1652.73,-354.18 1645.75,-354.7"/>
</g>
<!-- reviews/services.ts&#45;&gt;users/services.ts -->
<g id="edge67" class="edge">
<title>reviews/services.ts&#45;&gt;users/services.ts</title>
<path fill="none" stroke="#757575" d="M944.57,-792.71C957,-798.56 970.23,-806.88 979,-818.17 1018.42,-868.91 979.36,-904.72 1015,-958.17 1026.98,-976.14 1046.19,-990.85 1062.72,-1001.22"/>
<polygon fill="#757575" stroke="#757575" points="1061.19,-1004.38 1071.57,-1006.52 1064.79,-998.37 1061.19,-1004.38"/>
</g>
<!-- reviews/db.ts -->
<g id="node35" class="node">
<title>reviews/db.ts</title>
<path fill="none" stroke="#0130a2" d="M1313.83,-520.67C1313.83,-520.67 1234.17,-520.67 1234.17,-520.67 1230.33,-520.67 1226.5,-516.84 1226.5,-513.01 1226.5,-513.01 1226.5,-505.34 1226.5,-505.34 1226.5,-501.51 1230.33,-497.67 1234.17,-497.67 1234.17,-497.67 1313.83,-497.67 1313.83,-497.67 1317.67,-497.67 1321.5,-501.51 1321.5,-505.34 1321.5,-505.34 1321.5,-513.01 1321.5,-513.01 1321.5,-516.84 1317.67,-520.67 1313.83,-520.67"/>
<text text-anchor="middle" x="1274" y="-505.47" font-family="Arial" font-size="14.00" fill="#0130a2">reviews/db.ts</text>
</g>
<!-- reviews/services.ts&#45;&gt;reviews/db.ts -->
<g id="edge66" class="edge">
<title>reviews/services.ts&#45;&gt;reviews/db.ts</title>
<path fill="none" stroke="#757575" d="M975.5,-775.05C1035.88,-765.81 1124.58,-742.74 1176,-685.17 1221.67,-634.04 1167.74,-587.53 1212,-535.17 1214.96,-531.67 1218.49,-528.62 1222.32,-525.98"/>
<polygon fill="#757575" stroke="#757575" points="1224.26,-528.9 1231.11,-520.81 1220.72,-522.86 1224.26,-528.9"/>
</g>
<!-- reviews/db.ts&#45;&gt;logger.ts -->
<g id="edge58" class="edge">
<title>reviews/db.ts&#45;&gt;logger.ts</title>
<path fill="none" stroke="#757575" d="M1295.08,-520.88C1347.11,-552.34 1486.94,-644.18 1555,-760.17 1591.89,-823.04 1569.81,-850.43 1591,-920.17 1605.76,-968.75 1628.58,-1023.82 1641.24,-1053.15"/>
<polygon fill="#757575" stroke="#757575" points="1638.06,-1054.63 1645.26,-1062.4 1644.48,-1051.84 1638.06,-1054.63"/>
</g>
<!-- reviews/db.ts&#45;&gt;common/result.ts -->
<g id="edge56" class="edge">
<title>reviews/db.ts&#45;&gt;common/result.ts</title>
<path fill="none" stroke="#757575" d="M1321.61,-501.3C1390,-489.33 1513.85,-465.98 1555,-447.17 1584.01,-433.92 1612.75,-410.84 1631.01,-394.59"/>
<polygon fill="#757575" stroke="#757575" points="1633.58,-396.99 1638.62,-387.67 1628.87,-391.81 1633.58,-396.99"/>
</g>
<!-- reviews/db.ts&#45;&gt;db.ts -->
<g id="edge57" class="edge">
<title>reviews/db.ts&#45;&gt;db.ts</title>
<path fill="none" stroke="#757575" d="M1321.59,-499.55C1380.84,-489.99 1483.96,-482.57 1555,-528.17 1610.65,-563.9 1636.33,-643.71 1645.85,-682.36"/>
<polygon fill="#757575" stroke="#757575" points="1642.54,-683.57 1648.21,-692.52 1649.35,-681.99 1642.54,-683.57"/>
</g>
<!-- reviews/db.ts&#45;&gt;users/db.ts -->
<g id="edge59" class="edge">
<title>reviews/db.ts&#45;&gt;users/db.ts</title>
<path fill="none" stroke="#757575" d="M1321.83,-519.16C1349.27,-525.02 1383.93,-532.41 1411.98,-538.39"/>
<polygon fill="#757575" stroke="#757575" points="1411.47,-541.87 1421.98,-540.53 1412.94,-535.02 1411.47,-541.87"/>
</g>
<!-- reviews/validation.ts&#45;&gt;common/result.ts -->
<g id="edge68" class="edge">
<title>reviews/validation.ts&#45;&gt;common/result.ts</title>
<path fill="none" stroke="#757575" d="M912.24,-557.27C916.6,-490.85 941.51,-166.99 1015,-108.17 1108.69,-33.19 1456.93,-39.01 1555,-108.17 1637.17,-166.12 1649.05,-301.37 1650.46,-354.34"/>
<polygon fill="#757575" stroke="#757575" points="1646.97,-354.67 1650.63,-364.61 1653.97,-354.55 1646.97,-354.67"/>
</g>
<!-- reviews/validation.ts&#45;&gt;validation/index.ts -->
<g id="edge70" class="edge">
<title>reviews/validation.ts&#45;&gt;validation/index.ts</title>
<path fill="none" stroke="#757575" d="M945.92,-557.6C966.02,-550.91 991.9,-542.41 1015,-535.17 1086.25,-512.85 1125.75,-542.41 1176,-487.17 1231.49,-426.18 1160.05,-369.21 1212,-305.17 1214.85,-301.66 1218.27,-298.61 1222,-295.97"/>
<polygon fill="#757575" stroke="#757575" points="1223.83,-298.95 1230.6,-290.81 1220.23,-292.95 1223.83,-298.95"/>
</g>
<!-- reviews/validation.ts&#45;&gt;reviews/db.ts -->
<g id="edge69" class="edge">
<title>reviews/validation.ts&#45;&gt;reviews/db.ts</title>
<path fill="none" stroke="#757575" d="M979.07,-557.96C1047.55,-546.59 1152.28,-529.21 1216.49,-518.55"/>
<polygon fill="#757575" stroke="#757575" points="1217.15,-521.99 1226.44,-516.9 1216,-515.09 1217.15,-521.99"/>
</g>
<!-- reviews/validation.ts&#45;&gt;work/validation.ts -->
<g id="edge72" class="edge">
<title>reviews/validation.ts&#45;&gt;work/validation.ts</title>
<path fill="none" stroke="#757575" d="M951.8,-580.79C961.22,-584.54 970.86,-589.28 979,-595.17 999.47,-609.98 994.15,-624.89 1015,-639.17 1021.1,-643.35 1027.91,-646.89 1034.91,-649.89"/>
<polygon fill="#757575" stroke="#757575" points="1033.94,-653.27 1044.53,-653.64 1036.49,-646.75 1033.94,-653.27"/>
</g>
<!-- reviews/validation.ts&#45;&gt;work/db.ts -->
<g id="edge71" class="edge">
<title>reviews/validation.ts&#45;&gt;work/db.ts</title>
<path fill="none" stroke="#757575" d="M979.22,-577.24C1084.18,-590.85 1279.91,-620.96 1336,-662.17 1361.99,-681.27 1349.6,-701.97 1372,-725.17 1387.85,-741.58 1409.46,-755.19 1427.59,-764.88"/>
<polygon fill="#757575" stroke="#757575" points="1426.22,-768.11 1436.71,-769.59 1429.43,-761.89 1426.22,-768.11"/>
</g>
<!-- work/validation.ts&#45;&gt;assignments/db.ts -->
<g id="edge109" class="edge">
<title>work/validation.ts&#45;&gt;assignments/db.ts</title>
<path fill="none" stroke="#757575" d="M1148.59,-676.7C1214.54,-691.66 1321.39,-717.26 1336,-729.17 1363.73,-751.78 1343.9,-779.02 1372,-801.17 1377.66,-805.64 1384.1,-809.18 1390.88,-811.99"/>
<polygon fill="#757575" stroke="#757575" points="1389.7,-815.28 1400.29,-815.39 1392.07,-808.7 1389.7,-815.28"/>
</g>
<!-- work/validation.ts&#45;&gt;common/result.ts -->
<g id="edge110" class="edge">
<title>work/validation.ts&#45;&gt;common/result.ts</title>
<path fill="none" stroke="#757575" d="M1117.9,-653.58C1136.51,-642.28 1162.54,-623.3 1176,-599.17 1231.97,-498.83 1125.28,-418.55 1212,-343.17 1269.53,-293.17 1479.83,-330.55 1555,-343.17 1575.58,-346.63 1597.66,-354 1615.4,-360.9"/>
<polygon fill="#757575" stroke="#757575" points="1614.18,-364.18 1624.77,-364.66 1616.79,-357.69 1614.18,-364.18"/>
</g>
<!-- work/validation.ts&#45;&gt;validation/index.ts -->
<g id="edge111" class="edge">
<title>work/validation.ts&#45;&gt;validation/index.ts</title>
<path fill="none" stroke="#757575" d="M1109.2,-653.38C1127.34,-635.7 1160.25,-600.39 1176,-563.17 1221.12,-456.55 1141.63,-397.11 1212,-305.17 1214.64,-301.73 1217.82,-298.73 1221.33,-296.13"/>
<polygon fill="#757575" stroke="#757575" points="1223.36,-298.99 1230.01,-290.75 1219.67,-293.04 1223.36,-298.99"/>
</g>
<!-- work/validation.ts&#45;&gt;work/db.ts -->
<g id="edge112" class="edge">
<title>work/validation.ts&#45;&gt;work/db.ts</title>
<path fill="none" stroke="#757575" d="M1155.56,-663.28C1205.28,-663.61 1277.44,-668.67 1336,-691.17 1354.42,-698.25 1355.94,-705.7 1372,-717.17 1394.2,-733.04 1419.57,-750.96 1437.79,-763.8"/>
<polygon fill="#757575" stroke="#757575" points="1435.92,-766.76 1446.12,-769.66 1439.95,-761.04 1435.92,-766.76"/>
</g>
<!-- work/db.ts&#45;&gt;logger.ts -->
<g id="edge100" class="edge">
<title>work/db.ts&#45;&gt;logger.ts</title>
<path fill="none" stroke="#757575" d="M1502.9,-781.09C1520.76,-783.01 1541.07,-788.27 1555,-801.17 1595.53,-838.73 1573.03,-867.92 1591,-920.17 1607.51,-968.18 1629.66,-1023.47 1641.74,-1052.99"/>
<polygon fill="#757575" stroke="#757575" points="1638.52,-1054.39 1645.56,-1062.3 1645,-1051.72 1638.52,-1054.39"/>
</g>
<!-- work/db.ts&#45;&gt;api/types.ts -->
<g id="edge97" class="edge">
<title>work/db.ts&#45;&gt;api/types.ts</title>
<path fill="none" stroke="#757575" d="M1502.82,-784.61C1519.64,-787.35 1539.14,-792.29 1555,-801.17 1590.13,-820.85 1620.42,-857.55 1637,-880.32"/>
<polygon fill="#757575" stroke="#757575" points="1634.21,-882.45 1642.85,-888.58 1639.92,-878.4 1634.21,-882.45"/>
</g>
<!-- work/db.ts&#45;&gt;common/result.ts -->
<g id="edge98" class="edge">
<title>work/db.ts&#45;&gt;common/result.ts</title>
<path fill="none" stroke="#757575" d="M1502.89,-778.82C1520.97,-775.75 1541.47,-769.15 1555,-755.17 1580.63,-728.68 1631.56,-474.06 1646.37,-397.71"/>
<polygon fill="#757575" stroke="#757575" points="1649.83,-398.27 1648.29,-387.79 1642.96,-396.94 1649.83,-398.27"/>
</g>
<!-- work/db.ts&#45;&gt;db.ts -->
<g id="edge99" class="edge">
<title>work/db.ts&#45;&gt;db.ts</title>
<path fill="none" stroke="#757575" d="M1502.53,-772.16C1518.94,-767.78 1538.18,-761.99 1555,-755.17 1578.69,-745.57 1604.17,-731.77 1622.84,-720.95"/>
<polygon fill="#757575" stroke="#757575" points="1624.84,-723.84 1631.69,-715.75 1621.29,-717.8 1624.84,-723.84"/>
</g>
<!-- users/avatars.ts&#45;&gt;logger.ts -->
<g id="edge73" class="edge">
<title>users/avatars.ts&#45;&gt;logger.ts</title>
<path fill="none" stroke="#757575" d="M1311.01,-1183.69C1366.31,-1199.23 1474.21,-1221.02 1555,-1184.17 1595.37,-1165.76 1625.26,-1120.92 1640.08,-1094.52"/>
<polygon fill="#757575" stroke="#757575" points="1643.16,-1096.17 1644.84,-1085.71 1637.01,-1092.84 1643.16,-1096.17"/>
</g>
<!-- users/controllers.ts&#45;&gt;users/services.ts -->
<g id="edge74" class="edge">
<title>users/controllers.ts&#45;&gt;users/services.ts</title>
<path fill="none" stroke="#757575" d="M920.2,-850.7C937.16,-872.79 976.36,-922.12 1015,-958.17 1031.75,-973.8 1052.45,-989.32 1068.53,-1000.66"/>
<polygon fill="#757575" stroke="#757575" points="1066.73,-1003.67 1076.93,-1006.5 1070.72,-997.92 1066.73,-1003.67"/>
</g>
<!-- users/validation.ts&#45;&gt;common/result.ts -->
<g id="edge89" class="edge">
<title>users/validation.ts&#45;&gt;common/result.ts</title>
<path fill="none" stroke="#757575" d="M1126.69,-193.57C1204.47,-165.77 1415.4,-103.72 1555,-189.17 1615.09,-225.96 1638.88,-313.79 1646.93,-354.62"/>
<polygon fill="#757575" stroke="#757575" points="1643.52,-355.39 1648.77,-364.59 1650.4,-354.12 1643.52,-355.39"/>
</g>
<!-- users/validation.ts&#45;&gt;validation/index.ts -->
<g id="edge91" class="edge">
<title>users/validation.ts&#45;&gt;validation/index.ts</title>
<path fill="none" stroke="#757575" d="M1135.72,-216.77C1148.69,-220.93 1163.09,-225.9 1176,-231.17 1198.92,-240.53 1223.93,-252.97 1242.82,-262.84"/>
<polygon fill="#757575" stroke="#757575" points="1241.35,-266.02 1251.83,-267.6 1244.62,-259.83 1241.35,-266.02"/>
</g>
<!-- users/validation.ts&#45;&gt;users/db.ts -->
<g id="edge90" class="edge">
<title>users/validation.ts&#45;&gt;users/db.ts</title>
<path fill="none" stroke="#757575" d="M1158.23,-203.93C1210.98,-206.04 1286.05,-217.01 1336,-258.17 1380.62,-294.94 1437.11,-467.04 1456.01,-527.84"/>
<polygon fill="#757575" stroke="#757575" points="1452.71,-529 1459,-537.53 1459.4,-526.94 1452.71,-529"/>
</g>
<!-- work/controllers.ts&#45;&gt;work/services.ts -->
<g id="edge96" class="edge">
<title>work/controllers.ts&#45;&gt;work/services.ts</title>
<path fill="none" stroke="#757575" d="M1149.93,-949.68C1168.68,-953.71 1189.93,-958.29 1209.43,-962.49"/>
<polygon fill="#757575" stroke="#757575" points="1208.93,-965.96 1219.44,-964.64 1210.4,-959.12 1208.93,-965.96"/>
</g>
</g>
</svg>
